<?xml version="1.0" standalone="no"?><!DOCTYPE svg PUBLIC "-//W3C//DTD SVG 1.1//EN" "http://www.w3.org/Graphics/SVG/1.1/DTD/svg11.dtd"><svg t="1597292728495" class="icon" viewBox="0 0 1024 1024" version="1.1" xmlns="http://www.w3.org/2000/svg" p-id="7710" xmlns:xlink="http://www.w3.org/1999/xlink" width="200" height="200"><defs><style type="text/css"></style></defs><path d="M530.7392 691.2h19.6608v281.6h-76.8v-206.4128A51.3024 51.3024 0 0 0 537.6 716.8a50.944 50.944 0 0 0-6.8608-25.6z" fill="#3BBDFF" p-id="7711"></path><path d="M425.088 539.648l-215.6288 215.6288A38.3232 38.3232 0 0 1 179.2 766.4128V768H112.64C57.4976 768 12.8 722.176 12.8 665.6V102.4c0-56.576 44.6976-102.4 99.84-102.4h798.72c55.1424 0 99.84 45.824 99.84 102.4v563.2c0 56.576-44.6976 102.4-99.84 102.4H517.9136c2.3296-2.1504 4.608-4.5056 6.7584-6.9632L473.6 793.6v-51.2a51.2 51.2 0 0 1 51.2-51.2h24.32l-3.1488 56.2688-21.2992 13.568c13.2352-15.0528 22.784-34.9184 22.784-50.176 0-7.3472-2.2272-13.9264-5.9904-19.6608h343.2448c27.4432 0 49.6896-22.912 49.6896-51.2V128c0-28.288-22.272-51.2-49.6896-51.2H139.264C111.872 76.8 89.6 99.712 89.6 128v512c0 28.288 22.272 51.2 49.6896 51.2h25.6256l232.9344-232.9088c6.8608-6.8864 15.6928-10.5984 24.6784-11.1872 10.7008-0.7168 21.632 2.9952 29.7984 11.1616l81.5616 81.5616 215.7056-215.7056a38.4 38.4 0 1 1 54.2976 54.2976l-242.688 242.688c-4.608 4.608-10.1632 7.8336-16 9.6a38.4 38.4 0 0 1-38.5536-9.5232l-81.5616-81.536z" fill="#3BBDFF" p-id="7712"></path><path d="M179.2 729.6m-38.4 0a38.4 38.4 0 1 0 76.8 0 38.4 38.4 0 1 0-76.8 0Z" fill="#3BBDFF" p-id="7713"></path><path d="M217.6 947.2h588.8a38.4 38.4 0 0 1 0 76.8h-588.8a38.4 38.4 0 0 1 0-76.8zM140.8 692.096a25.6 25.6 0 1 0 42.9312-19.7376c-12.288 12.544-22.3488 18.8416-30.1312 18.8416-4.352 0-8.6272 0.3584-12.8 0.896zM691.2 243.2h168.6016a25.6 25.6 0 0 1 25.6 25.6v168.6016a25.6 25.6 0 0 1-43.6992 18.0992l-168.6016-168.6016A25.6 25.6 0 0 1 691.2 243.2z" fill="#3BBDFF" p-id="7714"></path></svg>