<?xml version="1.0" standalone="no"?><!DOCTYPE svg PUBLIC "-//W3C//DTD SVG 1.1//EN" "http://www.w3.org/Graphics/SVG/1.1/DTD/svg11.dtd"><svg t="1597287829380" class="icon" viewBox="0 0 1024 1024" version="1.1" xmlns="http://www.w3.org/2000/svg" p-id="1148" xmlns:xlink="http://www.w3.org/1999/xlink" width="200" height="200"><defs><style type="text/css"></style></defs><path d="M524.101174 861.135238a339.870476 339.870476 0 0 1-321.340952-195.047619A339.626667 339.626667 0 0 1 238.600222 297.447619C320.276412 189.44 434.13546 146.041905 568.474508 162.620952a329.630476 329.630476 0 0 1 177.005714 78.994286c27.794286 24.380952 27.306667 34.133333-3.657143 51.931429-26.819048 15.36-53.881905 30.47619-80.457143 46.08-73.142857 43.398095-148.23619 85.820952-221.135238 130.438095a70.217143 70.217143 0 0 0-24.380952 101.668571c24.380952 42.910476 69.485714 52.662857 118.003809 24.380953 144.091429-83.626667 287.939048-167.740952 432.518096-250.392381a32.914286 32.914286 0 0 0 16.579047-50.224762 474.697143 474.697143 0 0 0-167.497143-198.217143C652.344984-13.653333 478.264984-31.207619 300.284031 52.662857S25.510698 283.794286 9.41927 477.866667c-13.165714 160.914286 48.761905 296.96 164.083809 409.112381a506.88 506.88 0 0 0 618.300952 55.100952c48.761905-32.670476 48.761905-32.670476 18.285715-82.407619-32.426667-54.125714-64.609524-64.121905-121.904762-37.059048a332.55619 332.55619 0 0 1-165.059048 38.521905z" p-id="1149" fill="#0098ff"></path><path d="M1013.670698 633.660952a248.441905 248.441905 0 0 0-41.691428-102.4c-5.851429-10.48381-15.36-6.339048-24.380953-1.706666-32.914286 19.017143-66.072381 38.278095-99.474286 56.563809a19.748571 19.748571 0 0 0-8.533333 31.451429q29.013333 48.761905 56.32 97.523809c7.801905 14.140952 17.310476 17.310476 30.96381 8.777143 19.992381-12.678095 40.472381-24.380952 59.733333-38.034286a58.026667 58.026667 0 0 0 27.062857-52.175238z" p-id="1150" fill="#0098ff"></path></svg>