<?xml version="1.0" standalone="no"?><!DOCTYPE svg PUBLIC "-//W3C//DTD SVG 1.1//EN" "http://www.w3.org/Graphics/SVG/1.1/DTD/svg11.dtd"><svg t="1588548402608" class="icon" viewBox="0 0 1024 1024" version="1.1" xmlns="http://www.w3.org/2000/svg" p-id="95600" xmlns:xlink="http://www.w3.org/1999/xlink" width="200" height="200"><defs><style type="text/css"></style></defs><path d="M751.177143 240.420571a361.325714 361.325714 0 0 0-483.474286 537.161143c33.718857 30.281143 62.317714 45.056 87.771429 45.056 48.786286 0 85.284571-54.637714 132.388571-123.611428a1116.16 1116.16 0 0 1 94.134857-125.366857 1124.937143 1124.937143 0 0 1 114.541715-106.642286c60.562286-50.980571 108.178286-91.136 108.982857-136.118857 0.438857-27.355429-17.481143-56.978286-54.345143-90.477715z m-157.476572 216.502858c-23.259429 18.139429-45.056 38.034286-65.243428 59.538285a603.282286 603.282286 0 0 0-53.394286 72.557715c-24.064 36.498286-41.106286 62.683429-63.926857 62.683428a32.402286 32.402286 0 0 1-21.357714-9.508571 178.980571 178.980571 0 0 1 239.323428-266.093715c7.68 5.851429 12.214857 14.774857 12.434286 24.356572-1.316571 18.285714-20.48 34.377143-47.835429 56.539428z" fill="#80BC00" p-id="95601"></path><path d="M509.44 0a509.220571 509.220571 0 1 0-0.438857 1018.441143A509.220571 509.220571 0 0 0 509.44 0z m321.097143 798.061714a431.981714 431.981714 0 0 1-610.157714 32.036572 432.420571 432.420571 0 0 1-31.963429-609.938286 431.981714 431.981714 0 1 1 642.121143 577.901714z" fill="#80BC00" p-id="95602"></path></svg>