<?xml version="1.0" standalone="no"?><!DOCTYPE svg PUBLIC "-//W3C//DTD SVG 1.1//EN" "http://www.w3.org/Graphics/SVG/1.1/DTD/svg11.dtd"><svg t="1588545796278" class="icon" viewBox="0 0 1024 1024" version="1.1" xmlns="http://www.w3.org/2000/svg" p-id="55766" xmlns:xlink="http://www.w3.org/1999/xlink" width="200" height="200"><defs><style type="text/css"></style></defs><path d="M768.073143 219.501714H256A36.571429 36.571429 0 0 0 219.428571 256a36.571429 36.571429 0 0 0 36.498286 36.498286H768A36.571429 36.571429 0 0 0 804.571429 256a36.571429 36.571429 0 0 0-36.498286-36.498286zM256 438.857143A36.571429 36.571429 0 0 0 219.428571 475.355429a36.571429 36.571429 0 0 0 36.498286 36.425142h217.161143a36.425143 36.425143 0 1 0 0-72.923428h-217.234286z m512.292571-438.857143a182.857143 182.857143 0 0 1 182.491429 170.861714l0.365714 11.995429v73.142857a36.571429 36.571429 0 0 1-72.557714 6.582857l-0.585143-6.582857v-73.142857a109.714286 109.714286 0 0 0-99.108571-109.202286L768.219429 73.142857H256a109.714286 109.714286 0 0 0-109.202286 99.181714L146.285714 182.857143v658.285714a109.714286 109.714286 0 0 0 99.181715 109.202286L256 950.857143h147.017143a36.571429 36.571429 0 0 1 6.582857 72.557714L403.017143 1024H256a182.857143 182.857143 0 0 1-182.491429-170.861714L73.142857 841.142857v-658.285714A182.857143 182.857143 0 0 1 244.004571 0.365714L256 0h512.219429zM473.088 658.285714a36.425143 36.425143 0 1 1 0 72.923429h-217.234286A36.571429 36.571429 0 0 1 219.428571 694.857143 36.571429 36.571429 0 0 1 255.926857 658.285714z" fill="#8F979F" p-id="55767"></path><path d="M969.142857 914.285714a54.857143 54.857143 0 1 1 0 109.714286h-402.285714a54.857143 54.857143 0 1 1 0-109.714286h402.285714zM768 331.702857a219.428571 219.428571 0 0 1 36.571429 435.785143V804.571429h109.714285a36.571429 36.571429 0 1 1 0 73.142857h-292.571428a36.571429 36.571429 0 1 1 0-73.142857H731.428571v-37.010286a219.428571 219.428571 0 0 1 36.571429-435.858286z" fill="#12123C" p-id="55768"></path></svg>