<?xml version="1.0" standalone="no"?><!DOCTYPE svg PUBLIC "-//W3C//DTD SVG 1.1//EN" "http://www.w3.org/Graphics/SVG/1.1/DTD/svg11.dtd"><svg t="1588545875891" class="icon" viewBox="0 0 1024 1024" version="1.1" xmlns="http://www.w3.org/2000/svg" p-id="58311" xmlns:xlink="http://www.w3.org/1999/xlink" width="200" height="200"><defs><style type="text/css"></style></defs><path d="M928.29 741l-20.87-14.55a31.2 31.2 0 0 1 0-51.51l20.87-14.55c27.55-19.2 9.78-62.49-23.61-56.65l-24.8 4.26a31.36 31.36 0 0 1-36.49-36.49l4.29-24.8c5.85-33-37.32-51-56.65-23.61L776.48 544a31.2 31.2 0 0 1-51.48 0l-14.55-20.87c-19.2-27.55-62.49-9.78-56.65 23.61l4.29 24.8A31.36 31.36 0 0 1 621.57 608l-24.8-4.29c-33-5.85-51 37.32-23.62 56.65L594 674.95a31.2 31.2 0 0 1 0 51.51L573.15 741c-27.54 19.2-9.78 62.49 23.62 56.65l24.8-4.29a31.36 31.36 0 0 1 36.49 36.49l-4.29 24.8c-5.85 33 37.32 51 56.65 23.61L725 857.4a31.2 31.2 0 0 1 51.51 0L791 878.27c19.2 27.55 62.49 9.78 56.65-23.61l-4.29-24.8a31.37 31.37 0 0 1 36.49-36.49l24.8 4.29c33.39 6.2 51.52-37.44 23.61-56.65z m-177.21 48.3a88.36 88.36 0 1 1 88.36-88.37 88.48 88.48 0 0 1-88.36 88.37z m0 0" p-id="58312" fill="#1BA1E2"></path><path d="M836.78 132.18H140.06c-31.93 0-58.06 25.87-58.06 57.5v575c0 31.62 26.13 57.5 58.06 57.5h378.78c-5.81-17.25-8.71-28.21-11.61-48.34H159.85a29 29 0 0 1-29-28.75V209.27a29 29 0 0 1 29-28.75H817a29 29 0 0 1 29 28.75v262.14c20.32 8.63 31.4 20.13 48.81 34.5V189.68c0-31.62-26.13-57.5-58.06-57.5z" p-id="58313" fill="#1BA1E2"></path><path d="M260.72 281.08h373.87a25.4 25.4 0 1 1 0 50.8H260.72a25.4 25.4 0 1 1 0-50.8zM246.83 451.76h168.29a25.4 25.4 0 1 1 0 50.8H246.83a25.4 25.4 0 1 1 0-50.8zM229.41 622.44h168.27a25.4 25.4 0 1 1 0 50.8H229.41a25.4 25.4 0 0 1 0-50.8zM535.26 451.76h34.93a25.4 25.4 0 1 1 0 50.8h-34.93a25.4 25.4 0 1 1 0-50.8z" p-id="58314" fill="#1BA1E2"></path></svg>