<?xml version="1.0" standalone="no"?><!DOCTYPE svg PUBLIC "-//W3C//DTD SVG 1.1//EN" "http://www.w3.org/Graphics/SVG/1.1/DTD/svg11.dtd"><svg t="1588545832736" class="icon" viewBox="0 0 1024 1024" version="1.1" xmlns="http://www.w3.org/2000/svg" p-id="57856" xmlns:xlink="http://www.w3.org/1999/xlink" width="200" height="200"><defs><style type="text/css"></style></defs><path d="M658.773333 517.12V136.533333H90.453333v709.973334h261.12c18.773333 0 34.133333 15.36 34.133334 34.133333s-15.36 34.133333-34.133334 34.133333H56.32c-18.773333 0-34.133333-15.36-34.133333-34.133333V102.4c0-18.773333 15.36-34.133333 34.133333-34.133333h636.586667c18.773333 0 34.133333 15.36 34.133333 34.133333v414.72c0 18.773333-15.36 34.133333-34.133333 34.133333s-34.133333-15.36-34.133334-34.133333z" fill="#719E19" p-id="57857"></path><path d="M532.48 267.946667h-307.2c-18.773333 0-34.133333 15.36-34.133333 34.133333s15.36 34.133333 34.133333 34.133333h307.2c18.773333 0 34.133333-15.36 34.133333-34.133333s-15.36-34.133333-34.133333-34.133333zM566.613333 488.106667c0-18.773333-15.36-34.133333-34.133333-34.133334h-307.2c-18.773333 0-34.133333 15.36-34.133333 34.133334s15.36 34.133333 34.133333 34.133333h307.2c18.773333 0 34.133333-15.36 34.133333-34.133333zM226.986667 636.586667c-18.773333 0-34.133333 15.36-34.133334 34.133333s15.36 34.133333 34.133334 34.133333h90.453333c18.773333 0 34.133333-15.36 34.133333-34.133333s-15.36-34.133333-34.133333-34.133333h-90.453333zM481.28 906.24c-5.12 1.706667-10.24 1.706667-13.653333 1.706667h-11.946667c-3.413333 0-8.533333 0-13.653333-1.706667-5.12 0-11.946667-1.706667-18.773334-3.413333l76.8-245.76c6.826667 0 11.946667-1.706667 17.066667-1.706667H546.133333c5.12 0 11.946667 1.706667 17.066667 1.706667L640 904.533333c-13.653333 1.706667-23.893333 3.413333-34.133333 3.413334h-13.653334c-5.12 0-10.24-1.706667-15.36-1.706667l-13.653333-47.786667c-6.826667 1.706667-11.946667 3.413333-18.773333 3.413334-5.12 1.706667-11.946667 1.706667-17.066667 1.706666-5.12 0-10.24 0-17.066667-1.706666-5.12 0-11.946667-1.706667-17.066666-3.413334l-11.946667 47.786667zM529.066667 723.626667l-23.893334 88.746666c3.413333 1.706667 6.826667 1.706667 10.24 3.413334 3.413333 0 6.826667 1.706667 10.24 1.706666 3.413333 0 8.533333 0 11.946667-1.706666 3.413333 0 8.533333-1.706667 11.946667-3.413334L529.066667 723.626667zM711.68 783.36c0 49.493333 20.48 73.386667 61.44 73.386667 6.826667 0 13.653333 0 20.48-1.706667 6.826667-1.706667 15.36-3.413333 23.893333-6.826667 6.826667 17.066667 11.946667 34.133333 15.36 51.2-6.826667 1.706667-13.653333 5.12-18.773333 6.826667-5.12 1.706667-11.946667 3.413333-17.066667 3.413333-5.12 0-10.24 1.706667-15.36 1.706667h-15.36c-18.773333 0-37.546667-3.413333-51.2-10.24-15.36-6.826667-27.306667-15.36-37.546666-25.6-10.24-11.946667-17.066667-23.893333-22.186667-40.96-5.12-15.36-6.826667-32.426667-6.826667-51.2s3.413333-35.84 8.533334-51.2c5.12-15.36 13.653333-29.013333 22.186666-40.96 10.24-11.946667 22.186667-20.48 37.546667-27.306667 15.36-6.826667 30.72-10.24 49.493333-10.24 10.24 0 22.186667 0 30.72 1.706667 10.24 1.706667 20.48 5.12 32.426667 10.24 0 10.24-1.706667 18.773333-5.12 27.306667-3.413333 8.533333-6.826667 17.066667-8.533333 23.893333-5.12-1.706667-8.533333-3.413333-11.946667-3.413333-3.413333-1.706667-6.826667-1.706667-10.24-3.413334-3.413333 0-6.826667-1.706667-10.24-1.706666h-10.24c-18.773333 0-32.426667 6.826667-42.666667 18.773333-13.653333 11.946667-18.773333 30.72-18.773333 56.32zM863.573333 658.773333c6.826667-1.706667 11.946667-1.706667 17.066667-1.706666h27.306667c5.12 0 10.24 1.706667 17.066666 1.706666v192.853334h80.213334c1.706667 5.12 1.706667 10.24 1.706666 15.36v23.893333c0 3.413333-1.706667 8.533333-1.706666 15.36h-141.653334V658.773333z" fill="#719E19" p-id="57858"></path></svg>