<?xml version="1.0" standalone="no"?><!DOCTYPE svg PUBLIC "-//W3C//DTD SVG 1.1//EN" "http://www.w3.org/Graphics/SVG/1.1/DTD/svg11.dtd"><svg t="1588545866271" class="icon" viewBox="0 0 1030 1024" version="1.1" xmlns="http://www.w3.org/2000/svg" p-id="58128" xmlns:xlink="http://www.w3.org/1999/xlink" width="201.171875" height="200"><defs><style type="text/css"></style></defs><path d="M709.632 678.912a69.12 69.12 0 1 0 138.24 0 69.12 69.12 0 1 0-138.24 0z m43.52 16.896h51.2v145.92h-51.2z m129.024 194.56H675.328c-14.336 0-25.6-11.264-25.6-25.6s11.264-25.6 25.6-25.6h206.848c14.336 0 25.6 11.264 25.6 25.6s-11.264 25.6-25.6 25.6z m-44.544 110.592H720.896c-14.336 0-25.6-11.264-25.6-25.6s11.264-25.6 25.6-25.6h116.736c14.336 0 25.6 11.264 25.6 25.6s-11.264 25.6-25.6 25.6z m-322.56-365.568H204.8c-14.336 0-25.6-11.264-25.6-25.6s11.264-25.6 25.6-25.6h310.272c14.336 0 25.6 11.264 25.6 25.6s-11.264 25.6-25.6 25.6z m0 135.68H204.8c-14.336 0-25.6-11.264-25.6-25.6s11.264-25.6 25.6-25.6h310.272c14.336 0 25.6 11.264 25.6 25.6s-11.264 25.6-25.6 25.6zM204.8 635.392c-8.192 0-16.384-4.096-20.992-11.264-8.192-11.776-5.12-27.648 6.656-35.328l102.4-69.632c11.776-8.192 27.648-5.12 35.328 6.656 8.192 11.776 5.12 27.648-6.656 35.328l-102.4 69.632c-4.096 3.072-9.216 4.608-14.336 4.608z m208.384 205.312c-8.192 0-16.384-4.096-20.992-11.264-8.192-11.776-5.12-27.648 6.656-35.328l101.888-69.632c11.776-8.192 27.648-5.12 35.328 6.656 8.192 11.776 5.12 27.648-6.656 35.328L427.52 836.096c-4.096 3.072-9.216 4.608-14.336 4.608z m192-517.632l-393.728-1.536c-14.336 0-25.6-11.776-25.6-25.6 0-14.336 11.264-25.6 25.6-25.6l393.728 1.536c14.336 0 25.6 11.776 25.6 25.6 0 14.336-11.264 25.6-25.6 25.6zM322.56 1005.056H43.52c-14.336 0-25.6-11.264-25.6-25.6V35.84c0-14.336 11.264-25.6 25.6-25.6h733.696c14.336 0 25.6 11.264 25.6 25.6v276.992c0 14.336-11.264 25.6-25.6 25.6s-25.6-11.264-25.6-25.6V61.44H69.12v892.416h253.44c14.336 0 25.6 11.264 25.6 25.6s-11.264 25.6-25.6 25.6z" p-id="58129" fill="#1BA1E2"></path></svg>