<?xml version="1.0" standalone="no"?><!DOCTYPE svg PUBLIC "-//W3C//DTD SVG 1.1//EN" "http://www.w3.org/Graphics/SVG/1.1/DTD/svg11.dtd"><svg t="1585118666538" class="icon" viewBox="0 0 1024 1024" version="1.1" xmlns="http://www.w3.org/2000/svg" p-id="44816" xmlns:xlink="http://www.w3.org/1999/xlink" width="200" height="200"><defs><style type="text/css"></style></defs><path d="M406.284 74.947c-98.642 0-178.291 87.469-178.291 195.22 0 107.684 79.65 195.087 178.291 195.087 98.324 0 178.233-87.403 178.233-195.087 0-107.751-79.909-195.22-178.233-195.22z m4.076 346.575c-71.964 0-130.302-57.689-130.302-128.746 0-28.424 9.625-54.454 25.263-75.906 22.094 32.043 58.978 53.296 100.963 53.296 44.38 0 83.335-23.774 104.715-59.237 18.608 22.352 29.78 50.776 29.78 81.846 0 71.059-58.522 128.747-130.419 128.747zM447.802 762.052c0-103.914 61.312-192.899 149.35-234.666-10.171-2.163-20.678-3.415-31.499-3.415h-51.096L408.354 738.122 307.639 523.971h-47.8c-82.878 0-150.066 67.188-150.066 150.125v149.231c0 27.449 22.49 50.059 50.067 50.059h313.838c-16.122-33.87-25.876-71.327-25.876-111.334z" p-id="44817" fill="#1296db"></path><path d="M753.333 961.074a30.42 30.42 0 0 1-20.104-7.576c-21.566-18.672-50.111 0.06-50.32 0.239-9.843 8.233-24.042 9.545-35.108 3.221l-78.21-45.16c-10.529-6.085-16.465-17.778-15.063-29.888 4.206-37.047-19.836-44.504-22.58-45.22-13.423-3.52-22.789-15.63-22.789-29.53V716.9c0-14.139 9.664-26.368 23.385-29.709 26.696-6.383 24.608-31.558 22.461-42.117-2.625-12.826 3.221-26.249 14.586-32.871l78.21-45.1c11.096-6.264 24.936-5.19 34.81 2.983 21.745 18.195 51.275-0.06 51.484-0.179 9.784-7.755 23.684-8.889 34.511-2.804l78.21 45.1a30.57 30.57 0 0 1 15.272 26.965c-0.597 36.629 23.534 48.322 26.279 49.515 11.066 4.892 18.851 16.107 18.851 28.217v90.26c0 13.721-9.127 25.712-22.341 29.411-28.098 7.875-23.743 40.328-23.177 43.967a30.481 30.481 0 0 1-14.884 31.26l-78.21 45.16a30.517 30.517 0 0 1-15.273 4.116z m-137.329-93.005l46.174 26.666c21.417-11.275 61.208-17.957 92.676-0.358l45.428-26.249c1.283-27.323 12.14-62.222 45.846-81.252v-52.438c-19.209-14.079-39.582-39.254-44.176-77.553l-48.113-27.74c-21.238 10.678-60.521 17.121-91.901 0.358l-44.832 25.831c-0.119 29.828-12.2 64.548-46.86 82.624v49.753c21.507 13.245 44.028 38.778 45.758 80.358z" p-id="44818" fill="#1296db"></path><path d="M708.203 834.423c-39.91 0-72.363-32.453-72.363-72.363s32.453-72.363 72.363-72.363 72.363 32.453 72.363 72.363c0 7.278-1.044 14.377-3.132 21.059-2.506 8.054-11.007 12.528-19.12 10.022-8.054-2.446-12.558-11.036-10.052-19.09 1.163-3.758 1.76-7.815 1.76-11.991 0-23.087-18.762-41.819-41.819-41.819-23.057 0-41.819 18.732-41.819 41.819s18.762 41.819 41.819 41.819c6.204 0 12.23-1.372 17.897-3.997 7.547-3.4 16.734-0.239 20.313 7.397 3.579 7.636 0.268 16.704-7.368 20.283-9.754 4.534-20.134 6.861-30.842 6.861z" p-id="44819" fill="#1296db"></path></svg>