<?xml version="1.0" standalone="no"?><!DOCTYPE svg PUBLIC "-//W3C//DTD SVG 1.1//EN" "http://www.w3.org/Graphics/SVG/1.1/DTD/svg11.dtd"><svg t="1588548990751" class="icon" viewBox="0 0 1024 1024" version="1.1" xmlns="http://www.w3.org/2000/svg" p-id="98576" xmlns:xlink="http://www.w3.org/1999/xlink" width="200" height="200"><defs><style type="text/css"></style></defs><path d="M24.623158 1014.456589l483.6608-495.774989a8.939789 8.939789 0 0 0 1.080589-11.428379c-29.410358-41.061053-83.685053-48.181895-103.794526-75.773305-59.576589-81.728674-74.692716-127.989221-100.294063-125.123369a7.824168 7.824168 0 0 0-4.651116 2.453558L125.911579 487.915789C25.396547 590.869558 10.948716 817.797389 8.340211 1007.831579a9.472 9.472 0 0 0 16.282947 6.623663z" fill="#017CEE" p-id="98577"></path><path d="M1014.474105 1002.222484L518.697768 518.526653a8.939789 8.939789 0 0 0-11.445894-1.08059c-41.061053 29.427874-48.181895 83.685053-75.773306 103.794526-81.728674 59.576589-127.989221 74.694063-125.123368 100.294064a7.824168 7.824168 0 0 0 2.453558 4.6336l179.105684 174.713263c102.953768 100.516379 329.8816 114.964211 519.917137 117.572716a9.472 9.472 0 0 0 6.639832-16.231748z" fill="#00AD46" p-id="98578"></path><path d="M487.915789 900.931368c-56.280926-54.907958-82.363284-163.524716 25.4976-387.500463-175.346526 78.365642-236.793263 181.370611-206.575831 210.8672z" fill="#04D659" p-id="98579"></path><path d="M1002.222484 12.389053L518.5792 508.162695a8.922274 8.922274 0 0 0-1.081937 11.428379c29.427874 41.061053 83.667537 48.181895 103.794526 75.774652 59.576589 81.727326 74.711579 127.987874 100.295411 125.123369a7.790484 7.790484 0 0 0 4.648421-2.454906l174.713263-179.105684c100.517726-102.952421 114.965558-329.880253 117.574063-519.915789a9.489516 9.489516 0 0 0-16.300463-6.623663z" fill="#00C7D4" p-id="98580"></path><path d="M901.035116 538.929853c-54.907958 56.280926-163.524716 82.361937-387.517979-25.498948 78.364295 175.347874 181.369263 236.794611 210.865852 206.577179z" fill="#11E1EE" p-id="98581"></path><path d="M12.355368 24.623158l495.773643 483.643284a8.939789 8.939789 0 0 0 11.428378 1.08059c41.061053-29.426526 48.181895-83.685053 75.773306-103.794527 81.728674-59.576589 127.989221-74.692716 125.123368-100.294063a7.875368 7.875368 0 0 0-2.453558-4.649768l-179.105684-174.713263C435.9424 25.377684 209.013221 10.929853 18.977684 8.322695A9.472 9.472 0 0 0 12.355368 24.623158z" fill="#E43921" p-id="98582"></path><path d="M538.981053 125.911579c56.280926 54.909305 82.363284 163.526063-25.498948 387.519326C688.829979 435.066611 750.276716 332.045474 720.060632 302.565053z" fill="#FF7557" p-id="98583"></path><path d="M125.911579 487.933305c54.909305-56.282274 163.526063-82.364632 387.519326 25.4976-78.364295-175.346526-181.369263-236.793263-210.8672-206.577179z" fill="#0CB6FF" p-id="98584"></path><path d="M491.879747 513.344674a21.619874 21.619874 0 1 0 43.239748 0 21.619874 21.619874 0 1 0-43.239748 0z" fill="#4A4848" p-id="98585"></path></svg>