<?xml version="1.0" standalone="no"?><!DOCTYPE svg PUBLIC "-//W3C//DTD SVG 1.1//EN" "http://www.w3.org/Graphics/SVG/1.1/DTD/svg11.dtd"><svg t="1588549011385" class="icon" viewBox="0 0 2650 1024" version="1.1" xmlns="http://www.w3.org/2000/svg" p-id="98721" xmlns:xlink="http://www.w3.org/1999/xlink" width="517.578125" height="200"><defs><style type="text/css"></style></defs><path d="M18.274987 752.916736l358.966595-367.957633a6.63503 6.63503 0 0 0 0.802316-8.481632c-21.828103-30.475292-62.109486-35.760393-77.03512-56.238567-44.216554-60.657675-55.43625-94.991728-74.437143-92.864952a5.807243 5.807243 0 0 0-3.451234 1.821131L93.450771 362.12492c-74.6027 76.411096-85.325724 244.833887-87.261472 385.876036a7.029821 7.029821 0 0 0 12.085688 4.91578z" fill="#017CEE" p-id="98722"></path><path d="M752.929471 743.836551L384.971838 384.844486a6.63503 6.63503 0 0 0-8.494367-0.802317c-30.475292 21.840838-35.760393 62.109486-56.238567 77.035121-60.657675 44.216554-94.991728 55.43625-92.864952 74.437142a5.807243 5.807243 0 0 0 1.821131 3.4385l132.929837 129.66963c76.411096 74.6027 244.833887 85.325724 385.876036 87.261472a7.029821 7.029821 0 0 0 4.928515-12.047483z" fill="#00AD46" p-id="98723"></path><path d="M362.12492 668.660767c-41.771399-40.752585-61.128877-121.366291 18.924481-287.59863-130.140832 58.161579-175.745521 134.610881-153.318864 156.50266z" fill="#04D659" p-id="98724"></path><path d="M743.836551 9.194802L384.882691 377.152436a6.622295 6.622295 0 0 0-0.802316 8.481631c21.840838 30.475292 62.096751 35.760393 77.03512 56.238567 44.216554 60.657675 55.448985 94.991728 74.437143 92.864952a5.781773 5.781773 0 0 0 3.451234-1.821131L668.673503 399.986618c74.6027-76.411096 85.325724-244.833887 87.261471-385.876036a7.042556 7.042556 0 0 0-12.098423-4.91578z" fill="#00C7D4" p-id="98725"></path><path d="M668.737179 399.986618c-40.752585 41.771399-121.366291 61.128877-287.611366-18.924481 58.161579 130.140832 134.610881 175.745521 156.50266 153.318864z" fill="#11E1EE" p-id="98726"></path><path d="M9.169332 18.274987l367.957633 358.95386a6.63503 6.63503 0 0 0 8.481632 0.802316c30.475292-21.840838 35.760393-62.109486 56.238567-77.03512 60.657675-44.216554 94.991728-55.43625 92.864952-74.437143a5.845449 5.845449 0 0 0-1.821131-3.451234L399.961148 93.438035C323.550052 18.835335 155.12726 8.112311 14.085112 6.176564a7.029821 7.029821 0 0 0-4.91578 12.098423z" fill="#E43921" p-id="98727"></path><path d="M400.024824 93.450771c41.771399 40.752585 61.128877 121.366291-18.924482 287.611366 130.140832-58.161579 175.745521-134.623616 153.318865-156.502661z" fill="#FF7557" p-id="98728"></path><path d="M93.450771 362.137655c40.752585-41.771399 121.366291-61.128877 287.611366 18.924482-58.161579-130.140832-134.610881-175.745521-156.502661-153.318865z" fill="#0CB6FF" p-id="98729"></path><path d="M381.113077 380.998461m-16.04633 0a16.04633 16.04633 0 1 0 32.092661 0 16.04633 16.04633 0 1 0-32.092661 0Z" fill="#4A4848" p-id="98730"></path><path d="M855.931629 250.743012a2.916357 2.916357 0 0 1-2.839946-2.839946 5.832714 5.832714 0 0 1 0.140087-1.566427l35.225516-91.871608a4.406373 4.406373 0 0 1 4.54646-3.12012h9.653268a4.431844 4.431844 0 0 1 4.546461 3.12012l35.072693 91.871608 0.280174 1.566427a2.903622 2.903622 0 0 1-2.839946 2.839946h-7.233584a3.667733 3.667733 0 0 1-2.419685-0.71317 4.482784 4.482784 0 0 1-1.133431-1.706515l-7.806667-20.159794h-46.572563l-7.806667 20.159794a4.037053 4.037053 0 0 1-1.273518 1.706515 3.425764 3.425764 0 0 1-2.266863 0.71317z m61.065201-34.792519l-19.16645-50.405853-19.16645 50.405853z m42.306277 61.765636a3.285677 3.285677 0 0 1-2.40695-0.993344 3.069179 3.069179 0 0 1-0.853257-2.266863v-94.240352a3.069179 3.069179 0 0 1 0.853257-2.266862 3.285677 3.285677 0 0 1 2.40695-0.993344h6.533149a3.413029 3.413029 0 0 1 3.260206 3.260206v6.24024a26.973117 26.973117 0 0 1 23.279914-10.926787 26.642002 26.642002 0 0 1 22.299305 9.373095 39.924798 39.924798 0 0 1 8.099576 24.196847q0.140087 1.553692 0.140087 4.826634t-0.140087 4.826634a40.345059 40.345059 0 0 1-8.099576 24.196847 26.883971 26.883971 0 0 1-22.299305 9.373095 27.431584 27.431584 0 0 1-22.99974-10.646613v32.945918a3.069179 3.069179 0 0 1-0.853257 2.266862 2.839946 2.839946 0 0 1-2.279598 0.993344z m30.105972-37.059382a16.861382 16.861382 0 0 0 14.632725-6.252974 28.857924 28.857924 0 0 0 5.094073-16.466592q0.140087-1.413605 0.140087-4.113464 0-26.83303-19.892356-26.833029a17.383524 17.383524 0 0 0-14.760076 6.533148 26.883971 26.883971 0 0 0-5.246896 15.282219l-0.152822 5.399718 0.152822 5.539804a23.71291 23.71291 0 0 0 5.399718 14.632725 17.829256 17.829256 0 0 0 14.61999 6.278445z m71.673608 11.461665a29.66024 29.66024 0 0 1-12.92621-2.839946 24.706254 24.706254 0 0 1-9.513182-7.64111 18.937217 18.937217 0 0 1-3.413029-10.939521 18.580632 18.580632 0 0 1 7.64111-15.28222 43.299621 43.299621 0 0 1 21.013051-7.946754l21.153139-2.980032v-4.113464q0-14.479903-16.555738-14.479903a17.829256 17.829256 0 0 0-10.188146 2.699859 17.523611 17.523611 0 0 0-5.960065 6.112887 3.884231 3.884231 0 0 1-1.133432 1.846602 2.292333 2.292333 0 0 1-1.706514 0.573083h-6.112888a2.929092 2.929092 0 0 1-3.12012-3.12012 14.900164 14.900164 0 0 1 3.12012-7.641109 24.591638 24.591638 0 0 1 9.513182-7.526493 34.384993 34.384993 0 0 1 15.766156-3.260207 29.940415 29.940415 0 0 1 22.923329 7.526493 25.877891 25.877891 0 0 1 6.966145 18.466015v46.012215a3.272942 3.272942 0 0 1-0.993345 2.419685 3.056444 3.056444 0 0 1-2.266862 0.853257h-6.533149a2.967298 2.967298 0 0 1-3.272942-3.260207v-6.100153a24.489756 24.489756 0 0 1-9.09292 7.64111 32.563862 32.563862 0 0 1-15.320425 3.018238z m2.980033-10.646613a20.108853 20.108853 0 0 0 15.052986-5.972801 23.954879 23.954879 0 0 0 5.960065-17.459935v-3.973377l-16.466591 2.419685a37.161263 37.161263 0 0 0-15.193073 4.826634 9.691474 9.691474 0 0 0-5.094073 8.37975 9.984383 9.984383 0 0 0 4.686547 8.800011 20.185265 20.185265 0 0 0 11.041404 3.018239z m84.599818 10.646613a32.551127 32.551127 0 0 1-23.852997-8.519837 34.86893 34.86893 0 0 1-9.09292-24.196848l-0.140087-5.679891 0.140087-5.679891a34.384993 34.384993 0 0 1 9.09292-24.00582 32.232747 32.232747 0 0 1 23.852997-8.659924 37.148528 37.148528 0 0 1 17.319849 3.693203 26.450974 26.450974 0 0 1 10.506526 9.09292 21.649811 21.649811 0 0 1 3.820554 10.799435 2.547037 2.547037 0 0 1-0.853257 2.266863 3.578586 3.578586 0 0 1-2.419685 0.853257h-6.813322a3.374823 3.374823 0 0 1-2.139511-0.573083 5.832714 5.832714 0 0 1-1.413605-2.266863 18.185841 18.185841 0 0 0-6.813323-9.653268 19.306537 19.306537 0 0 0-11.079609-2.980033 18.466015 18.466015 0 0 0-14.008701 5.539805 24.859077 24.859077 0 0 0-5.539804 16.555737l-0.140087 5.094073 0.140087 4.826634a25.075575 25.075575 0 0 0 5.539804 16.759501 18.415074 18.415074 0 0 0 14.008701 5.399717 20.083383 20.083383 0 0 0 11.079609-2.839946 19.013628 19.013628 0 0 0 6.813323-9.793355 5.832714 5.832714 0 0 1 1.413605-2.266863 2.903622 2.903622 0 0 1 2.139511-0.71317h6.813322a3.285677 3.285677 0 0 1 2.419685 0.993344 2.547037 2.547037 0 0 1 0.853257 2.266863 22.28657 22.28657 0 0 1-3.820554 10.7867 26.46371 26.46371 0 0 1-10.506526 9.09292 36.626385 36.626385 0 0 1-17.332584 3.846025z m51.934075-1.426341a2.967298 2.967298 0 0 1-3.272941-3.260206v-94.240352a3.069179 3.069179 0 0 1 0.853257-2.266863 3.298412 3.298412 0 0 1 2.419684-0.993344h7.093497a3.400294 3.400294 0 0 1 3.272942 3.260207v33.111475a27.597141 27.597141 0 0 1 9.653269-7.946754 29.965885 29.965885 0 0 1 13.779467-2.839946 26.323623 26.323623 0 0 1 21.153139 8.800011 33.646353 33.646353 0 0 1 7.641109 23.152562v40.039415a3.272942 3.272942 0 0 1-0.993344 2.419684 3.056444 3.056444 0 0 1-2.266862 0.853258h-7.093497a2.967298 2.967298 0 0 1-3.260207-3.260207v-39.402655a22.604949 22.604949 0 0 0-4.966721-15.62607 17.663698 17.663698 0 0 0-14.008701-5.539804 18.860806 18.860806 0 0 0-14.339816 5.679891 21.649811 21.649811 0 0 0-5.246895 15.473247v39.326245a3.272942 3.272942 0 0 1-0.993344 2.419684 3.056444 3.056444 0 0 1-2.266863 0.853258z m112.655427 1.426341a31.404961 31.404961 0 0 1-23.432737-8.914628 37.415967 37.415967 0 0 1-9.513181-24.706254l-0.140087-4.826635 0.140087-4.686547a37.606995 37.606995 0 0 1 9.653268-24.42608 34.384993 34.384993 0 0 1 47.565908 0.993344 39.657359 39.657359 0 0 1 8.659924 26.985852v2.419685a3.272942 3.272942 0 0 1-0.993344 2.406949 3.069179 3.069179 0 0 1-2.266863 0.853257h-49.132335v1.273519a26.871235 26.871235 0 0 0 5.539805 15.766156 16.963263 16.963263 0 0 0 13.766732 6.367591 19.905091 19.905091 0 0 0 10.646613-2.547036 21.649811 21.649811 0 0 0 6.252975-5.539805 7.64111 7.64111 0 0 1 1.846601-1.986688 4.979456 4.979456 0 0 1 2.419685-0.420261h6.966145a3.209266 3.209266 0 0 1 2.126775 0.71317 2.445155 2.445155 0 0 1 0.853258 1.986688 12.416803 12.416803 0 0 1-3.973377 7.526493 31.965309 31.965309 0 0 1-10.939522 7.64111 38.829572 38.829572 0 0 1-16.04633 3.158325z m19.446624-43.732618v-0.420261a23.139827 23.139827 0 0 0-5.399718-15.906243 19.255596 19.255596 0 0 0-28.399457 0 23.980349 23.980349 0 0 0-5.094073 15.906243v0.420261z" fill="#51504F" p-id="98731"></path><path d="M853.894 249.889755l-0.776846 0.776846z m-0.71317-3.553116l-1.018815-0.394791z m35.225515-91.871608l1.018814 0.394791z m18.746189 0l-1.03155 0.36932z m35.072693 91.871608l1.069755-0.191028a0.815052 0.815052 0 0 0 0-0.191028z m0.280174 1.566427h1.095226v-0.191027z m-0.853257 1.986689l0.764111 0.776846z m-11.639957 0.140087l-0.776846 0.776846 0.076411 0.063676z m-1.133432-1.706515l1.03155-0.34385z m-7.806667-20.159794l1.018815-0.39479a1.095226 1.095226 0 0 0-1.018815-0.700436z m-46.572563 0v-1.095226a1.095226 1.095226 0 0 0-1.018814 0.700436z m-7.806667 20.159794l-1.018814-0.39479z m-1.273518 1.706515l0.700435 0.840522z m51.539284-34.079349v1.095226a1.095226 1.095226 0 0 0 1.018815-1.477282z m-19.166449-50.405853l1.018814-0.382056a1.095226 1.095226 0 0 0-2.037629 0z m-19.16645 50.405853l-1.018815-0.382056a1.095226 1.095226 0 0 0 1.018815 1.477282z m-22.719566 33.697293a1.630103 1.630103 0 0 1-1.273519-0.534877l-1.553692 1.540957a3.820555 3.820555 0 0 0 2.763535 1.171637z m-1.273519-0.534877a1.642839 1.642839 0 0 1-0.534877-1.273519h-2.177717a3.820555 3.820555 0 0 0 1.171637 2.763535z m-0.534877-1.273519a4.839369 4.839369 0 0 1 0.089146-1.273518l-2.075835-0.6877a6.545884 6.545884 0 0 0-0.203763 1.910278z m0.063676-1.171636l35.21278-91.871608-2.037629-0.776846-35.212781 91.871607z m35.225515-91.897079a3.604057 3.604057 0 0 1 1.273518-1.821131 3.820555 3.820555 0 0 1 2.215922-0.585818v-2.190452a5.985536 5.985536 0 0 0-3.451235 0.967874 5.769038 5.769038 0 0 0-2.11404 2.878152z m3.51491-2.406949h9.653269v-2.190452h-9.653269z m9.653269 0a3.820555 3.820555 0 0 1 2.228657 0.585818 3.604057 3.604057 0 0 1 1.273518 1.821131l2.050364-0.751375a5.743567 5.743567 0 0 0-2.11404-2.878152 5.985536 5.985536 0 0 0-3.46397-0.967874z m3.527645 2.419684l35.072694 91.871608 2.037629-0.776846-35.072693-91.871608z m35.021753 91.693316l0.280174 1.566427 2.152246-0.39479-0.280174-1.566428z m0.267439 1.362664a1.655574 1.655574 0 0 1-0.534878 1.273519l1.540957 1.540957a3.820555 3.820555 0 0 0 1.171637-2.763535z m-0.534878 1.273519a1.655574 1.655574 0 0 1-1.273518 0.534877v2.177717a3.820555 3.820555 0 0 0 2.763534-1.171637z m-1.273518 0.534877h-7.233584v2.177717h7.233584z m-7.233584 0a2.623448 2.623448 0 0 1-1.71925-0.458466l-1.40087 1.681044a4.750223 4.750223 0 0 0 3.12012 0.967874z m-1.642839-0.39479a3.336618 3.336618 0 0 1-0.878727-1.273519l-2.0631 0.6877a5.488864 5.488864 0 0 0 1.40087 2.126776z m-0.891462-1.273519l-7.806667-20.172529-2.03763 0.789581 7.806667 20.159795z m-8.825482-20.860229h-46.572563v2.177716h46.572563z m-47.591378 0.700435l-7.819402 20.17253 2.037629 0.789581 7.806667-20.159794z m-7.832137 20.210735a2.992768 2.992768 0 0 1-0.955139 1.273518l1.413605 1.655574a5.094073 5.094073 0 0 0 1.604634-2.190451z m-0.942404 1.273518a2.356009 2.356009 0 0 1-1.579162 0.458467v2.177716a4.508255 4.508255 0 0 0 2.967297-0.967874z m-1.579162 0.458467h-7.246319v2.177716h7.246319z m54.837696-34.092084l-19.16645-50.405853-2.037629 0.776846 19.16645 50.405853z m-21.216814-50.405853l-19.16645 50.405853 2.037629 0.776846 19.16645-50.405853z m-18.147635 51.895869h38.3329v-2.177716h-38.3329z m78.232227 59.689802l-0.764111 0.776846z m0-98.837753l0.776846 0.776846z m11.219696 0l-0.827787 0.71317 0.127352 0.114617z m0.993344 8.519837h-1.095225a1.095226 1.095226 0 0 0 1.973953 0.649494z m45.579219-1.566428l-0.853257 0.674965z m8.099576 24.196848h-1.095225z m0 9.653268l-1.08249-0.089146z m-8.099576 24.196847l0.853257 0.6877z m-45.299045-1.273518l0.865993-0.66223a1.095226 1.095226 0 0 0-1.961218 0.66223z m-0.853257 35.21278l-0.776846-0.764111z m35.492954-42.319012l-0.878727-0.649494z m5.094073-16.466591l-1.08249-0.101882v0.063676z m-34.49961-24.426081l-0.865992-0.662229z m-5.25963 15.28222h-1.095226z m-0.140087 5.386982h-1.082491z m0.140087 5.539804h-1.095226z m5.399717 14.632725l0.840522-0.6877z m-15.485982 42.217131a2.203187 2.203187 0 0 1-1.642838-0.674965l-1.540957 1.540957a4.355432 4.355432 0 0 0 3.183795 1.273519z m-1.642838-0.674965a1.999424 1.999424 0 0 1-0.534878-1.502751h-2.190451a4.138934 4.138934 0 0 0 1.171636 3.043708z m-0.534878-1.502751v-94.240352h-2.190451v94.240352z m0-94.240352a1.999424 1.999424 0 0 1 0.534878-1.502752l-1.540957-1.540957a4.126199 4.126199 0 0 0-1.171637 3.043709z m0.534878-1.502752a2.203187 2.203187 0 0 1 1.642838-0.674965v-2.190451a4.355432 4.355432 0 0 0-3.183795 1.273518z m1.642838-0.674965h6.533149v-2.190451h-6.533149z m6.533149 0a1.74472 1.74472 0 0 1 1.439076 0.611289l1.655573-1.413605a3.935171 3.935171 0 0 0-3.107384-1.3754z m1.566427 0.738641a1.74472 1.74472 0 0 1 0.611289 1.439076h2.177716a3.935171 3.935171 0 0 0-1.375399-3.09465z m0.611289 1.439076v6.240239h2.177716v-6.240239z m1.973953 6.889734a25.890626 25.890626 0 0 1 22.401187-10.481056v-2.177716a28.017402 28.017402 0 0 0-24.196847 11.385253z m22.401187-10.481056a25.559512 25.559512 0 0 1 21.433312 8.914628l1.71925-1.349929a27.724493 27.724493 0 0 0-23.152562-9.780621z m21.433312 8.914628a38.778631 38.778631 0 0 1 7.857608 23.496412l2.177716-0.089146a40.981818 40.981818 0 0 0-8.328809-24.782666z m7.857608 23.560088c0.089146 0.993344 0.140087 2.547037 0.140087 4.737488h2.177716c0-2.177716 0-3.820555-0.152822-4.928516z m0.140087 4.737488c0 2.177716 0 3.744144-0.140087 4.737488l2.164981 0.191028c0.101881-1.095226 0.152822-2.750799 0.152822-4.928516z m-0.140087 4.788429a39.224363 39.224363 0 0 1-7.857608 23.509147l1.706515 1.349929a41.389344 41.389344 0 0 0 8.328809-24.76993z m-7.857608 23.496412a25.788745 25.788745 0 0 1-21.433312 8.914628v2.177716a28.017402 28.017402 0 0 0 23.139827-9.78062z m-21.433312 8.914628a26.336358 26.336358 0 0 1-22.146483-10.188146l-1.731985 1.273518a28.514074 28.514074 0 0 0 23.865733 11.079609z m-24.094966-9.551387v32.945917h2.190452v-32.945917z m0 32.945917a1.986689 1.986689 0 0 1-0.534878 1.502752l1.540958 1.540957a4.138934 4.138934 0 0 0 1.171636-3.043709z m-0.585818 1.566428a1.757455 1.757455 0 0 1-1.451811 0.611289v2.190451a3.922436 3.922436 0 0 0 3.107385-1.3754z m-1.451811 0.611289h-6.95341v2.190451h6.95341z m23.139827-34.881666a17.931137 17.931137 0 0 0 15.511452-6.698706l-1.757455-1.273518a15.791627 15.791627 0 0 1-13.741262 5.794508z m15.498717-6.685971a29.991355 29.991355 0 0 0 5.336042-17.07788l-2.177716-0.089146a27.788169 27.788169 0 0 1-4.903046 15.868038z m5.323307-17.014204c0.101881-1.006079 0.152822-2.419685 0.152822-4.228081h-2.190452c0 1.782926 0 3.12012-0.140087 4.011583z m0.152822-4.228081a34.716108 34.716108 0 0 0-5.18322-20.783818 18.440545 18.440545 0 0 0-15.791626-7.157172v2.177716a16.275563 16.275563 0 0 1 14.008701 6.26571 32.665744 32.665744 0 0 1 4.762958 19.484829z m-20.974846-27.928255a18.491485 18.491485 0 0 0-15.638804 6.966145l1.731984 1.273518a16.326504 16.326504 0 0 1 13.894085-6.100152z m-15.638804 6.966145a28.017402 28.017402 0 0 0-5.476129 15.944448l2.190451 0.101882a25.826951 25.826951 0 0 1 5.094073-14.734606z m-5.476129 15.969919l-0.140087 5.399717h2.177716l0.140087-5.399717z m-0.140087 5.450658l0.140087 5.539805h2.190451l-0.140087-5.539805z m0.140087 5.55254a24.833606 24.833606 0 0 0 5.641686 15.282219l1.693779-1.388135a22.617684 22.617684 0 0 1-5.094073-14.008701z m5.641686 15.282219a18.899011 18.899011 0 0 0 15.460512 6.647765v-2.177716a16.73403 16.73403 0 0 1-13.779468-5.845449z m74.220645 14.225199l0.471201-0.980609z m-9.513182-7.64111l-0.891463 0.624024z m4.266286-26.272682l0.66223 0.865993z m21.013052-7.946754l0.152822 1.082491z m21.153138-2.980032l0.152822 1.08249a1.095226 1.095226 0 0 0 0.942404-1.08249z m-26.83303-15.906243l0.585819 0.916933z m-5.960065 6.112887l-0.955139-0.534877a1.05702 1.05702 0 0 0-0.076411 0.191027z m-1.133431 1.846602l-0.6877-0.853258-0.089147 0.076412z m-10.086265-0.280174l-0.827787 0.71317 0.114617 0.114617z m-0.853257-2.266863h-1.095226z m3.120119-7.641109l-0.891462-0.624024z m9.513182-7.526493l0.483937 0.980609z m38.625809 4.253551l-0.802316 0.73864z m5.960066 66.885179l0.76411 0.776846z m-11.219696 0l-0.827787 0.71317a0.547613 0.547613 0 0 0 0.114616 0.114617z m-0.853258-8.519837h1.095226a1.095226 1.095226 0 0 0-1.986688-0.611289z m-9.09292 7.64111l-0.509407-0.967874z m2.839946-13.486559l-0.789582-0.764111z m5.960065-21.446048h1.095226a1.095226 1.095226 0 0 0-1.273518-1.08249z m-16.466591 2.40695l0.152822 1.08249z m-15.193073 4.826634l0.585818 0.916933z m-0.420261 17.179762l-0.598554 0.904198z m8.086841 12.544155a28.539544 28.539544 0 0 1-12.455009-2.738065l-0.942403 1.973954a30.717261 30.717261 0 0 0 13.384677 2.941827z m-12.455009-2.738065a23.674705 23.674705 0 0 1-9.105655-7.335465l-1.757456 1.273518a25.77601 25.77601 0 0 0 9.920708 8.01043z m-9.080185-7.297259a17.829256 17.829256 0 0 1-3.222001-10.315498H1033.918542a20.006972 20.006972 0 0 0 3.604057 11.55081z m-3.222001-10.315498a17.498141 17.498141 0 0 1 7.246319-14.467168l-1.337194-1.71925a19.663122 19.663122 0 0 0-8.086841 16.199153z m7.246319-14.479903a42.229866 42.229866 0 0 1 20.490909-7.730256l-0.305645-2.164981a44.331171 44.331171 0 0 0-21.535194 8.175987z m20.490909-7.730256l21.153138-2.980033-0.305644-2.164981-21.165874 2.980033z m22.095542-4.062523v-4.113464h-2.177717v4.113464z m0-4.113464a14.721871 14.721871 0 0 0-4.52099-11.678163 19.561241 19.561241 0 0 0-13.180914-3.896966v2.190452a17.4472 17.4472 0 0 1 11.741838 3.349353 12.55689 12.55689 0 0 1 3.820555 10.035324z m-17.701904-15.575129a18.924481 18.924481 0 0 0-10.837641 2.890887l1.273518 1.808396a16.7595 16.7595 0 0 1 9.615063-2.547037z m-10.81217 2.878152a18.491485 18.491485 0 0 0-6.367592 6.494943l1.910278 1.069755a16.377445 16.377445 0 0 1 5.60348-5.718097z m-6.367592 6.673235a2.878151 2.878151 0 0 1-0.789581 1.337194l1.362664 1.706515a4.979456 4.979456 0 0 0 1.490017-2.356009z m-0.865992 1.426341a1.273518 1.273518 0 0 1-0.929669 0.241968v2.177716a3.387559 3.387559 0 0 0 2.470626-0.891462z m-0.929669 0.241968h-6.112887v2.177716h6.112887z m-6.112887 0a2.292333 2.292333 0 0 1-1.553692-0.585818l-1.426341 1.655574a4.482784 4.482784 0 0 0 2.980033 1.10796z m-1.439076-0.471202a2.292333 2.292333 0 0 1-0.598553-1.566427h-2.177717a4.482784 4.482784 0 0 0 1.107961 2.980033z m-0.598553-1.515486a14.008701 14.008701 0 0 1 2.929092-7.093497l-1.782926-1.273518a15.957184 15.957184 0 0 0-3.323883 8.252398z m2.929092-7.080762a23.470942 23.470942 0 0 1 9.105655-7.182643l-0.955138-1.961218a25.699599 25.699599 0 0 0-9.933443 7.870343z m9.11839-7.182643a33.251562 33.251562 0 0 1 15.28222-3.14559v-2.177716a35.416543 35.416543 0 0 0-16.262829 3.387558z m15.28222-3.14559a28.883394 28.883394 0 0 1 22.057336 7.169908l1.604633-1.477281a31.01017 31.01017 0 0 0-23.661969-7.870343z m22.070071 7.182643a24.76993 24.76993 0 0 1 6.660501 17.714639h2.177716a26.960382 26.960382 0 0 0-7.259054-19.204655z m6.660501 17.714639v46.012215h2.177716V201.674353z m0 46.012215a2.190451 2.190451 0 0 1-0.674965 1.642839l1.540957 1.540957a4.380903 4.380903 0 0 0 1.273518-3.183796z m-0.674965 1.642839a1.999424 1.999424 0 0 1-1.502751 0.534877v2.177717a4.15167 4.15167 0 0 0 3.043708-1.171637z m-1.502751 0.534877h-6.533149v2.177717h6.533149z m-6.533149 0a2.547037 2.547037 0 0 1-1.706515-0.585818l-1.413605 1.655574a4.673812 4.673812 0 0 0 3.12012 1.120696z m-1.579163-0.471201a2.470625 2.470625 0 0 1-0.598553-1.706515h-2.177717a4.661077 4.661077 0 0 0 1.107961 3.12012z m-0.598553-1.706515v-6.100152h-2.177717v6.100152z m-1.986689-6.724176a23.509147 23.509147 0 0 1-8.69813 7.32273l1.00608 1.935748a25.623188 25.623188 0 0 0 9.487711-8.01043z m-8.69813 7.32273a31.532312 31.532312 0 0 1-14.683665 3.005503v2.177716a33.671823 33.671823 0 0 0 15.70248-3.247471z m-11.703633-5.463394a21.216814 21.216814 0 0 0 15.842568-6.29118l-1.566428-1.528222a19.013628 19.013628 0 0 1-14.27614 5.628951z m15.842568-6.29118a25.075575 25.075575 0 0 0 6.26571-18.224046h-2.177717a22.923329 22.923329 0 0 1-5.654421 16.708559z m6.26571-18.224046v-3.973377h-2.177717v3.973377z m-1.273519-5.094073l-16.466591 2.406949 0.31838 2.164981 16.466591-2.406949z m-16.466591 2.406949a38.205548 38.205548 0 0 0-15.638804 5.004927l1.209842 1.821131a36.129713 36.129713 0 0 1 14.747342-4.648342z m-15.626069 4.992192a10.761229 10.761229 0 0 0-5.616216 9.296683h2.190452a8.608984 8.608984 0 0 1 4.610136-7.462817z m-5.616216 9.296683a11.066874 11.066874 0 0 0 5.170485 9.704209l1.209842-1.808396a8.914628 8.914628 0 0 1-4.20261-7.895813z m5.195955 9.72968a21.305961 21.305961 0 0 0 11.665427 3.14559v-2.177716a19.102774 19.102774 0 0 1-10.481055-2.814476z m72.412249 4.189875l-0.776846 0.764111z m-9.092921-24.196847h-1.08249z m-0.140087-5.679892h-1.08249z m0.140087-5.679891h-1.08249z m9.092921-24.00582l0.776846 0.776847z m41.185581-4.966721l-0.509408 0.967874z m10.506525 9.080185l-0.929668 0.585819z m3.820555 10.799435h-1.095226z m-0.853257 2.266863l0.71317 0.827787z m-11.359783 0.280174l0.6877-0.853257z m-1.426341-2.266863l-1.031549 0.369321z m-6.813322-9.653268l-0.611289 0.904198z m-25.139251 2.547036l-0.789581-0.751375z m-5.539804 16.555738h-1.095226z m-0.140087 5.094073h-1.095226z m0.140087 4.826634h-1.095226z m5.539804 16.759501l-0.789581 0.751375z m25.139251 2.547036l0.585818 0.916933z m6.813322-9.793355l-1.006079-0.420261z m1.426341-2.266863l0.6877 0.853257 0.089146-0.076411z m11.359783 0.280174l-0.776846 0.764111z m0.853257 2.266863l-1.08249-0.114617z m-3.820555 10.786699l-0.916933-0.585818z m-10.506525 9.092921l-0.509408-0.967874z m-17.319849 2.547036a31.468636 31.468636 0 0 1-23.101621-8.201457l-1.528222 1.553692a33.620882 33.620882 0 0 0 24.617108 8.838217z m-23.088886-8.188722a33.78644 33.78644 0 0 1-8.774541-23.420001l-2.177716 0.076411a35.938686 35.938686 0 0 0 9.398565 24.859077z m-8.774541-23.407266l-0.140087-5.679891h-2.177716l0.140087 5.679891z m-0.140087-5.628951l0.140087-5.679891h-2.177716l-0.140087 5.679891z m0.140087-5.667156a33.251562 33.251562 0 0 1 8.774541-23.267179l-1.553692-1.540957a35.403808 35.403808 0 0 0-9.398565 24.731725z m8.774541-23.267179a31.162992 31.162992 0 0 1 23.088886-8.341544v-2.177717a33.327973 33.327973 0 0 0-24.629843 8.978304z m23.088886-8.341544a36.116978 36.116978 0 0 1 16.810441 3.565851l1.00608-1.935748a38.205548 38.205548 0 0 0-17.829256-3.820555z m16.810441 3.565851a25.343014 25.343014 0 0 1 10.086265 8.69813l1.846601-1.158902a27.482524 27.482524 0 0 0-10.926786-9.474976z m10.099 8.7236a20.59279 20.59279 0 0 1 3.654998 10.188146l2.177716-0.114616a22.783242 22.783242 0 0 0-4.011583-11.334313z m3.654998 10.302763a1.40087 1.40087 0 0 1-0.471202 1.273518l1.42634 1.655574a3.578586 3.578586 0 0 0 1.273518-3.209266z m-0.471202 1.273518a2.547037 2.547037 0 0 1-1.706515 0.585818v2.177717a4.699282 4.699282 0 0 0 3.132855-1.120696z m-1.706515 0.585818h-6.813322v2.177717h6.813322z m-6.813322 0a2.343274 2.343274 0 0 1-1.451811-0.331114l-1.362665 1.706514a4.393638 4.393638 0 0 0 2.814476 0.815052z m-1.451811-0.331114a4.953986 4.953986 0 0 1-1.095226-1.833867l-2.012159 0.840522a6.787852 6.787852 0 0 0 1.74472 2.699859z m-1.069756-1.782926a19.281067 19.281067 0 0 0-7.259054-10.188146l-1.184372 1.833866a17.10335 17.10335 0 0 1 6.367592 9.105656z m-7.233583-10.188146a20.376292 20.376292 0 0 0-11.690898-3.17106v2.177716a18.274987 18.274987 0 0 1 10.46832 2.789005z m-11.690898-3.17106a19.548505 19.548505 0 0 0-14.849223 5.883654l1.579163 1.502751a17.370789 17.370789 0 0 1 13.27006-5.195954z m-14.849223 5.883654a25.928832 25.928832 0 0 0-5.832714 17.319848l2.177716 0.076411a23.840262 23.840262 0 0 1 5.234161-15.906243z m-5.832714 17.332584l-0.140087 5.094073h2.177716l0.140087-5.094073z m-0.140087 5.170484l0.140087 4.826634 2.177716-0.063676-0.140087-4.826634z m0.140087 4.839369a26.132595 26.132595 0 0 0 5.832714 17.459936l1.579163-1.502752a24.05676 24.05676 0 0 1-5.234161-16.04633z m5.832714 17.459936a19.523035 19.523035 0 0 0 14.849223 5.743567v-2.190451a17.358054 17.358054 0 0 1-13.27006-5.094073z m14.849223 5.743567a21.153138 21.153138 0 0 0 11.665427-3.018238l-1.184372-1.833867a18.988157 18.988157 0 0 1-10.481055 2.661654z m11.690898-3.030973a20.070648 20.070648 0 0 0 7.233583-10.340969l-2.063099-0.725905a17.943872 17.943872 0 0 1-6.367592 9.258478z m7.208113-10.277293a4.966721 4.966721 0 0 1 1.095226-1.833866l-1.362665-1.706515a6.787852 6.787852 0 0 0-1.74472 2.712594z m1.184372-1.923012a1.833866 1.833866 0 0 1 1.362665-0.394791v-2.177716a3.947907 3.947907 0 0 0-2.903622 1.031549z m1.362665-0.394791h6.813322v-2.177716h-6.813322z m6.813322 0a2.203187 2.203187 0 0 1 1.642839 0.674965l1.540957-1.540958a4.380903 4.380903 0 0 0-3.183796-1.273518z m1.706515 0.725905a1.40087 1.40087 0 0 1 0.471202 1.273519l2.164981 0.216498a3.578586 3.578586 0 0 0-1.273519-3.209266z m0.471202 1.388135a21.191344 21.191344 0 0 1-3.667733 10.264557l1.833866 1.171637a23.420001 23.420001 0 0 0 4.011583-11.321577z m-3.667733 10.264557a25.330278 25.330278 0 0 1-10.086265 8.69813l1.00608 1.935748a27.533465 27.533465 0 0 0 10.926786-9.474976z m-10.099 8.710865a35.658512 35.658512 0 0 1-16.810441 3.565852v2.177716a37.696141 37.696141 0 0 0 17.829256-3.820555z m32.703949 2.38148l-0.827787 0.71317 0.127352 0.114616z m0-98.97784l0.776846 0.764111z m11.792779 0l-0.827787 0.71317 0.114617 0.114617z m0.993345 35.352867h-1.082491a1.095226 1.095226 0 0 0 1.948483 0.674965z m9.653268-7.946754l0.483937 0.980609z m34.932606 5.960065l-0.827787 0.713171z m6.673236 65.598926l-0.776846-0.764111z m-11.780044 0l-0.827787 0.713171 0.114617 0.114616z m-5.819979-57.308322l-0.827786 0.71317z m-28.399457 0.140087l-0.789581-0.751376z m-6.240239 57.219176l-0.776847-0.764111z m-9.373095-0.241968a2.547037 2.547037 0 0 1-1.706514-0.585819l-1.426341 1.655574a4.673812 4.673812 0 0 0 3.12012 1.120696z m-1.579163-0.471202a2.547037 2.547037 0 0 1-0.585818-1.706515h-2.190451a4.673812 4.673812 0 0 0 1.10796 3.12012z m-0.585818-1.706515v-94.240352h-2.190451v94.240352z m0-94.240352a1.986689 1.986689 0 0 1 0.534878-1.502751l-1.540957-1.540957a4.15167 4.15167 0 0 0-1.171637 3.043708z m0.534878-1.502751a2.190451 2.190451 0 0 1 1.642838-0.674965V148.823345a4.368168 4.368168 0 0 0-3.183795 1.273518z m1.642838-0.674965h7.093497V148.823345h-7.093497z m7.093497 0a1.74472 1.74472 0 0 1 1.439076 0.611289l1.655573-1.42634a3.922436 3.922436 0 0 0-3.107384-1.3754z m1.553692 0.725906a1.74472 1.74472 0 0 1 0.611289 1.439075h2.190452a3.935171 3.935171 0 0 0-1.3754-3.094649z m0.611289 1.439075v33.111475h2.190452v-33.111475z m1.948483 33.76097a26.438239 26.438239 0 0 1 9.271213-7.64111l-0.955139-1.961218a28.628691 28.628691 0 0 0-10.035324 8.265133z m9.296683-7.64111a28.934335 28.934335 0 0 1 13.282796-2.725329v-2.177716a31.048375 31.048375 0 0 0-14.27614 2.954562z m13.282796-2.725329a25.241132 25.241132 0 0 1 20.376292 8.417956l1.655574-1.426341a27.406113 27.406113 0 0 0-21.99366-9.182067z m20.376292 8.443426a32.563862 32.563862 0 0 1 7.399141 22.426657h2.177717a34.728843 34.728843 0 0 0-7.946754-23.865733z m7.399141 22.426657v40.039414h2.177717v-40.039414z m0 40.039414a2.203187 2.203187 0 0 1-0.674964 1.642839l1.540957 1.540957a4.393638 4.393638 0 0 0 1.273518-3.183796z m-0.674964 1.642839a1.986689 1.986689 0 0 1-1.502752 0.534877v2.177717a4.164405 4.164405 0 0 0 3.043709-1.171637z m-1.502752 0.534877h-7.093497v2.177717h7.093497z m-7.093497 0a2.547037 2.547037 0 0 1-1.706514-0.585818l-1.426341 1.655574a4.673812 4.673812 0 0 0 3.12012 1.120696z m-1.579162-0.471201a2.547037 2.547037 0 0 1-0.585819-1.706515h-2.190451a4.686547 4.686547 0 0 0 1.107961 3.12012z m-0.585819-1.706515v-39.36445h-2.190451v39.326245z m0-39.326244a23.674705 23.674705 0 0 0-5.246895-16.351975l-1.630103 1.451811a21.522459 21.522459 0 0 1 4.686547 14.887429z m-5.23416-16.339239a18.733454 18.733454 0 0 0-14.887428-5.909125v2.177716a16.555738 16.555738 0 0 1 13.231855 5.170484z m-14.887428-5.909125a19.943296 19.943296 0 0 0-15.129397 6.023741l1.579162 1.502752a17.829256 17.829256 0 0 1 13.550235-5.336042z m-15.129397 6.023741a22.65589 22.65589 0 0 0-5.55254 16.237358h2.190451a20.490909 20.490909 0 0 1 4.953986-14.721871z m-5.55254 16.237358v39.326244h2.190451v-39.377185z m0 39.326244a2.190451 2.190451 0 0 1-0.674965 1.642839l1.540957 1.540957a4.380903 4.380903 0 0 0 1.273519-3.183796z m-0.674965 1.642839a1.986689 1.986689 0 0 1-1.502751 0.534878v2.177716a4.164405 4.164405 0 0 0 3.043708-1.171637z m-1.502751 0.534878h-7.093497v2.177716h7.093497z m82.129193-6.431268l-0.789581 0.751376z m-9.513182-24.706254h-1.095225z m-0.152822-4.826634h-1.08249v0.063676z m0.152822-4.686548l-1.095225-0.076411z m9.653269-24.42608l-0.776846-0.764111z m47.565907 0.993344l-0.827787 0.71317z m7.64111 31.837957l0.776846 0.776846z m-51.399197 0.853257v-1.095225a1.095226 1.095226 0 0 0-1.095226 1.095225z m0 1.273518h-1.095226z m5.539804 15.766157l-0.865992 0.674964z m24.42608 3.820554l0.573084 0.929669z m6.252975-5.539804l-0.878727-0.649494z m1.846602-1.986688l0.496672 0.980609h0.076411z m11.461664 0.280174l-0.700435 0.840522z m-3.12012 9.513181l-0.815051-0.725905z m-10.926786 7.64111l0.445731 0.993344z m3.400293-40.612498v1.095226a1.095226 1.095226 0 0 0 1.095226-1.095226z m-5.399717-16.326504l-0.840522 0.700435z m-28.399458 0l-0.827786-0.700435z m-5.094073 16.326504h-1.095225a1.095226 1.095226 0 0 0 1.095225 1.095226z m19.45936 42.650127a30.309735 30.309735 0 0 1-22.65589-8.621719l-1.553693 1.528222a32.474716 32.474716 0 0 0 24.196847 9.271213z m-22.643155-8.608984a36.422623 36.422623 0 0 1-9.220273-24.018554l-2.177716 0.114616a38.549398 38.549398 0 0 0 9.818826 25.40669z m-9.207537-23.993084l-0.140087-4.826634h-2.177717l0.140087 4.826634z m-0.140087-4.762958l0.140087-4.686547-2.190452-0.063676-0.140087 4.686547z m0.140087-4.648342a36.56271 36.56271 0 0 1 9.360359-23.73838l-1.579163-1.502752a38.740426 38.740426 0 0 0-9.958913 25.101045z m9.347624-23.73838a29.685711 29.685711 0 0 1 22.362981-8.749071v-2.177716a31.837957 31.837957 0 0 0-23.929409 9.424035z m22.362981-8.749071a29.380066 29.380066 0 0 1 23.598293 9.704209l1.655574-1.42634a31.545048 31.545048 0 0 0-25.253867-10.455585z m23.611028 9.704209a38.587604 38.587604 0 0 1 8.392486 26.259947h2.190451a40.752585 40.752585 0 0 0-8.914628-27.699022z m8.392486 26.259947v2.419685h2.190451v-2.419685z m0 2.419685a2.190451 2.190451 0 0 1-0.674965 1.642838l1.540957 1.540957a4.393638 4.393638 0 0 0 1.273518-3.183795z m-0.674965 1.642838a1.986689 1.986689 0 0 1-1.502752 0.534878v2.177716a4.164405 4.164405 0 0 0 3.043709-1.171637z m-1.502752 0.534878h-49.132334v2.177716h49.132334z m-50.22756 1.095226v1.273518h2.190451v-1.273518z m0 1.273518a28.017402 28.017402 0 0 0 5.769038 16.39018l1.719249-1.349929a25.814215 25.814215 0 0 1-5.310571-15.142133z m5.781773 16.402915a18.058489 18.058489 0 0 0 14.61999 6.787853V240.51666a15.880773 15.880773 0 0 1-12.926211-5.985535z m14.61999 6.787853a20.974846 20.974846 0 0 0 11.232431-2.725329l-1.146167-1.859337a18.860806 18.860806 0 0 1-10.073529 2.394214z m11.232431-2.725329a22.63042 22.63042 0 0 0 6.558619-5.832714l-1.782926-1.273518a20.54185 20.54185 0 0 1-5.934595 5.246895z m6.533148-5.807244a15.931714 15.931714 0 0 1 1.03155-1.273518 3.565851 3.565851 0 0 1 0.331115-0.31838l0.101881-0.076411-0.980609-1.948483a4.15167 4.15167 0 0 0-1.05702 0.865993 19.739533 19.739533 0 0 0-1.171637 1.439075z m1.528222-1.706514a4.17714 4.17714 0 0 1 1.859337-0.267439v-2.177716a5.960066 5.960066 0 0 0-2.980033 0.585818z m1.859337-0.267439h6.966145v-2.177716h-6.966145z m6.966145 0a2.11404 2.11404 0 0 1 1.42634 0.458466l1.400871-1.681044a4.291757 4.291757 0 0 0-2.827211-0.967874z m1.42634 0.458466a1.362665 1.362665 0 0 1 0.458467 1.146167h2.177716a3.527646 3.527646 0 0 0-1.273518-2.827211z m0.458467 1.146167a11.461664 11.461664 0 0 1-3.705938 6.800587l1.630103 1.464546a13.435618 13.435618 0 0 0 4.253551-8.265133z m-3.705938 6.813323a30.819142 30.819142 0 0 1-10.570202 7.399141l0.916933 1.986688a33.111475 33.111475 0 0 0 11.308843-7.946754z m-10.557467 7.386406a37.747082 37.747082 0 0 1-15.587863 3.030973v2.177716a39.899327 39.899327 0 0 0 16.492061-3.222001z m4.953986-39.619154v-0.420261h-2.177716v0.420261z m0-0.420261a24.196847 24.196847 0 0 0-5.667156-16.632148l-1.642838 1.45181a22.044601 22.044601 0 0 1 5.094073 15.180338z m-5.654421-16.555737a18.669778 18.669778 0 0 0-15.04025-6.63503v2.190451a16.555738 16.555738 0 0 1 13.359206 5.858184z m-15.04025-6.63503a18.669778 18.669778 0 0 0-15.027516 6.63503l1.668309 1.40087a16.555738 16.555738 0 0 1 13.359207-5.858184z m-15.040251 6.63503a25.024634 25.024634 0 0 0-5.374247 16.555737h2.190451a22.846918 22.846918 0 0 1 4.86484-15.205808z m-5.374247 16.555737v0.420261h2.190451v-0.420261z m1.095225 1.515487h38.905984v-2.177716h-38.905984z" fill="#51504F" p-id="98732"></path><path d="M826.411475 584.251977a7.399141 7.399141 0 0 1-7.220848-7.220849 14.658195 14.658195 0 0 1 0.356585-3.973377l89.477394-233.410429a11.219696 11.219696 0 0 1 11.538075-7.934018h24.527962a11.232431 11.232431 0 0 1 11.550811 7.934018l89.146279 233.410429 0.725905 3.973377a7.424612 7.424612 0 0 1-7.220849 7.220849h-18.402339a9.360359 9.360359 0 0 1-6.138358-1.808396 11.461664 11.461664 0 0 1-2.878151-4.329963l-19.841415-51.23364h-118.335317l-19.841415 51.23364a10.188146 10.188146 0 0 1-3.247471 4.329963 8.761806 8.761806 0 0 1-5.769038 1.808396z m155.127261-88.382168l-48.699339-128.064998L884.152794 495.857073z m104.224735-134.203356a7.539228 7.539228 0 0 1-8.303339-8.290604v-19.484829a9.09292 9.09292 0 0 1 2.164981-6.138358 8.35428 8.35428 0 0 1 6.138358-2.547037h22.732301a8.621719 8.621719 0 0 1 8.659924 8.659925v19.484829a8.341545 8.341545 0 0 1-2.547036 6.125623 9.080185 9.080185 0 0 1-6.125623 2.164981z m2.890887 222.598259a7.551963 7.551963 0 0 1-8.30334-8.303339V404.953339a7.781197 7.781197 0 0 1 2.164982-5.769037 8.35428 8.35428 0 0 1 6.138358-2.547037h17.307113a8.647189 8.647189 0 0 1 8.303339 8.290604v170.995298a8.341545 8.341545 0 0 1-2.547037 6.138358 7.806667 7.806667 0 0 1-5.769037 2.164981z m87.376088 0a7.539228 7.539228 0 0 1-8.290604-8.303339v-170.651449a9.105656 9.105656 0 0 1 2.164981-6.125622 8.35428 8.35428 0 0 1 6.138358-2.547037h16.555738a8.621719 8.621719 0 0 1 8.659924 8.659924v15.868038a54.188202 54.188202 0 0 1 50.507735-24.527962h14.0087a8.647189 8.647189 0 0 1 8.290604 8.290604v14.785547a7.208113 7.208113 0 0 1-2.547036 5.769038 7.793932 7.793932 0 0 1-5.769038 2.164981h-21.64981a40.752585 40.752585 0 0 0-30.66632 11.550811 41.427549 41.427549 0 0 0-11.194226 30.66632v106.058601a8.35428 8.35428 0 0 1-2.547037 6.138358 9.118391 9.118391 0 0 1-6.138358 2.164981z m155.802225 0a7.551963 7.551963 0 0 1-8.290604-8.303339V425.507924h-30.66632a7.539228 7.539228 0 0 1-8.290604-8.290604v-12.263981a7.781197 7.781197 0 0 1 2.164981-5.769037 8.328809 8.328809 0 0 1 6.125623-2.547037h30.66632v-18.045754q0-61.33264 62.04581-61.319905h20.198a8.647189 8.647189 0 0 1 8.303339 8.290604v12.263981a8.35428 8.35428 0 0 1-2.547036 6.125623 7.806667 7.806667 0 0 1-5.769038 2.164981h-19.472094a26.743884 26.743884 0 0 0-22.732302 8.659925 41.363873 41.363873 0 0 0-6.494943 25.610452v16.237358h77.200678V325.587681a7.806667 7.806667 0 0 1 2.164981-5.769038 8.35428 8.35428 0 0 1 6.138358-2.547037h16.555737a8.647189 8.647189 0 0 1 8.303339 8.290604v250.360957a8.341545 8.341545 0 0 1-2.547036 6.138358 7.806667 7.806667 0 0 1-5.781773 2.164981h-16.555738a7.539228 7.539228 0 0 1-8.303339-8.303339V425.507924h-77.200677v150.440713a8.367015 8.367015 0 0 1-2.547037 6.138358 7.819402 7.819402 0 0 1-5.781773 2.164982z m266.165318 3.604056a82.61313 82.61313 0 0 1-61.689224-22.375716 87.070444 87.070444 0 0 1-23.088887-59.524243l-0.36932-15.511453 0.36932-15.511453a85.73325 85.73325 0 0 1 23.445472-59.167658 94.100265 94.100265 0 0 1 122.652544 0 85.784191 85.784191 0 0 1 23.445472 59.167658q0.356585 3.960642 0.356585 15.511453t-0.356585 15.511453a86.242657 86.242657 0 0 1-23.445472 59.524243 81.390553 81.390553 0 0 1-61.38358 22.362981z m0-27.775433a45.617424 45.617424 0 0 0 35.658512-14.428962 62.797186 62.797186 0 0 0 14.428962-41.491225q0.356585-3.604057 0.356585-13.703057t-0.356585-13.703056a62.797186 62.797186 0 0 0-14.428962-41.491226 45.617424 45.617424 0 0 0-35.658512-14.428962 46.750856 46.750856 0 0 0-36.078772 14.428962 61.510932 61.510932 0 0 0-14.008701 41.491226l-0.356585 13.703056 0.356585 13.703057a61.510932 61.510932 0 0 0 14.008701 41.491225 46.750856 46.750856 0 0 0 36.015097 14.416227z m175.172438 24.196847a10.773965 10.773965 0 0 1-7.208113-2.164981 16.823176 16.823176 0 0 1-4.329962-6.851528l-51.23364-167.391242-0.71317-3.604056a7.32273 7.32273 0 0 1 2.164981-5.412453 8.163252 8.163252 0 0 1 5.412452-2.164981h15.868038a7.793932 7.793932 0 0 1 5.769038 2.164981 8.226928 8.226928 0 0 1 3.247471 3.973377l40.05215 135.999016 42.930301-134.55994a9.691474 9.691474 0 0 1 3.247471-5.094073 9.245743 9.245743 0 0 1 6.851529-2.547037h12.263981a9.271213 9.271213 0 0 1 6.864263 2.547037 9.678739 9.678739 0 0 1 3.247472 5.094073l42.930301 134.55994 40.039414-135.999016a8.341545 8.341545 0 0 1 2.547037-3.973377 9.09292 9.09292 0 0 1 6.138358-2.164981h16.237358a6.902469 6.902469 0 0 1 5.094073 2.164981 7.335465 7.335465 0 0 1 2.164981 5.412453l-0.725906 3.604056-50.864319 167.391242a16.848647 16.848647 0 0 1-4.329963 6.851528 11.461664 11.461664 0 0 1-7.641109 2.164981h-14.008701a10.952257 10.952257 0 0 1-11.907396-9.016509l-41.84781-129.147488-41.847811 129.147488a11.81825 11.81825 0 0 1-12.263981 9.016509z" fill="#51504F" p-id="98733"></path></svg>