<?xml version="1.0" standalone="no"?><!DOCTYPE svg PUBLIC "-//W3C//DTD SVG 1.1//EN" "http://www.w3.org/Graphics/SVG/1.1/DTD/svg11.dtd"><svg t="1588543887226" class="icon" viewBox="0 0 4210 1024" version="1.1" xmlns="http://www.w3.org/2000/svg" p-id="5520" xmlns:xlink="http://www.w3.org/1999/xlink" width="822.265625" height="200"><defs><style type="text/css"></style></defs><path d="M3740.14943 599.869261c-29.589339-50.735432-29.513388-153.263283 0.17722-206.967142 12.975004-23.494252 52.3937-75.634781 224.435928-75.634781 35.342646 0 61.223033 1.816501 80.280466 4.386184 41.760526 5.614063 73.552451 19.848592 73.552451 58.741959 0 51.349371-75.672757 51.824066-75.672757 51.824066h-160.364724c-68.10295 0-73.311939 94.179544-73.311939 94.179543h233.676663c82.084308 0 167.130714-36.78572 167.130715-144.452938 0-71.577719-41.190892-119.743467-108.464707-138.19962-67.235839-18.449823-93.42636-17.449799-185.061538-15.804188-73.368903 1.310159-115.629441 17.411823-142.319974 25.779119-46.792296 14.683907-88.704725 42.089648-116.971246 93.249141-46.026454 83.293199-45.602393 221.018122 0.905086 300.741612 49.729078 85.242614 134.98435 130.857666 238.043859 130.939946h313.86852l0.012658-94.489678h-314.20397c-90.47692 0.265829-135.376765-49.418943-155.712711-84.293223M1802.955967 243.803496c-83.28054-46.026454-221.018122-45.608723-300.741612 0.905086-113.800282 66.387717-156.972235 196.099785-115.458551 346.989591 21.304324 77.451282 78.837392 134.509655 166.377531 164.991421 61.85596 21.544836 118.768759 22.165105 121.129577 22.177763l-0.120256-94.939056c-1.639281-0.006329-164.212921-2.411452-195.852944-117.420624-40.823794-148.408732 27.437387-213.941998 71.767598-239.797068 50.735432-29.589339 153.263283-29.507059 206.973471 0.189878 57.058373 31.519767 61.178728 97.280886 61.178728 201.840433v192.713625c0 68.10295 94.939056 72.558756 94.939056 72.558756V528.74092c0-99.825253 0-224.043514-110.192598-284.943753M3034.638317 778.607857V482.67649c0.08861-103.065839 45.697332-188.321112 130.933617-238.04386 79.736149-46.507479 217.461073-46.93154 300.747941-0.911415 110.192598 60.893911 110.192598 185.12483 110.192598 284.943754v264.962247s-94.939056-4.455806-94.939056-72.558756V528.664969c0-104.559547-4.126684-170.320667-61.185057-201.846762-53.710189-29.690607-156.23804-29.772888-206.967142-0.183549-34.87428 20.342275-84.559053 65.242119-84.293223 155.719039v296.260489h-94.496007zM2893.976611 778.614186V329.754988s94.179544 5.20899 94.179544 73.318268v375.534601h-94.179544zM2988.156155 236.778006V325.387791s-94.179544-5.20266-94.179544-73.311939V236.778006h94.179544zM2415.812891 246.050387c83.286869-46.026454 221.018122-45.602393 300.741612 0.905086 113.800282 66.394047 156.978565 196.099785 115.46488 346.989591-21.304324 77.451282-78.837392 134.509655-166.38386 164.99775-61.84963 21.538507-118.724454 19.354909-121.078943 19.373897l0.075951-94.141568c1.632952-0.006329 164.212921-0.411403 195.846615-115.420575 40.823794-148.408732-27.437387-213.935669-71.761268-239.790739-50.741761-29.589339-153.263283-29.513388-206.979801 0.17722-57.058373 31.532425-61.178728 97.293545-61.178728 201.853091V630.775088c0 68.10295-94.939056 72.546097-94.939056 72.546098V530.99414c0-99.831582 0-224.049843 110.192598-284.943753" fill="#0D597F" p-id="5521"></path><path d="M2399.806166 1021.797414v-313.887507s-94.179544 5.20266-94.179544 73.30561v240.588226h94.179544zM2051.538062 0v328.558756s-94.179544-5.20266-94.179543-73.30561V0h94.179543zM2064.285213 566.748189c-8.228052-29.874156-12.025614-56.393799-12.481321-79.913368L2051.538062 405.706233c0-68.10295-94.249166-72.552427-94.249165-72.552427V486.341138c0.291146 33.545133 5.37988 68.938413 15.456078 105.591218 21.304324 77.457611 78.850051 134.515984 166.38386 165.004079 61.84963 21.538507 118.610527 21.696739 120.952358 21.709398l0.050634-94.477019c-1.632952-0.006329-164.212921-2.411452-195.846614-117.426954M428.004252 636.952456v-124.116992l-89.369298 89.470566a256.246842 256.246842 0 0 0 27.234851 16.683957 182.536158 182.536158 0 0 0 23.975276 10.588869c7.443222 2.639306 14.348456 4.443148 20.703044 5.614063a104.812718 104.812718 0 0 0 17.456127 1.759537m456.897372-10.31671c0.158232 0.126585 1.031671 0.86711 2.632977 1.886122 1.613964 1.031671 3.974782 2.354489 7.10777 3.658318a63.609168 63.609168 0 0 0 11.747126 3.544392c4.715306 0.962049 10.24076 1.594976 16.601677 1.594976 5.303929 0 11.158504-0.462037 17.576384-1.582318a133.319752 133.319752 0 0 0 20.924567-5.525453 183.200732 183.200732 0 0 0 24.29174-10.633174 257.329147 257.329147 0 0 0 27.652583-16.899152l-67.818133-66.438351-224.77138-225.606844-98.622691 98.654338-133.041264-137.199595-333.90066 330.134745a257.101293 257.101293 0 0 0 27.620936 16.899152 182.991866 182.991866 0 0 0 24.260094 10.633174 132.218459 132.218459 0 0 0 20.911909 5.519124c6.411551 1.120281 12.266126 1.582318 17.563725 1.582317 6.360917 0 11.88637-0.632927 16.589018-1.594976a63.147131 63.147131 0 0 0 11.753455-3.544391 45.823918 45.823918 0 0 0 7.088783-3.651989c1.620293-1.031671 2.487403-1.765866 2.645635-1.898781l150.731575-150.731575 53.906396-51.684822 149.256854 149.256854 52.146859 53.627909c0.158232 0.126585 1.025342 0.86711 2.639306 1.886122 1.613964 1.031671 3.968453 2.354489 7.101441 3.658318a63.988924 63.988924 0 0 0 11.747126 3.544392c4.715306 0.962049 10.247089 1.594976 16.608006 1.594976 5.297599 0 11.158504-0.462037 17.576384-1.582318a133.547606 133.547606 0 0 0 20.924568-5.525453 183.586817 183.586817 0 0 0 24.28541-10.633174 257.329147 257.329147 0 0 0 27.646253-16.899152l-119.768783-117.294039 22.29169-22.29169 103.648132 103.648132 60.444532 59.893886m-1.284842-625.142038l294.456647 510.151853-294.456647 510.158182h-589.128489L0.031646 511.645561 294.494623 1.493708h589.122159z" fill="#0D597F" p-id="5522"></path><path d="M699.878063 486.796845l-78.419661-78.293075 5.569758-5.601404 78.989295 78.115855-6.139392 5.778624zM2487.339976 953.707123V778.373674h-15.823176v175.333449c0 33.975524 26.506984 70.292877 100.875911 70.292877h120.648553v-15.823176h-120.648553c-78.919673 0-85.052736-41.697233-85.052735-54.469701M2745.567879 1024h15.823176v-180.282938h-15.823176v180.282938zM2745.567879 834.058595h15.823176v-23.671471h-15.823176v23.671471zM3564.815981 843.717062h-20.835958l-67.001656 78.229782-67.102925-78.229782h-20.835958l77.501916 90.413628-76.976587 89.862981h20.728361l66.634559-77.742429 66.640888 77.742429h20.937226l-77.134818-89.926274 77.444952-90.350335zM3325.329048 954.694489c0 5.46849-2.892477 53.482335-103.350657 53.482335-99.477143 0-102.344302-48.013845-102.344302-53.482335v-110.977427h-15.823176v110.977427c0 7.088783 3.310208 69.305511 118.167478 69.305511 115.825648 0 119.180162-62.216728 119.180162-69.305511v-110.977427h-15.823176v110.977427zM2933.097832 843.717062c-115.825648 0-119.173832 62.20407-119.173833 69.305511v110.971098h15.823176v-110.971098c0-5.474819 2.905135-53.482335 103.350657-53.482335 99.477143 0 102.356961 48.007516 102.356961 53.482335v110.971098h15.823176v-110.971098c0-7.101441-3.310208-69.305511-118.180137-69.305511" fill="#0D597F" p-id="5523"></path></svg>