<?xml version="1.0" standalone="no"?><!DOCTYPE svg PUBLIC "-//W3C//DTD SVG 1.1//EN" "http://www.w3.org/Graphics/SVG/1.1/DTD/svg11.dtd"><svg t="1588543892840" class="icon" viewBox="0 0 1182 1024" version="1.1" xmlns="http://www.w3.org/2000/svg" p-id="5657" xmlns:xlink="http://www.w3.org/1999/xlink" width="230.859375" height="200"><defs><style type="text/css"></style></defs><path d="M429.519757 637.737113V513.175113L339.702996 602.991874a245.948018 245.948018 0 0 0 27.313442 16.705663 185.223249 185.223249 0 0 0 24.073941 10.671299 138.34576 138.34576 0 0 0 20.77092 5.589727 101.186775 101.186775 0 0 0 17.531419 1.77855m458.548229-10.3537a20.199243 20.199243 0 0 0 2.604305 1.905589 51.514422 51.514422 0 0 0 7.177718 3.684139 65.425222 65.425222 0 0 0 11.751132 3.557099 84.73519 84.73519 0 0 0 16.705664 1.587991 100.36102 100.36102 0 0 0 17.594938-1.587991 138.282241 138.282241 0 0 0 21.024998-5.526208 191.95633 191.95633 0 0 0 24.518579-10.3537 270.276037 270.276037 0 0 0 27.694559-16.959742l-68.029526-66.695615-225.558216-226.701569-98.963588 98.963588-133.391229-137.647044-335.256622 331.254885a249.441598 249.441598 0 0 0 27.69456 16.959742 175.377706 175.377706 0 0 0 24.391539 10.671298 133.010111 133.010111 0 0 0 20.961479 5.589728 106.967062 106.967062 0 0 0 17.658458 1.58799 84.544631 84.544631 0 0 0 16.642144-1.58799 65.044104 65.044104 0 0 0 11.751132-3.620619 46.051734 46.051734 0 0 0 7.177718-3.62062 20.199243 20.199243 0 0 0 2.604305-1.905588l151.303765-151.303766 54.055208-51.89554 149.842814 149.779294 52.340177 53.801129a20.199243 20.199243 0 0 0 2.604305 1.905589 53.991688 53.991688 0 0 0 7.114199 3.684139 67.902487 67.902487 0 0 0 11.814652 3.557099 84.544631 84.544631 0 0 0 16.642143 1.587991 100.488059 100.488059 0 0 0 17.658458-1.587991 138.282241 138.282241 0 0 0 21.024999-5.526208 187.509956 187.509956 0 0 0 24.328019-10.29018 264.051113 264.051113 0 0 0 27.75808-16.959742l-120.179146-118.019478 22.358911-22.42243 104.045159 104.045158 60.661249 60.089573M886.734074 0l295.556851 511.96824-295.556851 512.03176H295.556851L0 511.96824 295.556851 0z" fill="#0D597F" p-id="5658"></path><path d="M697.636127 497.168166L619.18938 418.59438l5.589728-5.589728 79.272502 78.383227z" fill="#0D597F" p-id="5659"></path></svg>