<?xml version="1.0" standalone="no"?><!DOCTYPE svg PUBLIC "-//W3C//DTD SVG 1.1//EN" "http://www.w3.org/Graphics/SVG/1.1/DTD/svg11.dtd"><svg t="1588549306891" class="icon" viewBox="0 0 1024 1024" version="1.1" xmlns="http://www.w3.org/2000/svg" p-id="106122" xmlns:xlink="http://www.w3.org/1999/xlink" width="200" height="200"><defs><style type="text/css"></style></defs><path d="M512 37.546667A474.453333 474.453333 0 1 0 986.453333 512 474.88 474.88 0 0 0 512 37.546667z m194.986667 710.826666c-8.96 0-16.213333-3.84-26.026667-11.52l-244.906667-197.973333-82.346666 205.653333H282.453333l207.36-498.773333a31.573333 31.573333 0 0 1 30.293334-20.053333 30.293333 30.293333 0 0 1 29.013333 20.053333L738.133333 700.16a47.786667 47.786667 0 0 1 3.413334 14.08 33.706667 33.706667 0 0 1-34.56 33.706667z" fill="#231815" p-id="106123"></path><path d="M457.386667 484.266667l185.6 146.346666-122.88-303.36-62.72 157.013334z" fill="#231815" p-id="106124"></path></svg>