<?xml version="1.0" standalone="no"?><!DOCTYPE svg PUBLIC "-//W3C//DTD SVG 1.1//EN" "http://www.w3.org/Graphics/SVG/1.1/DTD/svg11.dtd"><svg t="1585116685359" class="icon" viewBox="0 0 1024 1024" version="1.1" xmlns="http://www.w3.org/2000/svg" p-id="4389" xmlns:xlink="http://www.w3.org/1999/xlink" width="200" height="200"><defs><style type="text/css"></style></defs><path d="M731.392 439.296V222.688L512 96 292.608 222.688v216.608l-187.392 108.192v253.312l219.392 126.688L512 819.392l187.392 108.192 219.392-126.688v-253.408l-187.392-108.192zM512 170.016l155.392 89.696v179.392L512 528.8l-0.192-0.096v-179.392l-155.2-89.696L512 170.016z m-187.392 324.8L480 584.512v179.392l-155.2 89.6v-179.2l-155.584-89.792 155.392-89.696z m530.176 269.088l-155.008 89.504v-179.104l-155.712-89.888 155.296-89.696 155.392 89.696v179.488z" p-id="4390" fill="#1296db"></path></svg>