<?xml version="1.0" standalone="no"?><!DOCTYPE svg PUBLIC "-//W3C//DTD SVG 1.1//EN" "http://www.w3.org/Graphics/SVG/1.1/DTD/svg11.dtd"><svg t="1588546236303" class="icon" viewBox="0 0 1024 1024" version="1.1" xmlns="http://www.w3.org/2000/svg" p-id="65887" xmlns:xlink="http://www.w3.org/1999/xlink" width="200" height="200"><defs><style type="text/css"></style></defs><path d="M152 940.8c-4.8-12.8-6.4-204.8-4.8-428.8l4.8-408 100.8-4.8c73.6-3.2 99.2-11.2 99.2-27.2 0-19.2 28.8-24 144-24s144 4.8 144 24c0 17.6 27.2 24 116.8 27.2l115.2 4.8v848l-356.8 4.8c-278.4 3.2-358.4 0-363.2-16z" fill="#07C496" p-id="65888"></path><path d="M569.6 873.6c-57.6-57.6-86.4-124.8-92.8-217.6-4.8-51.2-1.6-54.4 54.4-65.6 33.6-4.8 75.2-22.4 92.8-38.4 30.4-27.2 33.6-27.2 64 0 17.6 16 59.2 33.6 92.8 38.4 57.6 11.2 59.2 12.8 54.4 73.6-9.6 124.8-107.2 264-185.6 264-12.8 0-49.6-24-80-54.4zM256 560c0-9.6 59.2-16 144-16s144 6.4 144 16-59.2 16-144 16-144-6.4-144-16zM256 416c0-9.6 72-16 184-16s184 6.4 184 16-72 16-184 16-184-6.4-184-16zM256 272c0-9.6 91.2-16 240-16s240 6.4 240 16-91.2 16-240 16-240-6.4-240-16zM363.2 134.4c-6.4-6.4-11.2-28.8-11.2-49.6 0-35.2 3.2-36.8 145.6-36.8h144l-4.8 44.8c-4.8 43.2-6.4 43.2-132.8 48-72 1.6-134.4 0-140.8-6.4z" fill="#7EAD4C" p-id="65889"></path><path d="M590.4 884.8c-59.2-51.2-108.8-152-110.4-222.4 0-43.2 6.4-51.2 64-68.8 33.6-9.6 73.6-28.8 86.4-43.2 22.4-20.8 27.2-20.8 56 8 17.6 17.6 57.6 36.8 88 43.2 51.2 9.6 57.6 16 57.6 60.8-1.6 70.4-51.2 171.2-110.4 222.4-28.8 24-57.6 43.2-65.6 43.2s-36.8-19.2-65.6-43.2zM256 560c0-9.6 59.2-16 144-16s144 6.4 144 16-59.2 16-144 16-144-6.4-144-16zM256 416c0-9.6 72-16 184-16s184 6.4 184 16-72 16-184 16-184-6.4-184-16zM256 272c0-9.6 91.2-16 240-16s240 6.4 240 16-91.2 16-240 16-240-6.4-240-16zM371.2 124.8c-11.2-11.2-19.2-32-19.2-48 0-25.6 16-28.8 144-28.8s144 3.2 144 28.8c0 51.2-35.2 67.2-144 67.2-60.8 0-113.6-8-124.8-19.2z" fill="#AEA530" p-id="65890"></path><path d="M576 867.2c-84.8-84.8-131.2-259.2-67.2-259.2 16 0 56-14.4 89.6-30.4 59.2-30.4 60.8-30.4 110.4 0 28.8 16 67.2 30.4 88 30.4 41.6 0 44.8 35.2 17.6 136-17.6 64-121.6 184-158.4 184-11.2 0-46.4-27.2-80-60.8zM256 560c0-9.6 59.2-16 144-16s144 6.4 144 16-59.2 16-144 16-144-6.4-144-16zM256 416c0-9.6 72-16 184-16s184 6.4 184 16-72 16-184 16-184-6.4-184-16zM256 272c0-9.6 91.2-16 240-16s240 6.4 240 16-91.2 16-240 16-240-6.4-240-16zM371.2 124.8c-11.2-11.2-19.2-32-19.2-48 0-25.6 16-28.8 144-28.8s144 3.2 144 28.8c0 51.2-35.2 67.2-144 67.2-60.8 0-113.6-8-124.8-19.2z" fill="#FE9902" p-id="65891"></path><path d="M608 760c-25.6-30.4-8-54.4 19.2-27.2 14.4 14.4 32 8 72-32 70.4-67.2 89.6-43.2 20.8 27.2-59.2 62.4-81.6 68.8-112 32zM256 560c0-9.6 59.2-16 144-16s144 6.4 144 16-59.2 16-144 16-144-6.4-144-16zM256 416c0-9.6 72-16 184-16s184 6.4 184 16-72 16-184 16-184-6.4-184-16zM256 272c0-9.6 91.2-16 240-16s240 6.4 240 16-91.2 16-240 16-240-6.4-240-16z" fill="#FFE3B9" p-id="65892"></path><path d="M614.4 750.4c-30.4-35.2-30.4-35.2 4.8-12.8 32 19.2 40 17.6 88-25.6l52.8-48-54.4 60.8c-30.4 32-57.6 59.2-57.6 59.2-1.6 0-16-16-33.6-33.6zM256 560c0-9.6 59.2-16 144-16s144 6.4 144 16-59.2 16-144 16-144-6.4-144-16zM256 416c0-9.6 72-16 184-16s184 6.4 184 16-72 16-184 16-184-6.4-184-16zM256 272c0-9.6 91.2-16 240-16s240 6.4 240 16-91.2 16-240 16-240-6.4-240-16z" fill="#FBFDF9" p-id="65893"></path></svg>