<?xml version="1.0" standalone="no"?><!DOCTYPE svg PUBLIC "-//W3C//DTD SVG 1.1//EN" "http://www.w3.org/Graphics/SVG/1.1/DTD/svg11.dtd"><svg t="1588545685883" class="icon" viewBox="0 0 1024 1024" version="1.1" xmlns="http://www.w3.org/2000/svg" p-id="51907" xmlns:xlink="http://www.w3.org/1999/xlink" width="200" height="200"><defs><style type="text/css"></style></defs><path d="M0 0m512 0l0 0q512 0 512 512l0 0q0 512-512 512l0 0q-512 0-512-512l0 0q0-512 512-512Z" fill="#FF6F61" p-id="51908"></path><path d="M707.296 826.736h-378.24a64 64 0 0 1-64-64v-490.72a64 64 0 0 1 64-64h378.24a64 64 0 0 1 64 64v490.72a64 64 0 0 1-64 64" fill="#FFFFFF" p-id="51909"></path><path d="M395.552 380.64a32 32 0 1 1 0-64H640.8a32 32 0 1 1 0 64H395.52zM395.552 519.792a16 16 0 0 1 0-32h106.288a16 16 0 0 1 0 32h-106.288zM395.552 632.304a16 16 0 0 1 0-32h106.288a16 16 0 0 1 0 32h-106.288z" fill="#FF6F61" p-id="51910"></path><path d="M637.504 651.328h-14.8c-9.088 0-16.912 6.272-18.928 15.12a92.304 92.304 0 0 1-62.72 67.68c-8.048 2.464-13.44 10.032-13.44 18.448 0 15.728 12.736 28.48 28.464 28.48h131.248c15.728 0 28.464-12.752 28.464-28.48a19.2 19.2 0 0 0-13.44-18.464 92.256 92.256 0 0 1-64.848-82.784" fill="#FF6F61" p-id="51911"></path><path d="M724.208 752.944a36.72 36.72 0 0 1-36.72 36.72h-139.104a36.72 36.72 0 1 1 0-73.456h139.104a36.736 36.736 0 0 1 36.72 36.736M657.024 634.56a35.28 35.28 0 1 1-70.56 0 35.28 35.28 0 0 1 70.56 0" fill="#FF6F61" p-id="51912"></path><path d="M198.432 390.208a6.96 6.96 0 0 1-6.64-9.072l12.64-38.032-39.072-8.928a6.944 6.944 0 0 1-1.824-12.8l97.168-54.768a7.296 7.296 0 0 1 5.28-0.64 7.04 7.04 0 0 1 4.192 3.248l31.488 55.888a7.248 7.248 0 0 1 0.64 5.28 6.88 6.88 0 0 1-3.248 4.16l-97.152 54.8a6.944 6.944 0 0 1-3.472 0.864" fill="#FFFFFF" p-id="51913"></path><path d="M312.56 444.272a7.04 7.04 0 0 1-6.24-3.856l-17.92-35.84-33.92 21.376a6.928 6.928 0 0 1-10.352-7.728l30-107.408a6.928 6.928 0 0 1 8.512-4.832l61.808 17.232a6.8 6.8 0 0 1 4.16 3.232 7.168 7.168 0 0 1 0.64 5.28l-29.984 107.424a6.976 6.976 0 0 1-6 5.04c-0.224 0.08-0.48 0.08-0.704 0.08" fill="#FF6F61" p-id="51914"></path><path d="M312.24 352a64.384 64.384 0 0 1-64.32-64.32c0-35.52 28.88-64.32 64.32-64.32a64.432 64.432 0 0 1 64.32 64.32 64.432 64.432 0 0 1-64.32 64.32" fill="#FF6F61" p-id="51915"></path></svg>