<?xml version="1.0" standalone="no"?><!DOCTYPE svg PUBLIC "-//W3C//DTD SVG 1.1//EN" "http://www.w3.org/Graphics/SVG/1.1/DTD/svg11.dtd"><svg t="1588545768287" class="icon" viewBox="0 0 1024 1024" version="1.1" xmlns="http://www.w3.org/2000/svg" p-id="54893" xmlns:xlink="http://www.w3.org/1999/xlink" width="200" height="200"><defs><style type="text/css"></style></defs><path d="M1024.08192 669.83424c0-123.63264-100.8128-223.89248-225.13152-223.89248s-225.14176 100.25984-225.14176 223.89248c0 63.48288 26.62912 120.85248 69.30944 161.5616l-68.25984 117.61664 90.4704-6.4768 39.54688 81.18272 75.81696-130.68288c6.04672 0.47104 12.08832 0.6912 18.25792 0.6912 6.15936 0 12.20096-0.22016 18.25792-0.6912l75.81696 130.68288 39.53664-81.18272 90.47552 6.4768-68.26496-117.61664c42.68544-40.82176 69.30944-98.0736 69.30944-161.5616z m-108.72832 115.7632c-31.04256 30.87872-72.44288 48-116.39808 48-43.96032 0-85.3504-17.00352-116.4032-48-31.0528-30.98112-48.26112-72.0384-48.26112-115.75808 0-43.7248 17.09568-84.89472 48.26112-115.7632 31.1552-30.8736 72.44288-47.99488 116.4032-47.99488 43.9552 0 85.36064 16.9984 116.39808 47.99488 31.04768 30.99136 48.26112 72.0384 48.26112 115.7632-0.00512 43.71456-17.09568 84.77696-48.26112 115.75808zM277.16608 65.9712V0.2816L1.2032 180.096h65.94048l210.13504 0.11776-0.11264-114.24256z" fill="#1BA1E2" p-id="54894"></path><path d="M326.37952 233.04704l-246.67648-0.67584H1.2032L-0.00512 929.87392c23.21408 0 432.06144-0.74752 432.06144-0.74752h100.59264l53.14048-91.5968a271.2064 271.2064 0 0 1-36.05504-60.02176 267.71456 267.71456 0 0 1-22.44096-107.79136c0-72.16128 28.2624-140.05248 79.5392-191.04768 51.29728-50.9952 119.54688-79.104 192.11264-79.104 35.46112 0 69.77024 6.7072 101.74976 19.54304V20.15744c0-11.20256 0.23552-14.88384-0.0768-18.27328h-11.26912L329.60512 0.2816v78.17728m-128.6144 279.13728h226.03776c21.62176 0 39.30112 17.58208 39.30112 39.08608 0 21.51424-17.5616 39.0912-39.18336 39.0912h-226.1504c-21.632 0-39.30624-17.57696-39.30624-39.0912-0.00512-21.504 17.66912-39.08608 39.30112-39.08608z m232.81152 294.43584H199.24992c-20.70528 0-37.56544-17.5872-37.56544-39.10144 0-21.50912 16.86016-39.08096 37.56544-39.08096h234.5472c20.70016 0 37.56544 17.57184 37.56544 39.08096 0 21.51424-16.86016 39.10144-37.56032 39.10144z" fill="#1BA1E2" p-id="54895"></path></svg>