<?xml version="1.0" standalone="no"?><!DOCTYPE svg PUBLIC "-//W3C//DTD SVG 1.1//EN" "http://www.w3.org/Graphics/SVG/1.1/DTD/svg11.dtd"><svg t="1588545734240" class="icon" viewBox="0 0 1635 1024" version="1.1" xmlns="http://www.w3.org/2000/svg" p-id="52834" xmlns:xlink="http://www.w3.org/1999/xlink" width="319.3359375" height="200"><defs><style type="text/css"></style></defs><path d="M258.96596 617.755681c4.443043-4.463354 11.272636-4.463354 15.720757 0l97.7368 98.107477c4.443043 4.458277 4.443043 11.323414 0 15.78169L274.686717 829.401959c-4.443043 4.463354-11.277714 4.463354-15.720757 0M258.96596 679.389579S124.547393 689.732984 148.026974 538.242976c0 0-63.294327 71.743726-33.350754 148.153918C129.655624 714.091018 147.686764 771.160007 258.96596 771.820116v-92.430537z" fill="#1890FF" p-id="52835"></path><path d="M626.657001 61.141355H3.402102V18.158084A16.919109 16.919109 0 0 1 20.356756 1.274519h589.345591a16.919109 16.919109 0 0 1 16.954654 16.883565v42.983271z" fill="#253368" p-id="52836"></path><path d="M47.106416 29.379942a10.587138 10.587138 0 0 1-10.571905 10.597293A10.58206 10.58206 0 0 1 25.962607 29.379942c0-5.849584 4.732476-10.592216 10.571904-10.592215S47.106416 23.530358 47.106416 29.379942" fill="#A3B5D6" p-id="52837"></path><path d="M86.580953 29.379942a10.58206 10.58206 0 0 1-10.571905 10.597293A10.58206 10.58206 0 0 1 65.437144 29.379942c0-5.849584 4.732476-10.592216 10.571904-10.592215s10.571904 4.742632 10.571905 10.592215M126.055489 29.379942a10.58206 10.58206 0 0 1-10.571904 10.597293 10.58206 10.58206 0 0 1-10.571905-10.597293c0-5.849584 4.732476-10.592216 10.571905-10.592215s10.571904 4.742632 10.571904 10.592215M21.656663 475.491969C11.232014 475.491969 2.777537 467.941334 2.777537 458.628715V57.170544h623.285366v401.458171c0 9.312619-8.454477 16.858176-18.879127 16.858176H21.656663z" fill="#E4EBF7" p-id="52838"></path><path d="M41.957563 87.957027m55.819859 0l431.290034 0q55.819859 0 55.819859 55.819858l0 240.985598q0 55.819859-55.819859 55.819859l-431.290034 0q-55.819859 0-55.819859-55.819859l0-240.985598q0-55.819859 55.819859-55.819858Z" fill="#FFFFFF" p-id="52839"></path><path d="M92.334059 138.328445m13.994318 0l195.900132 0q13.994317 0 13.994317 13.994317l0-0.005078q0 13.994317-13.994317 13.994318l-195.900132 0q-13.994317 0-13.994318-13.994318l0 0.005078q0-13.994317 13.994318-13.994317Z" fill="#A3B5D6" p-id="52840"></path><path d="M92.334059 306.24502m13.994318 0l363.816707 0q13.994317 0 13.994317 13.994317l0-0.005078q0 13.994317-13.994317 13.994318l-363.816707 0q-13.994317 0-13.994318-13.994318l0 0.005078q0-13.994317 13.994318-13.994317Z" fill="#E4EBF7" p-id="52841"></path><path d="M92.334059 362.217212m13.994318 0l307.844515 0q13.994317 0 13.994317 13.994317l0-0.005078q0 13.994317-13.994317 13.994318l-307.844515 0q-13.994317 0-13.994318-13.994318l0 0.005078q0-13.994317 13.994318-13.994317Z" fill="#E4EBF7" p-id="52842"></path><path d="M92.334059 250.272828m13.994318 0l251.872323 0q13.994317 0 13.994318 13.994318l0-0.005078q0 13.994317-13.994318 13.994317l-251.872323 0q-13.994317 0-13.994318-13.994317l0 0.005078q0-13.994317 13.994318-13.994318Z" fill="#E4EBF7" p-id="52843"></path><path d="M92.334059 194.300636m13.994318 0l419.788898 0q13.994317 0 13.994318 13.994318l0-0.005078q0 13.994317-13.994318 13.994317l-419.788898 0q-13.994317 0-13.994318-13.994317l0 0.005078q0-13.994317 13.994318-13.994318Z" fill="#A3B5D6" p-id="52844"></path><path d="M1453.169712 225.234374H458.247883V145.406848c0-17.315175 14.075562-31.36027 31.441514-31.36027H1421.728198c17.365953 0 31.441514 14.040017 31.441514 31.36027v79.822448z" fill="#253369" p-id="52845"></path><path d="M1418.153452 992.311859H493.264143c-19.336125 0-35.01626-14.014628-35.01626-31.31457V215.398746h994.921829v745.598543c0 17.294864-15.675057 31.31457-35.01626 31.31457" fill="#E4EBF7" p-id="52846"></path><path d="M530.39783 165.788992a19.650946 19.650946 0 0 1-19.610324 19.681413A19.645869 19.645869 0 0 1 491.177182 165.788992a19.645869 19.645869 0 0 1 19.610324-19.676335 19.650946 19.650946 0 0 1 19.610324 19.676335" fill="#FF7946" p-id="52847"></path><path d="M603.639497 165.788992a19.645869 19.645869 0 0 1-19.610324 19.681413 19.645869 19.645869 0 0 1-19.610324-19.681413 19.645869 19.645869 0 0 1 19.610324-19.676335 19.645869 19.645869 0 0 1 19.610324 19.676335" fill="#FFC53D" p-id="52848"></path><path d="M676.876086 165.788992a19.645869 19.645869 0 0 1-19.610324 19.681413 19.645869 19.645869 0 0 1-19.610324-19.681413 19.645869 19.645869 0 0 1 19.610324-19.676335 19.645869 19.645869 0 0 1 19.610324 19.676335" fill="#BAE637" p-id="52849"></path><path d="M527.985893 364.715471h855.450887V929.322197H527.985893zM527.985893 285.390643h855.450887v32.665256H527.985893z" fill="#FFFFFF" p-id="52850"></path><path d="M630.267291 458.039695m16.330089 0l618.222835 0q16.330089 0 16.330089 16.330088l0 0.005078q0 16.330089-16.330089 16.330089l-618.222835 0q-16.330089 0-16.330089-16.330089l0-0.005078q0-16.330089 16.330089-16.330088Z" fill="#D6E0F2" p-id="52851"></path><path d="M630.267291 542.030988m16.330089 0l385.767881 0q16.330089 0 16.330088 16.330088l0 0.005078q0 16.330089-16.330088 16.330089l-385.767881 0q-16.330089 0-16.330089-16.330089l0-0.005078q0-16.330089 16.330089-16.330088Z" fill="#D6E0F2" p-id="52852"></path><path d="M630.267291 621.355816m16.330089 0l432.259887 0q16.330089 0 16.330089 16.330088l0 0.005078q0 16.330089-16.330089 16.330089l-432.259887 0q-16.330089 0-16.330089-16.330089l0-0.005078q0-16.330089 16.330089-16.330088Z" fill="#D6E0F2" p-id="52853"></path><path d="M630.267291 735.676592m66.493319 0l145.965401 0q66.493319 0 66.493319 66.493319l0 0q0 66.493319-66.493319 66.493319l-145.965401 0q-66.493319 0-66.493319-66.493319l0 0q0-66.493319 66.493319-66.493319Z" fill="#597EF7" p-id="52854"></path><path d="M1002.203343 735.676592m66.493318 0l145.965402 0q66.493319 0 66.493319 66.493319l0 0q0 66.493319-66.493319 66.493319l-145.965402 0q-66.493319 0-66.493318-66.493319l0 0q0-66.493319 66.493318-66.493319Z" fill="#FFC53D" p-id="52855"></path><path d="M1475.090419 23.880724C1388.722733 23.880724 1318.710524 93.892933 1318.710524 180.260619c0 86.362609 70.012209 156.379895 156.379895 156.379896s156.379895-70.017287 156.379896-156.379896C1631.470315 93.892933 1561.458106 23.880724 1475.090419 23.880724" fill="#73D13D" p-id="52856"></path><path d="M1449.894555 233.379108l-9.876251-9.871173 95.67015-96.020516a8.37831 8.37831 0 0 1 11.851501 0l3.945422 3.9505a8.37831 8.37831 0 0 1 0 11.846423l-89.744399 90.094766a8.37831 8.37831 0 0 1-11.846423 0" fill="#FFFFFF" p-id="52857"></path><path d="M1471.596918 223.507935l-9.876251 9.871173a8.37831 8.37831 0 0 1-11.846423 0l-39.312049-39.312049a8.37831 8.37831 0 0 1 0-11.846423l3.950501-3.9505a8.37831 8.37831 0 0 1 11.846423 0l45.237799 45.242876z" fill="#FFFFFF" p-id="52858"></path></svg>