<?xml version="1.0" standalone="no"?><!DOCTYPE svg PUBLIC "-//W3C//DTD SVG 1.1//EN" "http://www.w3.org/Graphics/SVG/1.1/DTD/svg11.dtd"><svg t="1588545717607" class="icon" viewBox="0 0 1116 1024" version="1.1" xmlns="http://www.w3.org/2000/svg" p-id="52693" xmlns:xlink="http://www.w3.org/1999/xlink" width="217.96875" height="200"><defs><style type="text/css"></style></defs><path d="M530.929 765.233c0 71.807 23.532 138.592 59.436 193.099a34.695 34.695 0 0 1-27.253 55.808H118.687c-59.53 0-117.664-43.344-117.664-106.502 0-85.48 80.458-116.454 159.707-159.706 90.41-48.368 210.492-71.807 210.492-125.105 0-74.226-115.152-142.313-115.152-323.133C256.07 236.537 285.834 0.093 509.907 0.093c220.26-0.093 253.745 236.444 253.745 299.6 0 71.808-17.301 125.013-39.625 168.358A325.18 325.18 0 0 0 530.93 765.233z m328.063-256.256a255.512 255.512 0 0 1 253.837 243.885C1121.48 900.197 1002.607 1024 856.573 1024c-22.323 0-44.647-3.72-65.668-8.65a259.232 259.232 0 0 1-190.68-248.908c0-55.716 17.393-106.409 47.065-148.545a258.116 258.116 0 0 1 211.702-108.92z m169.752 216.538a33.671 33.671 0 0 0 0-48.367 35.16 35.16 0 0 0-49.577 0L829.413 826.995l-91.62-91.62a33.95 33.95 0 0 0-53.204 5.023c-9.953 13.58-7.441 32.183 4.93 44.554l115.06 115.245c7.44 6.14 16.09 9.86 24.741 9.86 8.65 0 18.603-3.72 24.742-9.86l174.682-174.682z" fill="#4F5D95" p-id="52694"></path></svg>