<?xml version="1.0" standalone="no"?><!DOCTYPE svg PUBLIC "-//W3C//DTD SVG 1.1//EN" "http://www.w3.org/Graphics/SVG/1.1/DTD/svg11.dtd"><svg t="1585116914363" class="icon" viewBox="0 0 1024 1024" version="1.1" xmlns="http://www.w3.org/2000/svg" p-id="13813" xmlns:xlink="http://www.w3.org/1999/xlink" width="200" height="200"><defs><style type="text/css"></style></defs><path d="M512 0C230.064 0 0 230.096 0 512c0 136.224 53.4 264.656 150.376 361.624C247.344 970.592 375.776 1024 512 1024c281.936 0 512-230.096 512-512 0-281.936-230.096-512-512-512z m0 964C262.768 964 60 761.232 60 512S262.768 60 512 60s452 202.768 452 452-202.768 452-452 452zM512 240c-148.848 0-272 122.704-272 272a30 30 0 0 0 60 0c0-114.92 97.088-212 212-212a30 30 0 0 0 0-60z m242 242A30 30 0 0 0 724 512c0 114.92-97.08 212-212 212a30 30 0 0 0 0 60c148.848 0 272-122.704 272-272a30 30 0 0 0-30-30zM512 120c-215.328 0-392 176.736-392 392a30 30 0 0 0 60 0c0-183.064 148.936-332 332-332a30 30 0 0 0 0-60z m362 362A30 30 0 0 0 844 512c0 183.064-148.936 332-332 332a30 30 0 0 0 0 60c215.328 0 392-176.736 392-392a30 30 0 0 0-30-30zM512 360c-82.392 0-152 69.608-152 152s69.608 152 152 152 152-69.608 152-152-69.608-152-152-152z m0 244c-49.872 0-92-42.128-92-92S462.128 420 512 420 604 462.128 604 512 561.872 604 512 604z" fill="#1296db" p-id="13814"></path></svg>