<?xml version="1.0" standalone="no"?><!DOCTYPE svg PUBLIC "-//W3C//DTD SVG 1.1//EN" "http://www.w3.org/Graphics/SVG/1.1/DTD/svg11.dtd"><svg t="1585117906455" class="icon" viewBox="0 0 1024 1024" version="1.1" xmlns="http://www.w3.org/2000/svg" p-id="34900" xmlns:xlink="http://www.w3.org/1999/xlink" width="200" height="200"><defs><style type="text/css"></style></defs><path d="M738.56 708.266667v-3.413334a42.666667 42.666667 0 0 0-42.666667-42.666666h-72.533333a178.773333 178.773333 0 0 1-111.36-38.826667l-92.586667-72.106667a181.76 181.76 0 0 0-183.466666-24.746666l-139.093334 58.88a89.173333 89.173333 0 0 0-49.493333 110.506666l33.706667 99.413334a88.746667 88.746667 0 0 0 116.906666 54.613333L294.826667 810.666667a91.306667 91.306667 0 0 1 78.08 5.12l174.08 98.56a180.906667 180.906667 0 0 0 196.693333-11.946667l218.453333-143.786667a42.666667 42.666667 0 0 0 11.093334-60.16v-2.56a42.666667 42.666667 0 0 0-59.306667-10.666666l-221.866667 145.92a89.6 89.6 0 0 1-98.56 5.973333l-176.213333-97.706667a180.48 180.48 0 0 0-89.173333-23.04 186.026667 186.026667 0 0 0-66.56 12.373334L165.973333 768l-33.706666-100.693333 139.52-59.306667a90.453333 90.453333 0 0 1 35.413333-7.253333 91.733333 91.733333 0 0 1 55.893333 19.626666l91.306667 72.106667a270.506667 270.506667 0 0 0 168.533333 58.453333h72.106667a42.666667 42.666667 0 0 0 43.52-42.666666zM652.8 336.64l-195.84-62.72a42.666667 42.666667 0 0 1 0-78.506667l195.84-62.72a95.146667 95.146667 0 0 1 59.733333 0l195.84 62.72a42.666667 42.666667 0 0 1 0 78.506667L712.533333 336.64a95.146667 95.146667 0 0 1-59.733333 0zM686.506667 256l64.426666-21.333333-64.426666-21.333334h-7.68l-64.426667 21.333334 64.426667 21.333333h7.68z" fill="#13227a" p-id="34901"></path><path d="M753.066667 362.24L686.506667 384H679.253333l-66.56-20.48-125.866666-42.666667a42.666667 42.666667 0 0 0-28.586667 0 42.666667 42.666667 0 0 0 0 85.333334l197.973333 61.866666a96 96 0 0 0 53.76 0l197.973334-61.866666a42.666667 42.666667 0 0 0 0-85.333334 42.666667 42.666667 0 0 0-28.586667 0z" fill="#13227a" p-id="34902"></path><path d="M753.066667 490.24l-66.56 21.76H679.253333l-66.56-20.48-125.866666-42.666667a42.666667 42.666667 0 0 0-28.586667 0 42.666667 42.666667 0 0 0 0 85.333334l197.973333 61.866666a96 96 0 0 0 53.76 0l197.973334-61.866666a42.666667 42.666667 0 0 0 0-85.333334 42.666667 42.666667 0 0 0-28.586667 0z" fill="#13227a" p-id="34903"></path></svg>