<?xml version="1.0" standalone="no"?><!DOCTYPE svg PUBLIC "-//W3C//DTD SVG 1.1//EN" "http://www.w3.org/Graphics/SVG/1.1/DTD/svg11.dtd"><svg t="1588547123851" class="icon" viewBox="0 0 1024 1024" version="1.1" xmlns="http://www.w3.org/2000/svg" p-id="72987" xmlns:xlink="http://www.w3.org/1999/xlink" width="200" height="200"><defs><style type="text/css"></style></defs><path d="M888.832 277.504C819.2 238.592 609.28 120.832 540.672 81.92c-14.336-8.192-31.744-8.192-46.08 0-69.632 38.912-279.552 156.672-348.16 195.584-14.336 8.192-22.528 22.528-22.528 38.912v391.168c0 15.36 8.192 30.72 22.528 37.888 69.632 38.912 279.552 156.672 348.16 195.584 14.336 8.192 31.744 8.192 46.08 0 69.632-38.912 279.552-156.672 348.16-195.584 14.336-8.192 22.528-22.528 22.528-37.888V316.416c0-16.384-8.192-30.72-22.528-38.912zM517.12 802.816c-160.768 0-290.816-130.048-290.816-290.816s130.048-290.816 290.816-290.816S807.936 351.232 807.936 512 677.888 802.816 517.12 802.816z" fill="#37474F" p-id="72988"></path><path d="M901.12 287.744l-134.144 76.8c-50.176-84.992-143.36-142.336-249.856-142.336-160.768 0-290.816 130.048-290.816 290.816 0 51.2 13.312 98.304 35.84 140.288l-133.12 75.776c-5.12-7.168-6.144-14.336-6.144-23.552v-389.12c0-15.36 8.192-30.72 22.528-37.888 69.632-40.96 278.528-157.696 348.16-196.608 14.336-8.192 32.768-8.192 47.104 0 69.632 38.912 277.504 154.624 347.136 193.536 5.12 4.096 9.216 7.168 13.312 12.288z" fill="#546E7A" p-id="72989"></path><path d="M662.528 512c0 79.872-65.536 145.408-145.408 145.408-55.296 0-104.448-31.744-128-76.8l251.904-143.36c14.336 20.48 21.504 47.104 21.504 74.752z" fill="#37474F" p-id="72990"></path><path d="M641.024 436.224L389.12 579.584c-1.024-2.048-2.048-4.096-3.072-5.12l-3.072-6.144c-1.024-2.048-2.048-4.096-2.048-6.144-3.072-7.168-5.12-14.336-6.144-21.504 0-1.024 0-3.072-1.024-4.096 0-2.048-1.024-4.096-1.024-6.144 0-3.072-1.024-5.12-1.024-8.192v-9.216c0-79.872 65.536-145.408 145.408-145.408h11.264c2.048 0 4.096 0 6.144 1.024h3.072c3.072 0 5.12 1.024 8.192 1.024 5.12 1.024 11.264 2.048 16.384 4.096 1.024 0 2.048 1.024 3.072 1.024l15.36 6.144c3.072 1.024 5.12 3.072 8.192 4.096 3.072 2.048 5.12 3.072 8.192 5.12 2.048 1.024 5.12 3.072 7.168 5.12 3.072 2.048 5.12 4.096 8.192 6.144l6.144 6.144c4.096 4.096 8.192 8.192 12.288 13.312 2.048 2.048 4.096 5.12 5.12 7.168 2.048 3.072 4.096 5.12 5.12 8.192z" fill="#546E7A" p-id="72991"></path><path d="M901.12 287.744c10.24 10.24 10.24 25.6 10.24 36.864 0 78.848-1.024 303.104 0 381.952 0 8.192-3.072 16.384-7.168 23.552L508.928 512 901.12 287.744z" fill="#455A64" p-id="72992"></path><path d="M724.992 429.056h20.48v165.888h-20.48V429.056z m62.464 0h20.48v165.888h-20.48V429.056z" fill="#FFFFFF" p-id="72993"></path><path d="M683.008 532.48H849.92v20.48H683.008v-20.48z m0-62.464H849.92v20.48H683.008v-20.48z" fill="#FFFFFF" p-id="72994"></path></svg>