<?xml version="1.0" standalone="no"?><!DOCTYPE svg PUBLIC "-//W3C//DTD SVG 1.1//EN" "http://www.w3.org/Graphics/SVG/1.1/DTD/svg11.dtd"><svg t="1588543836381" class="icon" viewBox="0 0 1058 1024" version="1.1" xmlns="http://www.w3.org/2000/svg" p-id="5280" xmlns:xlink="http://www.w3.org/1999/xlink" width="206.640625" height="200"><defs><style type="text/css"></style></defs><path d="M865.080497 433.171694c0 25.223693-8.533049 42.050865-17.066097 63.11043l-17.066098 8.430652c-12.765441 25.223693 0 12.628912-8.533049 33.654345-17.066098 16.827172-55.362421 50.515649-68.127863 54.679777-8.533049 0 4.232392-8.430652 8.533049-12.628912-25.530882 16.861305-21.29849 25.257825-59.594813 37.886737v-4.164128c-93.761141 46.249125-225.818606-42.084997-225.818606-164.073464 0 8.430652-4.232392 4.19826-4.232392 8.430652-4.232392-63.11043 29.831539-121.988467 85.228092-147.246291 55.362421-29.490217 119.257891-21.059565 161.889004 16.827172-21.332622-29.456085-63.929602-58.843905-115.059632-54.679777-51.130029 0-97.959401 33.654345-115.025499 67.308689-25.565014 16.861305-29.865671 63.11043-42.631112 71.541082-17.066098 109.359555 29.831539 155.642812 102.225926 214.554982 12.765441 8.430652 4.232392 8.430652 4.232392 16.861305a188.614513 188.614513 0 0 1-63.89547-50.51565c8.533049 12.628912 21.29849 29.490217 34.063931 37.886737-21.29849-8.39652-55.362421-54.679777-63.89547-58.843905 38.364588 71.541082 161.854872 121.988467 225.784474 96.764774-29.865671 0-68.161995 0-102.225926-12.628912-12.765441-8.39652-34.063931-21.025432-29.831539-25.18956 85.19396 33.620213 178.852705 25.18956 251.315356-33.654345 21.29849-16.861305 38.364588-37.886737 46.829372-42.084997-8.533049 12.628912 0 8.430652-4.232392 16.861304 17.066098-29.490217-8.533049-12.628912 21.29849-54.679777l8.533049 12.59478c-4.232392-25.223693 29.865671-54.679777 29.865671-96.764774 8.533049-12.628912 8.533049 12.628912 0 42.084997 12.765441-29.490217 4.232392-37.886737 4.232392-63.144562 4.232392 8.464785 8.533049 16.895437 8.533049 25.257825-4.232392-21.059565 12.765441-42.084997 17.066098-58.878038-4.232392 0-12.765441 12.628912-12.765441-21.059564 0-16.827172 4.232392-8.39652 4.232392-12.594781-4.232392 0-12.765441-12.628912-17.066098-37.886737 4.232392-4.19826 8.533049 12.628912 12.765442 12.628913-4.232392-16.895437-8.533049-33.688477-8.533049-46.283258-12.765441-29.456085-4.232392 4.164128-17.066098-12.628912-17.066098-46.249125 12.765441-12.59478 12.765441-33.620213 21.29849 33.620213 34.063931 84.135862 42.59698 105.195427-4.232392-25.257825-12.765441-50.515649-21.29849-75.773474 8.533049 4.19826-12.765441-50.481517 8.533049-16.827172-21.29849-79.90347-93.761141-151.444552-157.588347-185.098897 12.765441 12.628912 21.29849 21.025432 21.29849 25.223692-34.063931-21.025432-25.530882-21.025432-29.831539-29.456084-25.530882-12.628912-29.831539 0-46.829372 0C677.524083 25.291957 669.059298 25.291957 622.195793 12.663045v8.39652c-34.098063-12.628912-38.39872 4.19826-72.462651 0-4.232392 0 12.765441-4.164128 21.29849-8.430653-29.831539 4.19826-29.831539-4.164128-59.594813 0L536.967701 0.034132c-25.530882 0-63.89547 16.861305-51.130029 4.19826-42.59698 16.827172-119.292024 46.249125-157.588347 84.135862v-8.430652c-21.29849 21.059565-85.228092 67.30869-89.426352 96.764775h-4.266525c-17.066098 16.861305-21.29849 37.886737-29.831539 54.679777-12.765441 21.059565-21.29849 8.430652-17.066098 12.628912C162.127929 294.526716 149.294224 336.577581 136.528782 374.396053c8.533049 12.628912 0 71.575214 4.232393 117.82434-12.765441 231.348022 166.121396 458.60018 357.841938 509.047565 29.831539 8.430652 72.428519 8.430652 106.49245 12.628912-42.59698-12.628912-46.829372-8.464785-89.426352-21.059565-29.831539-12.628912-38.364588-29.490217-59.628946-46.283257l8.533049 12.628913c-42.59698-12.628912-25.530882-16.861305-59.594813-29.456085l8.533049-12.628913c-12.765441 0-34.063931-21.025432-42.59698-33.654344h-12.765442c-12.765441-21.025432-21.29849-37.886737-21.29849-50.51565l-4.232392 8.464785c-4.232392-8.430652-63.929602-79.937602-34.063931-63.144562-4.266524-4.164128-12.799573-8.39652-21.332622-25.189561l4.232392-8.430652c-12.765441-16.861305-25.530882-42.084997-25.530882-50.515649 8.533049 12.628912 12.765441 12.628912 17.066097 12.628912-38.364588-92.600647-38.364588-4.19826-68.127862-92.600647h4.232392c-4.232392-8.430652-8.533049-12.628912-12.765441-21.025432l4.232392-25.257825c-25.530882-29.456085-8.533049-130.384987-4.232392-185.064764 4.232392-21.059565 21.29849-46.283257 38.364588-84.169995h-8.533049c17.066098-29.456085 102.225926-121.988467 140.590514-117.790207 17.066098-21.059565-4.232392 0-8.533049-4.19826 42.59698-42.084997 55.362421-29.456085 80.893303-37.886737 29.831539-16.861305-25.530882 8.430652-12.765441-8.430652 51.130029-12.628912 38.364588-29.456085 102.225926-37.886737 8.533049 4.164128-17.066098 4.164128-21.29849 12.628912 42.59698-21.059565 136.255725-16.895437 195.918803 12.59478 68.161995 33.654345 149.157695 126.220859 153.355954 218.753242h4.232393c0 33.620213 4.232392 75.70521-8.533049 113.591947l12.765441-16.827173h0.068264z" fill="#C42222" p-id="5281"></path></svg>