<?xml version="1.0" standalone="no"?><!DOCTYPE svg PUBLIC "-//W3C//DTD SVG 1.1//EN" "http://www.w3.org/Graphics/SVG/1.1/DTD/svg11.dtd"><svg t="1588544148364" class="icon" viewBox="0 0 1024 1024" version="1.1" xmlns="http://www.w3.org/2000/svg" p-id="15984" xmlns:xlink="http://www.w3.org/1999/xlink" width="200" height="200"><defs><style type="text/css"></style></defs><path d="M135.168 322.784v373.28h43.648v-269.856a386.272 386.272 0 0 0-2.24-52.896l0.16 1.728h1.632c3.456 8.96 7.456 16.64 12.16 23.808l-0.288-0.48 191.872 297.696h53.632V322.784h-43.584v262.496a400.96 400.96 0 0 0 2.816 56.768l-0.192-1.888h-0.992a395.84 395.84 0 0 0-15.168-24.96l-186.752-292.416z m397.44 0v373.28h198.4l0.192-40.96h-153.984v-129.408h134.752v-39.328h-134.752v-124.096h144.576v-39.52z m232 0v39.52h107.296v333.792h43.584V362.304H1024.032v-39.52zM27.904 642.848a27.328 27.328 0 0 0-19.456 8.768l-0.032 0.032a28.608 28.608 0 0 0-8.416 20.288V672.512c0 7.872 3.2 14.976 8.384 20.096 5.056 5.312 12.16 8.608 20.032 8.608h0.448H28.832h0.192a28.16 28.16 0 0 0 20.288-8.576 28 28 0 0 0 8.608-20.224v-0.288-0.096a28.48 28.48 0 0 0-8.576-20.384 28.064 28.064 0 0 0-20.416-8.8H27.84 27.872z" fill="#5C2D91" p-id="15985"></path></svg>