<?xml version="1.0" standalone="no"?><!DOCTYPE svg PUBLIC "-//W3C//DTD SVG 1.1//EN" "http://www.w3.org/Graphics/SVG/1.1/DTD/svg11.dtd"><svg t="1588547476713" class="icon" viewBox="0 0 1024 1024" version="1.1" xmlns="http://www.w3.org/2000/svg" p-id="75774" xmlns:xlink="http://www.w3.org/1999/xlink" width="200" height="200"><defs><style type="text/css"></style></defs><path d="M469.994667 512m-405.333334 0a405.333333 405.333333 0 1 0 810.666667 0 405.333333 405.333333 0 1 0-810.666667 0Z" fill="#9E719C" p-id="75775"></path><path d="M597.674667 512m-362.666667 0a362.666667 362.666667 0 1 0 725.333333 0 362.666667 362.666667 0 1 0-725.333333 0Z" fill="#52355B" p-id="75776"></path><path d="M917.333333 448H106.666667a21.333333 21.333333 0 0 1 0-42.666667h810.666666a21.333333 21.333333 0 0 1 0 42.666667zM917.333333 533.333333H106.666667a21.333333 21.333333 0 0 1 0-42.666666h810.666666a21.333333 21.333333 0 0 1 0 42.666666zM917.333333 618.666667H106.666667a21.333333 21.333333 0 0 1 0-42.666667h810.666666a21.333333 21.333333 0 0 1 0 42.666667z" fill="#EAD3EA" p-id="75777"></path></svg>