<?xml version="1.0" standalone="no"?><!DOCTYPE svg PUBLIC "-//W3C//DTD SVG 1.1//EN" "http://www.w3.org/Graphics/SVG/1.1/DTD/svg11.dtd"><svg t="1587719007649" class="icon" viewBox="0 0 1024 1024" version="1.1" xmlns="http://www.w3.org/2000/svg" p-id="2729" xmlns:xlink="http://www.w3.org/1999/xlink" width="200" height="200"><defs><style type="text/css"></style></defs><path d="M483.84 299.52h-358.4 645.12c71.68 0 135.68-33.28 176.64-81.92C860.16 99.84 719.36 25.6 560.64 25.6c-89.6 0-171.52 23.04-245.76 66.56 74.24 53.76 130.56 125.44 168.96 207.36z" fill="#EFBF1B" p-id="2730"></path><path d="M949.76 806.4c-43.52-51.2-104.96-81.92-176.64-81.92H122.88h368.64c-35.84 84.48-89.6 158.72-161.28 215.04-84.48-46.08-153.6-115.2-199.68-199.68 81.92 153.6 243.2 258.56 430.08 258.56 158.72 0 299.52-74.24 389.12-192z" fill="#40BEB0" p-id="2731"></path><path d="M501.76 647.68h212.48c76.8 0 135.68-61.44 138.24-135.68 0-74.24-61.44-135.68-135.68-135.68h-215.04c10.24 40.96 17.92 87.04 17.92 135.68s-7.68 94.72-17.92 135.68z" fill="#0AA5DE" p-id="2732"></path><path d="M517.12 512c0-51.2-5.12-94.72-17.92-135.68H94.72c-25.6 89.6-25.6 184.32 0 273.92h407.04c10.24-43.52 15.36-87.04 15.36-138.24z" fill="#231F20" p-id="2733"></path><path d="M317.44 92.16c-81.92 48.64-151.04 120.32-194.56 207.36h358.4c-35.84-81.92-92.16-153.6-163.84-207.36z" fill="#D7A229" p-id="2734"></path><path d="M332.8 939.52c69.12-56.32 125.44-130.56 161.28-215.04H125.44l7.68 15.36c43.52 84.48 112.64 156.16 199.68 199.68z" fill="#009B8F" p-id="2735"></path></svg>