<?xml version="1.0" standalone="no"?><!DOCTYPE svg PUBLIC "-//W3C//DTD SVG 1.1//EN" "http://www.w3.org/Graphics/SVG/1.1/DTD/svg11.dtd"><svg t="1587726086327" class="icon" viewBox="0 0 1077 1024" version="1.1" xmlns="http://www.w3.org/2000/svg" p-id="6024" xmlns:xlink="http://www.w3.org/1999/xlink" width="210.3515625" height="200"><defs><style type="text/css"></style></defs><path d="M922.570105 538.947368l-149.935158 165.295158h112.64c0 128.862316-92.106105 212.938105-197.685894 212.938106H646.736842v68.877473h40.852211c75.937684 0 148.749474-29.588211 202.374736-82.189473 53.679158-52.655158 68.500211-124.011789 68.446316-198.440421l114.149053-1.293474L922.570105 538.947368zM150.042947 447.110737L299.924211 281.869474H187.338105c-4.742737-138.24 86.123789-212.992 197.632-212.992h40.852211V0h-40.852211c-75.883789 0-148.749474 29.642105-202.374737 82.243368-53.679158 52.601263-68.446316 123.957895-68.446315 198.332632L0 281.977263l150.042947 165.187369zM1019.957895 376.185263V52.709053a53.409684 53.409684 0 0 0-54.864842-51.738948h-384.377264a53.409684 53.409684 0 0 0-54.864842 51.738948V376.185263c0 28.564211 24.468211 51.738947 54.864842 51.738948h384.431158c30.342737 0 54.918737-23.174737 54.918737-51.738948h-0.107789z m-471.902316 538.031158V590.686316A53.409684 53.409684 0 0 0 493.136842 538.947368H108.867368A53.409684 53.409684 0 0 0 53.894737 590.686316v323.47621c0 28.564211 24.468211 51.738947 54.918737 51.738948h384.431158c30.342737 0 54.864842-23.174737 54.864842-51.738948h-0.053895z m46.026105-580.230737V96.794947a26.947368 26.947368 0 0 1 26.947369-26.947368h303.211789a26.947368 26.947368 0 0 1 26.947369 26.947368v237.136842a26.947368 26.947368 0 0 1-26.947369 26.947369h-303.211789a26.947368 26.947368 0 0 1-26.947369-26.947369z m-471.95621 537.977263v-237.136842a26.947368 26.947368 0 0 1 26.947368-26.947368h303.21179a26.947368 26.947368 0 0 1 26.947368 26.947368v237.136842a26.947368 26.947368 0 0 1-26.947368 26.947369H149.072842a26.947368 26.947368 0 0 1-26.947368-26.947369z" fill="#33AFEB" p-id="6025"></path></svg>