<?xml version="1.0" standalone="no"?><!DOCTYPE svg PUBLIC "-//W3C//DTD SVG 1.1//EN" "http://www.w3.org/Graphics/SVG/1.1/DTD/svg11.dtd"><svg t="1588547703389" class="icon" viewBox="0 0 1024 1024" version="1.1" xmlns="http://www.w3.org/2000/svg" p-id="79999" xmlns:xlink="http://www.w3.org/1999/xlink" width="200" height="200"><defs><style type="text/css"></style></defs><path d="M512 511.168m-80 0a80 80 0 1 0 160 0 80 80 0 1 0-160 0Z" fill="#00D8FF" p-id="80000"></path><path d="M512 694.592a908.32 908.32 0 0 1-284.16-38.4 361.6 361.6 0 0 1-117.024-62.656A113.376 113.376 0 0 1 64 511.168c0-52.896 58.112-104.736 155.456-138.656A920.16 920.16 0 0 1 512 329.376a917.568 917.568 0 0 1 288.704 42.368 364.032 364.032 0 0 1 113.216 59.712A108.512 108.512 0 0 1 960 511.168c0 54.976-64.96 110.688-169.6 145.312a921.6 921.6 0 0 1-278.4 38.112z m0-326.944a894.336 894.336 0 0 0-279.968 41.024c-89.6 31.264-129.76 74.016-129.76 102.4 0 29.696 43.168 76.384 137.952 108.8A870.72 870.72 0 0 0 512 656.32a883.2 883.2 0 0 0 266.4-36.16C876.8 587.552 921.6 540.8 921.6 511.168a74.464 74.464 0 0 0-32.32-50.336 326.208 326.208 0 0 0-101.152-52.928A878.784 878.784 0 0 0 512 367.648z" fill="#00D8FF" p-id="80001"></path><path d="M330.24 910.176a84.448 84.448 0 0 1-42.752-10.496c-45.824-26.432-61.696-102.656-42.464-203.936a920.16 920.16 0 0 1 108.8-274.976 917.632 917.632 0 0 1 180.896-228.928 364.032 364.032 0 0 1 108.288-68.256 108.512 108.512 0 0 1 92.096 0c47.648 27.456 63.424 111.552 41.184 219.488a921.792 921.792 0 0 1-106.112 260.256 908.32 908.32 0 0 1-175.232 226.976 361.6 361.6 0 0 1-112.736 70.048 157.632 157.632 0 0 1-51.968 9.824z m56.736-470.4a894.336 894.336 0 0 0-104.32 263.008c-17.696 93.28-0.704 149.376 24 163.648 25.6 14.816 87.744 0.768 163.2-65.152a870.688 870.688 0 0 0 167.264-217.28 883.2 883.2 0 0 0 101.792-248.832c20.928-101.6 2.848-163.808-22.816-178.592a74.464 74.464 0 0 0-59.776 2.848A326.208 326.208 0 0 0 560 220.8a878.848 878.848 0 0 0-172.8 219.168z" fill="#00D8FF" p-id="80002"></path><path d="M693.664 910.592c-43.36 0-98.432-26.24-155.776-75.552a920.192 920.192 0 0 1-183.904-231.584 917.632 917.632 0 0 1-107.968-271.072 364.032 364.032 0 0 1-5.056-128A108.512 108.512 0 0 1 286.848 124.8c47.584-27.552 128.32 0.768 210.72 73.92a921.6 921.6 0 0 1 172.48 221.888 908.288 908.288 0 0 1 109.12 265.184 361.6 361.6 0 0 1 4.384 132.672 113.376 113.376 0 0 1-47.808 81.76 82.88 82.88 0 0 1-42.08 10.368z m-306.56-326.4a894.368 894.368 0 0 0 175.744 221.728c71.968 61.92 129.056 75.232 153.6 60.8 25.6-14.88 44.48-75.616 25.024-173.888A870.784 870.784 0 0 0 636.8 439.68a883.2 883.2 0 0 0-164.64-212.48c-77.568-68.864-140.48-84.256-166.112-69.408a74.464 74.464 0 0 0-27.36 53.184 326.208 326.208 0 0 0 4.896 114.08 878.88 878.88 0 0 0 103.552 259.2z" fill="#00D8FF" p-id="80003"></path></svg>