<?xml version="1.0" standalone="no"?><!DOCTYPE svg PUBLIC "-//W3C//DTD SVG 1.1//EN" "http://www.w3.org/Graphics/SVG/1.1/DTD/svg11.dtd"><svg t="1588546992400" class="icon" viewBox="0 0 1024 1024" version="1.1" xmlns="http://www.w3.org/2000/svg" p-id="70142" xmlns:xlink="http://www.w3.org/1999/xlink" width="200" height="200"><defs><style type="text/css"></style></defs><path d="M238.496 955.68c0-2.368 15.808-54.944 35.2-116.832A697.856 697.856 0 0 0 304 723.2c-2.528-1.792-11.2 1.44-19.2 7.168-24.448 17.216-29.44 12.8-47.712-43.392-19.744-60.8-20.448-66.912-10.144-89.92 6.72-15.04 6.4-18.528-4.704-40.864a120 120 0 0 1-12.064-33.408c0-8.32-45.216-46.016-116.704-97.28A123.04 123.04 0 0 1 64 400a335.264 335.264 0 0 1 76.096-1.248l76.096 3.2 7.424-23.712c31.392-100.16 78.816-190.624 99.904-190.624 4.384 0 13.312 8.48 19.808 18.816 10.592 16.864 12.032 27.296 13.92 100.032a736.416 736.416 0 0 0 5.28 87.648c1.76 3.52 7.296-1.12 12.32-10.304 6.4-11.744 13.184-14.944 22.72-10.72s15.52 1.376 20.672-11.04c7.744-18.624 46.56-144.416 46.56-150.944 0-2.208 7.68-28.8 17.088-59.072l24.032-77.568c6.816-22.016 7.872-19.424 48.768 119.232 42.24 143.168 64.96 195.968 76.32 177.408 7.936-12.8 49.6-13.696 61.248-1.088 6.624 7.168 10.816 7.072 14.496-0.32 7.584-15.36 25.6-12.8 30.496 4.48 3.744 13.536 4.704 13.536 10.24 0a25.984 25.984 0 0 1 22.144-14.912c12.448 0 17.216 5.248 21.312 23.52l5.28 23.52 81.856-5.856a368.672 368.672 0 0 1 81.92-1.472 665.28 665.28 0 0 1-74.272 60.448c-40.864 30.72-74.944 56.8-75.776 57.92a563.424 563.424 0 0 0 4.096 59.744 354.4 354.4 0 0 1-17.408 182.816 137.856 137.856 0 0 1-32.672 47.68c-8.896 5.952-16.192 12.8-16.192 15.552s9.6 34.464 21.12 70.784a309.824 309.824 0 0 1 17.28 66.08c-3.488 0-88.224-66.24-220.032-171.936a356.576 356.576 0 0 0-52.576-37.888c-5.472 0-52.768 36.256-191.488 146.816-80.448 64-83.584 66.336-83.584 58.72z m165.056-151.264a5627.84 5627.84 0 0 1 94.304-73.024c15.616-11.232 20.832-8.416 96.672 52.192 44.096 35.2 87.584 69.568 96.672 76.288s27.776 21.312 41.6 32.416c15.712 12.8 23.744 15.744 21.568 8.192-24.64-84.288-25.376-85.696-42.464-79.232-20.608 7.808-33.376-0.192-39.968-25.056a55.648 55.648 0 0 1 7.68-46.432 76.064 76.064 0 0 0-7.072-87.392 137.248 137.248 0 0 1-21.952-48.96l-7.712-32.736-16.544 22.72c-20.352 27.936-45.152 29.376-65.888 3.808l-15.264-18.816-17.728 24.384c-17.76 24.416-38.208 27.584-59.008 9.088-5.728-5.088-8.256-3.2-8.256 6.4a39.68 39.68 0 0 1-12 24.864c-19.808 18.24-39.136 13.408-52.256-13.088L384 615.968l-9.6 24.8a225.024 225.024 0 0 1-27.296 47.328 444.512 444.512 0 0 0-46.56 117.216c-16 52.064-28.8 97.344-28.8 100.576s12.192-4.512 27.104-17.216 62.144-50.624 104.928-84.256z m362.976-36.192c32.48-36.928 40-105.216 25.6-232.672-12-106.528-17.984-141.408-25.088-146.08-4.928-3.2-5.664 0.32-2.912 13.632 17.984 86.4 18.976 129.696 3.2 141.888-10.784 8.384-22.24-23.008-31.232-85.6-6.976-48.48-14.24-70.4-19.744-59.2a107.488 107.488 0 0 0 5.12 34.24 854.976 854.976 0 0 1 12.608 108.192 696.224 696.224 0 0 0 12 100.832c9.888 31.52 25.6 23.904 35.776-17.28s11.2-13.6 1.408 33.76c-10.144 49.152-40.32 64-75.264 36.8-5.6-4.352-7.488 0-7.488 17.76a159.616 159.616 0 0 1-9.6 48l-9.6 24.48 13.056 4.448a71.904 71.904 0 0 0 72.16-23.2zM299.072 686.976c67.776-39.424 80-85.376 57.376-217.76a702.112 702.112 0 0 1-9.6-73.6c0-32.928-8.192-17.728-14.336 26.624-8.128 58.624-32.512 108.448-53.024 108.256-17.824-0.16-23.616-6.72-30.976-35.008-13.216-50.72 1.184-128.576 37.888-204.992 26.88-55.968 41.6-61.056 41.6-14.336 0 72.832-24.832 180-37.888 163.68a122.048 122.048 0 0 1 2.08-70.4c6.4-23.04 5.024-58.176-2.112-58.176-8.288 0-24.736 61.12-26.912 100.064-1.92 34.432-0.704 42.816 7.392 51.584 28.416 30.784 65.664-63.136 67.552-170.336 0.992-56.288-4.416-72.128-21.568-63.424-24.992 12.8-92.256 188.256-92.256 240.736 0 41.056 10.208 69.952 28.16 79.712 30.528 16.608 60.032-12.8 80.928-80.992l8.8-28.608v39.04c0 56.288-18.144 85.952-75.424 123.264a284.576 284.576 0 0 0-27.264 19.2 312.256 312.256 0 0 0 28.544 81.088 169.056 169.056 0 0 0 31.008-15.488z m408.448-69.888c6.816-15.2 8-31.744 6.4-90.144-1.6-63.552-3.2-74.784-15.552-100.608-22.112-46.656-49.408-34.752-33.44 14.56 8.48 26.24 18.848 21.76 15.2-6.56-2.912-22.4 2.528-23.136 12-1.312 17.792 40.992 13.312 97.76-7.744 97.76-14.4 0-18.88-12.48-28.256-78.688a216.064 216.064 0 0 0-11.584-54.848c-6.944 0-10.048 12.416-5.728 22.976a903.36 903.36 0 0 1 14.464 91.488c14.112 112.224 33.824 150.624 54.08 105.376z m-268.16 1.792a108.32 108.32 0 0 0 3.04-42.56c-1.92-32.256-3.008-34.592-11.648-25.28-12.384 13.408-25.6-12-30.208-57.6-3.424-34.624-4.48-33.952 20.48-13.28 3.2 2.592 11.072-6.208 17.696-19.552 12.064-24.416 16-53.76 7.296-53.76-2.592 0-4.704 4.288-4.704 9.6 0 13.728-12.8 11.776-15.808-2.4-1.696-8.256-5.312-5.344-11.744 9.6-5.12 11.808-11.392 21.472-13.888 21.472s-5.92-9.6-7.584-21.472c-2.88-20.672-3.2-20.8-9.6-3.616a30.432 30.432 0 0 0-0.32 30.848 602.176 602.176 0 0 1 16.672 121.312c0 37.568 25.6 67.2 40.544 46.816z m86.016-49.792a225.76 225.76 0 0 0 13.312-136.288c-7.552-36.512-20.64-50.176-39.104-40.8-13.728 6.976-34.624 87.872-34.688 134.4 0 72.384 33.92 96.48 60.48 42.784z m-32.224-57.344a120.64 120.64 0 0 1-9.28-45.312c0-23.84 0.704-24.704 6.4-9.6 7.04 18.752 19.552 22.016 24.352 6.4a33.12 33.12 0 0 0-2.08-20.992c-7.424-15.008-6.4-35.424 1.568-35.424 8.96 0 21.504 36.928 21.504 63.424 0 19.488-19.616 60.576-28.8 60.576-2.24 0-8.32-8.576-13.504-19.2z m125.984 54.656a206.304 206.304 0 0 0-4.512-157.376c-11.456-24.736-36.896-28.992-47.328-7.936a371.424 371.424 0 0 0-15.648 124.64c7.616 61.408 47.264 85.472 67.488 40.672zM579.2 496.864a79.744 79.744 0 0 1-10.176-50.08c0.256-29.088 0.992-31.712 4.32-15.104 4.896 24.448 15.136 33.664 24.096 21.728 5.568-7.392 5.312-10.912-1.6-21.632-9.216-14.304-11.008-34.528-3.2-34.528a161.184 161.184 0 0 1 32.544 72c0 15.36-18.048 42.464-28.288 42.464-4.032 0-12.064-6.688-17.696-14.848z m277.184-42.176l49.504-37.6-53.056-0.384c-47.488-0.352-53.056 1.376-52.992 16.32a369.024 369.024 0 0 0 6.4 59.424c0.352 0 22.912-17.088 50.144-37.76zM209.12 448l5.056-30.368-44.576-3.04c-24.448-1.664-44.448-0.384-44.448 2.816a451.2 451.2 0 0 0 78.304 61.888c0.416-0.544 2.88-14.624 5.664-31.296z m304.832-94.112a51.968 51.968 0 0 1 26.208 19.2c6.144 11.168 8.832 10.432 18.336-5.216 6.112-10.08 14.08-18.304 17.696-18.304s6.4-2.112 6.4-4.672c0-8.896-67.904-233.792-70.4-233.6s-72.64 236.352-74.784 253.6c-0.896 7.232 1.92 9.888 7.392 7.008 4.864-2.592 11.616 2.016 14.976 10.208 5.44 13.28 7.68 12.224 20.608-9.792 12.288-20.928 17.408-23.744 33.536-18.528z" fill="#333333" p-id="70143"></path><path d="M464 389.6a27.2 27.2 0 0 1-3.68-6.4 23.584 23.584 0 0 0-6.208-9.28 8.992 8.992 0 0 0-9.6-1.952c-2.784 1.12-3.552 1.248-4.8 0.768-2.08-0.832-2.848-3.392-2.24-7.744 0.736-5.408 6.4-26.4 17.536-65.728 22.752-80 53.312-180.672 56.704-186.848 0.384-0.672 0.384-0.672 0.768 0 2.016 3.648 13.824 40.512 29.984 93.504 21.824 71.68 40 134.72 40 138.848 0 2.528-1.92 4.064-5.952 4.704-5.024 0.832-10.848 6.784-18.784 19.2a53.568 53.568 0 0 1-7.232 9.92c-1.536 1.472-1.664 1.536-3.2 1.536s-1.792 0-3.2-1.376a30.656 30.656 0 0 1-3.2-4.608 40.576 40.576 0 0 0-13.248-13.504 48.8 48.8 0 0 0-23.616-8.992 13.888 13.888 0 0 0-12.8 4.992 86.976 86.976 0 0 0-13.312 19.2c-8.224 13.6-11.136 16.416-14.112 13.632zM200.064 477.696a609.76 609.76 0 0 1-73.6-58.816c-0.992-1.216-1.088-1.408-0.8-1.824a86.4 86.4 0 0 1 36.48-2.72c7.36 0.384 51.808 3.2 51.872 3.456s-9.6 56.928-10.272 60.192c-0.32 1.408-0.96 1.344-3.68-0.288zM805.664 491.2A455.648 455.648 0 0 1 800 433.92a17.696 17.696 0 0 1 1.408-9.28c2.592-4.832 7.84-6.56 22.4-7.36a1505.28 1505.28 0 0 1 64.8 0l16.672 0.256-40.352 30.464c-36.608 27.744-57.92 43.808-58.688 44.224-0.192 0-0.384-0.192-0.576-0.864zM272.192 904.992c0-2.272 4.768-19.2 16.864-60.096 28.96-97.824 42.208-133.28 58.464-156.544a245.248 245.248 0 0 0 31.008-57.344l5.472-13.664 7.2 14.336c12.608 25.088 20.224 32.352 33.984 32.512a39.648 39.648 0 0 0 35.2-36.384c0-3.968 1.408-8.032 2.752-8.032a35.808 35.808 0 0 1 7.232 4.48 40.672 40.672 0 0 0 21.312 9.6 28.128 28.128 0 0 0 19.488-4.736 79.04 79.04 0 0 0 22.752-24.448c5.984-8.064 11.104-14.688 11.328-14.688s4.576 5.088 9.6 11.264a162.912 162.912 0 0 0 13.504 14.944 33.568 33.568 0 0 0 49.568-2.56 195.552 195.552 0 0 0 14.944-18.304c5.376-7.296 9.824-13.12 9.92-12.8s2.112 8.608 4.512 18.688 5.408 21.44 6.688 25.248a122.432 122.432 0 0 0 20.544 39.488 69.44 69.44 0 0 1 14.912 39.872 97.632 97.632 0 0 1-11.264 46.304 66.24 66.24 0 0 0-8.544 29.888 64.544 64.544 0 0 0 6.816 27.232 24.736 24.736 0 0 0 34.208 13.216 43.232 43.232 0 0 1 10.112-2.176c6.4 0 10.08 6.176 17.344 28.192 5.024 15.168 16 52.384 16 54.24 0 0.96-0.512 1.632-1.248 1.632a47.552 47.552 0 0 1-13.024-7.168c-6.4-4.608-83.584-64.928-109.056-85.216-68.096-54.176-90.496-71.456-101.472-78.272-11.84-7.36-19.904-9.12-26.464-5.664-8.128 4.256-119.232 91.104-184.032 144a347.072 347.072 0 0 1-42.016 32c-4.768 2.656-4.576 2.592-4.576 0.96z" fill="#6398AA" p-id="70144"></path></svg>