<?xml version="1.0" standalone="no"?><!DOCTYPE svg PUBLIC "-//W3C//DTD SVG 1.1//EN" "http://www.w3.org/Graphics/SVG/1.1/DTD/svg11.dtd"><svg t="1593757824875" class="icon" viewBox="0 0 1107 1024" version="1.1" xmlns="http://www.w3.org/2000/svg" p-id="4783" xmlns:xlink="http://www.w3.org/1999/xlink" width="216.2109375" height="200"><defs><style type="text/css"></style></defs><path d="M63.651324 1013.447232c-23.799747-14.944841-45.386518-38.744588-54.795418-62.545335C1.106988 933.190085 0 886.696579 0 608.843531c0-316.044642 0-321.579583 11.622877-345.933324 6.641929-13.836853 21.032777-32.655653 32.102658-42.065553 40.405571-33.209647 26.567718-32.655653 568.991955-32.655654h494.269748v370.84106c0 409.031654 1.106988 392.979825-34.869629 430.617425-34.86963 36.530612-1.659982 34.316635-519.730478 34.316635-451.651201 0-472.684978-0.552994-488.734807-10.515888z m119.001735-299.440818v-77.489177h154.978354V575.633884h-154.978354v-94.094h177.118118V420.655531h-254.607294v370.840059h77.489176v-77.489176z m398.515766-77.489177v-154.978353h110.698824V420.655531H398.515766v60.884353h105.163882v309.956706h77.489177v-154.978353z m226.931589 86.345083v-68.633271l65.312306-2.213977c53.68943-1.659982 68.633271-4.427953 88.006065-14.389847 32.655653-17.158818 51.474453-47.601494 55.349412-88.559059 4.980947-55.349412-17.158818-97.968959-61.991342-117.894747-18.8198-8.855906-37.084606-10.515888-122.875694-10.515888H730.612237v370.840059h77.489177V722.86232z" fill="#13AF2E" p-id="4784"></path><path d="M808.101414 536.335301v-55.902406l49.813471 2.213977c42.619547 2.213976 51.475453 3.873959 63.652323 15.497835 10.515888 9.962894 13.836853 18.8188 13.836853 35.976618 0 42.619547-24.906735 58.116383-92.433018 58.116382h-34.869629v-55.902406zM570.097943 151.657389c0-7.195924 66.972288-105.717877 81.363135-119.55473C684.117731 1.106988 691.312655 0 898.873449 0c166.048236 0 192.062959 1.106988 199.257883 8.855906 7.195924 6.641929 8.855906 22.139765 8.855906 77.489177v68.63327H838.54309c-147.78343 0-268.444148-1.659982-268.444147-3.320964z" fill="#13AF2E" p-id="4785"></path></svg>