<?xml version="1.0" standalone="no"?><!DOCTYPE svg PUBLIC "-//W3C//DTD SVG 1.1//EN" "http://www.w3.org/Graphics/SVG/1.1/DTD/svg11.dtd"><svg t="1585117556569" class="icon" viewBox="0 0 1024 1024" version="1.1" xmlns="http://www.w3.org/2000/svg" p-id="27062" xmlns:xlink="http://www.w3.org/1999/xlink" width="200" height="200"><defs><style type="text/css"></style></defs><path d="M325.28 344.544c1.024 28.992 5.952 66.048 11.168 131.104a176.864 176.864 0 0 0 352.608 0c5.184-65.056 10.112-102.112 11.136-131.104H325.28z" fill="#FFDFA4" p-id="27063"></path><path d="M646.752 741.12h-45.536l-19.84-116.608a176.288 176.288 0 0 1-137.28 0l-19.84 116.64h-45.536a169.536 169.536 0 0 0-169.536 169.536v43.904h607.104v-43.904a169.536 169.536 0 0 0-169.536-169.536z" fill="#FFE2E5" p-id="27064"></path><path d="M720.128 152.64a293.824 293.824 0 0 0-39.744-33.248c-47.04-32.736-103.488-50.976-167.648-50.976-64.128 0-120.576 18.24-167.616 50.976-15.68 10.88-30.272 23.36-43.776 37.344C229.76 230.72 189.248 345.792 189.248 481.472c0 159.36 128.416 260.576 128.416 260.576h43.52c5.856-0.608 11.68-0.896 17.536-0.896h45.536l19.84-116.64a176.8 176.8 0 0 1-107.648-148.864c-5.216-65.056-10.144-102.112-11.168-131.104h374.912c-1.024 28.992-5.952 66.048-11.136 131.104a176.8 176.8 0 0 1-107.68 148.864l19.84 116.64h45.536c5.92 0 11.776 0.32 17.536 0.896h43.584s128.384-96.32 128.384-260.576c0-138.176-42.048-255.04-116.128-328.832zM664.896 840.704a29.632 29.632 0 0 0-15.808-15.808 28.992 28.992 0 0 0-31.872 6.336 28 28 0 0 0-6.336 9.472 30.912 30.912 0 0 0-2.24 11.2 28.704 28.704 0 0 0 2.24 11.2 28.896 28.896 0 0 0 21.28 17.44 28.832 28.832 0 0 0 26.4-7.968 28.8 28.8 0 0 0 8.544-20.672 29.088 29.088 0 0 0-2.24-11.2z" fill="#DE5E88" p-id="27065"></path></svg>