<?xml version="1.0" standalone="no"?><!DOCTYPE svg PUBLIC "-//W3C//DTD SVG 1.1//EN" "http://www.w3.org/Graphics/SVG/1.1/DTD/svg11.dtd"><svg t="1585118220251" class="icon" viewBox="0 0 1024 1024" version="1.1" xmlns="http://www.w3.org/2000/svg" p-id="38432" xmlns:xlink="http://www.w3.org/1999/xlink" width="200" height="200"><defs><style type="text/css"></style></defs><path d="M768 271.904h-192v128h-128v-128H256v-96h192v-128h128v128h192v96z" fill="#3CC34D" p-id="38433"></path><path d="M768 559.872H256v-96h512v96z" fill="#D13838" p-id="38434"></path><path d="M697.728 706.176L768 635.936h-191.968v192l88.032-88.064c34.592 20 55.936 46.752 55.936 76.256 0 61.824-93.12 112-208 112s-208-50.176-208-112c0-58.944 84.576-107.136 191.904-111.552V656.64C362.048 661.824 256 731.136 256 816.128c0 88.384 114.624 160 256 160s256-71.616 256-160c0-42.624-26.816-81.248-70.272-109.952z m-78.336 17.376V682.88h40.736l-2.016 2.016-36.32 36.256-2.4 2.4z" fill="#696969" p-id="38435"></path></svg>