<?xml version="1.0" standalone="no"?><!DOCTYPE svg PUBLIC "-//W3C//DTD SVG 1.1//EN" "http://www.w3.org/Graphics/SVG/1.1/DTD/svg11.dtd"><svg t="1588548235624" class="icon" viewBox="0 0 1365 1024" version="1.1" xmlns="http://www.w3.org/2000/svg" p-id="87308" xmlns:xlink="http://www.w3.org/1999/xlink" width="266.6015625" height="200"><defs><style type="text/css"></style></defs><path d="M506.24 224.992L415.802667 239.68l-82.506667 36.176-70.074667 44.08L196.533333 401.312l-37.669333 39.904-36.437333 13.429333-9.632-23.552 16.848-24.314666 3.786666-34.293334 11.28 0.458667 12.330667 11.248-3.328-34.933333-13.669333-9.173334 0.426666-13.312-32.378666 18.314667-29.317334 34.592-6.117333 30.912 12.544 24.757333 11.690667 42.053334 23.781333 11.258666 25.013333-1.226666 23.722667-13.781334-15.824 80.250667 15.824 89.290667-17.418667 41.226666L94.933333 745.898667l10.144 36.725333 27.029334 42.554667 50.96 35.856 27.029333 3.706666 30.053333 1.013334-18.752 76.976 68.949334 28.250666 85.898666 11.306667 29.386667-19.210667 2.261333-52 32.784-54.256 2.261334-42.949333 79.12 5.653333 73.466666-6.778666-73.466666 44.074666 12.437333 53.130667 46.336 72.336 45.210667 19.210667 36.170666-14.693334 14.688-29.386666 75.733334-57.642667 14.693333 12.426667 118.682667 4.528 23.733333-19.210667 2.256-33.92-7.904-14.682667-5.658667-91.557333-39.557333-79.12 6.784-35.04 23.733333 12.437333 66.688 62.16 32.778667 2.266667 36.165333-14.698667 36.176-27.125333 18.08-58.773333 106.250667 6.778666 64.426667-24.858666 51.989333-48.608 37.301333-70.08 9.034667-82.506667-7.909333-96.08-20.341334-85.893333-20.346666-27.125334-28.250667-9.045333-49.738667 54.250667-45.210666 15.824-39.562667-65.557334-39.557333-36.165333-21.477334-13.562667-85.904-71.210666-68.944-37.301334-68.949333-5.648-80.245333 13.562667-70.08 25.989333-48.602667 39.562667-38.426667 46.346667-39.557333 11.306666-68.954667 65.552" fill="#FFFF00" p-id="87309"></path><path d="M243.984 428.986667c-77.450667 90.341333-60.245333 199.898667-38.778667 307.253333a495463.466667 495463.466667 0 0 0-34.368-86.826667l-12.666666-79.610666c1.205333-27.136 2.405333-54.272 3.621333-81.402667L194.346667 410.613333l48.842666-72.362666 75.978667-63.306667 83.210667-34.373333 97.690666-12.661334-90.453333 103.109334c-72.629333 23.552-115.450667 39.424-165.637333 97.968" fill="#FFFFCC" p-id="87310"></path><path d="M608.608 153.733333c-53.84 52.533333-83.253333 92.16-117.525333 153.669334-24.506667 44-52 86.384-77.776 129.770666-13.029333 21.962667-14.261333 40.373333-18.16 65.701334l-37.989334-45.226667c6.037333-18.090667 12.064-36.181333 18.090667-54.266667l61.509333-110.346666 130.250667-128.442667c13.866667-3.621333 27.733333-7.232 41.6-10.858667m265.925333-130.24c-43.130667 16.165333-114.746667 21.493333-119.717333 70.986667-3.536 35.157333 2.650667 52.821333 23.84 90.016-52.336-54.16-65.28-45.781333-166.426667-28.949333l43.413334-61.504 75.978666-47.04 97.690667-21.706667 45.226667-1.802667" fill="#FFFFCC" p-id="87311"></path><path d="M993.536 693.04c14.357333 8.864 14.048 15.285333 11.648 21.36 11.322667-4.533333 22.650667-9.066667 33.973333-13.584l22.016-29.562667 16.336-42.112-20.88-15.696-91.253333 11.648c-2.250667 6.144-4.522667 12.293333-6.789333 18.448 0.645333 8.730667 1.301333 17.472 1.941333 26.202667 2.912 5.184 5.829333 10.357333 8.746667 15.536 4.528 2.261333 9.050667 4.533333 13.584 6.794667 3.568 0.32 7.12 0.650667 10.677333 0.965333m-8.490667-156.048c-45.744 13.2-45.386667 16.837333-58.890666 62.218667 17.829333-28.608 31.029333-43.045333 58.890666-62.218667m304.128-339.578667c-8.128 3.76-16.053333 5.562667-21.130666 13.002667-10.944 16.010667-20.32 29.477333-38.416 40.714667-9.114667 5.664-18.538667 9.333333-28.202667 12.346666-8.016 2.490667-12.837333 0.261333-19.658667 5.173334 4.053333 0.693333 8.101333 1.408 12.149334 2.117333h26.773333l33.008-20.378667 19.413333-20.389333 16.064-32.586667M560.576 298.917333c-17.989333 49.242667-33.717333 91.450667-60.970667 136.026667 34.922667-37.632 56.101333-69.621333 76.106667-112.165333 7.776-16.533333 9.242667-35.925333 30.890667-28.714667 0.970667 16.512 4.458667 33.002667 5.429333 49.504 11.696-83.829333 44.677333-118.896 121.344-151.434667l-65.04 7.770667-61.162667 13.589333-30.090666 43.68-16.506667 41.744m148.528-1.941333c16.533333 77.813333 40.341333 152.501333 50.682667 231.552 6.714667 51.365333 7.445333 76.042667-18.394667 120.362667-28.245333-1.829333-45.781333 1.354667-73.104 10.309333-108.762667 35.653333-171.146667 88.08-244.426667-17.552l70.186667 33.077333c16.677333-3.28 33.354667-6.549333 50.026667-9.84 29.450667-17.141333 58.896-34.293333 88.346666-51.44l68.917334-13.6L723.669333 506.666667l-16.506666-123.290667c-0.64-19.413333-1.290667-38.826667-1.941334-58.24 1.301333-9.386667 2.597333-18.773333 3.882667-28.154667m187.354667 481.488c-9.136 63.221333 21.04 97.205333 8.544 114.666667-3.536 4.938667-8.330667 13.568-13.68 15.936-19.12 8.442667-45.408-1.584-47.28 3.36h-63.098667l-25.237333-10.677333 38.826666-45.626667c12.618667-27.498667 25.242667-55.008 37.856-82.517333l24.266667-83.477334h12.624l27.178667 88.336" fill="#CCCC00" p-id="87312"></path><path d="M790.405333 594.677333c5.125333 28.704 14.026667 35.525333 27.530667 63.312-8.986667 45.333333-23.424 99.237333-40.8 139.237334-7.328 16.869333-13.237333 26.170667-26.165333 39.205333-21.813333 22.026667-43.856 41.205333-68.586667 60.298667-17.813333 13.722667-30.24 6.842667-52.208 3.733333-9.344 16.933333-11.92 26.346667-29.12 34.944-26.442667 13.216-50.106667-15.269333-70.864-32.037333 14.986667 23.413333 29.973333 46.810667 44.949333 70.218666 10.357333 9.706667 20.714667 19.408 31.066667 29.12l26.213333 3.888 34.938667-21.365333c6.154667-11.642667 12.298667-23.296 18.448-34.938667 12.944-9.706667 25.893333-19.413333 38.826667-29.130666 15.861333-13.584 31.717333-27.178667 47.573333-40.768l30.090667-42.714667 27.173333-50.474667c11.658667-34.944 23.306667-69.893333 34.96-104.837333 0.965333-13.269333 1.930667-26.533333 2.906667-39.808-14.56-6.464-29.12-12.944-43.685334-19.413333-10.677333-10.026667-22.570667-18.437333-33.248-28.469334m-348.256 202.234667c48.992 0 100.736-2.72 145.616-23.301333 12.693333-19.04 25.232-34.602667 40.768-51.44-14.138667 26.709333-18.576 41.802667-22.325333 71.829333l-14.56 21.36c-36.890667 0.965333-73.776 1.936-110.666667 2.912-11.978667-1.301333-23.946667-2.592-35.92-3.882667-1.296-1.306667-2.586667-2.597333-3.882666-3.888 0.330667-4.533333 0.650667-9.061333 0.970666-13.589333m-6.789333-33.973333l-3.808-34.474667c-8.368 50.389333-6.357333 84.16-29.546667 129.296-17.322667 20.064-38.650667 38.325333-63.077333 48.101333 2.064 12.373333 2.682667 20.106667 1.482667 29.178667-4.304 32.64-69.584 18.218667-96.442667 16.917333l129.258667 33.28 29.12-11.648c3.242667-18.762667 6.48-37.541333 9.712-56.304l27.178666-50.474666 4.853334-31.066667-8.736-72.8M362.544 478.506667c-1.349333 24.506667-2.933333 34.72 7.872 56.352 13.733333 27.498667 30.597333 53.344 45.52 80.522666l4.853333-54.362666c-19.408-27.509333-38.826667-55.008-58.24-82.506667m-199.274666 185.066667c-4.208 8.938667-8.4 17.888-12.608 26.832 11.562667 38.96 21.850667 63.637333 43.872 97.669333-3.84 13.786667-6.709333 19.818667-15.530667 31.056-19.381333-2.976-36.592-3.84-56.234667-3.776 21.68 16.816 43.36 33.653333 65.04 50.48 10.677333-1.952 21.36-3.893333 32.037334-5.829333l32.037333-32.032-45.626667-70.869334c-14.336-31.173333-28.661333-62.357333-42.986666-93.530666m1126.037333-479.050667c13.205333 59.397333 30.24 114.218667 28.656 175.061333-1.941333 74.64-16.485333 168.928-85.648 213.936-77.450667 50.410667-168.373333 26.565333-253.349333 4.965334l103.872 42.714666c32.357333 1.621333 64.72 3.242667 97.077333 4.853334 22.005333-6.469333 44.010667-12.938667 66.005333-19.413334 17.152-14.24 34.304-28.469333 51.456-42.714666l38.826667-81.536 14.56-94.165334c-3.877333-30.746667-7.770667-61.482667-11.648-92.224l-21.354667-91.248c-9.482667-6.746667-18.965333-13.493333-28.453333-20.229333M133.482667 361.573333c-35.157333 22.885333-48.970667 32.933333-45.114667 75.349334l10.506667 38.106666 14.896 10.08 18.4 6.133334 33.290666-7.888c5.701333-17.669333 11.392-35.333333 17.082667-53.002667l-47.306667 23.221333h-10.949333a37838.4 37838.4 0 0 0-12.266667-18.837333l14.896-21.904 7.882667-41.616c3.36 1.018667 6.72 2.048 10.074667 3.061333 4.090667 3.221333 8.176 6.432 12.266666 9.637334l-1.754666-21.898667-8.32-14.016c-2.773333-2.346667-5.546667-4.672-8.32-7.013333l-5.264 20.586666M922.336 27.36c31.210667 28.981333 69.509333 54.165333 94.469333 89.578667 9.658667 13.706667 20.389333 20.72-0.16 40.085333 21.712-6.202667 29.786667-5.530667 47.173334-3.424 31.626667 3.829333 61.269333 48.789333 63.157333 81.002667-0.373333 3.013333-8.784 9.856-33.237333 16.608-0.48 0.938667-13.802667-1.824-13.472-0.917334 2.544 6.949333 5.936 8.016 11.125333 11.264 1.12 7.733333 1.845333 19.664 7.114667 28.122667 15.386667-0.277333 30.426667 1.402667 45.493333 4.384 5.066667 8.410667 4.309333 16.821333 3.882667 25.237333l17.472-2.906666c-1.610667-13.269333-3.232-26.533333-4.848-39.802667 5.173333-8.736 10.346667-17.477333 15.530666-26.202667l-22.330666-50.485333c-14.234667-13.589333-28.469333-27.184-42.714667-40.773333l-4.106667-0.202667a380710.346667 380710.346667 0 0 1-48.037333-29.482667l-78.346667-64.096-58.165333-37.989333m52.570667 239.184c-1.648 2.88-4.133333 7.477333-7.317334 10.666667 12.997333 12.293333 19.413333 20.528 24.048 37.92-14.698667 7.290667-29.386667 14.592-44.08 21.877333l-37.301333 35.76c-16.368-8.810667-20.442667-15.573333-28.362667-32.373333-9.226667 2.448-17.957333 4.8-25.573333 2 4.832 0.037333 7.797333-1.168 12.629333-4.154667l23.733334-24.656c13.973333-10.581333 27.946667-21.173333 41.92-31.749333l27.44-8.944c3.493333-1.434667 9.370667-4.906667 12.864-6.346667" fill="#CCCC00" p-id="87313"></path><path d="M1015.466667 310.394667c-46.752 25.173333-91.52 50.485333-115.424 98.288 0-60.677333 60.922667-87.386667 115.418666-98.293334m-124.698666-119.36c-34.714667 23.669333-59.258667 71.434667-56.176 117.984-11.306667-40.309333-7.301333-78.394667 27.413333-106.234666 5.866667-2.842667 11.717333-5.696 17.578667-8.538667 3.728-1.066667 7.450667-2.133333 11.184-3.210667" fill="#CCCC00" p-id="87314"></path><path d="M1357.893333 300.928c-6.293333-39.696-16.730667-78.229333-31.216-105.936-1.76-3.386667-4.437333-6.821333-7.754666-10.096-7.194667-7.093333-17.845333-13.813333-28.848-17.594667-11.658667-4.010667-23.952-4.826667-33.712 0.272-2.533333 1.333333-4.890667 3.04-6.986667 5.173334-6.32 6.4-11.653333 14.186667-16.992 21.978666-5.936 8.682667-11.909333 17.408-19.056 23.504-8.282667 7.082667-18.645333 11.381333-28.421333 15.306667a192.650667 192.650667 0 0 0-14.789334-28.752c-6.682667-10.656-14.293333-20.634667-22.666666-30.613333a125.626667 125.626667 0 0 0-20.698667-19.749334c-7.221333-5.509333-14.613333-10.149333-23.221333-15.536-23.077333-14.453333-42.730667-31.690667-62.773334-49.28-9.109333-7.989333-18.309333-16.053333-27.306666-23.472-47.733333-39.36-92.256-58.448-139.872-61.44-47.290667-2.976-97.226667 10.016-156.186667 34.837334-28.458667 11.973333-49.589333 26.128-68 43.146666-17.584 16.266667-32.512 34.997333-48.922667 56.869334-9.546667 0.677333-18.005333 2.090667-26.64 5.546666-9.514667 3.808-19.093333 9.973333-30.570666 20.101334a691.072 691.072 0 0 0-23.466667 21.690666 810.005333 810.005333 0 0 0-20.661333 20.784c-53.674667 8.624-97.408 18.144-136.576 33.312-40.053333 15.52-75.36 36.864-111.621334 69.013334a293.536 293.536 0 0 0-38.864 41.722666c-11.029333 14.448-20.469333 29.637333-28.752 45.653334-7.253333 8.026667-14.522667 16.128-22.389333 23.216-7.669333 6.906667-15.845333 12.725333-25.008 16.250666l0.005333 0.005334c-5.328 2.053333-7.530667 3.253333-7.770666 3.173333-0.266667-0.149333-0.416-0.949333-0.789334-2.421333 13.157333-12.554667 15.226667-31.002667 16.442667-49.317334 1.578667 1.888 3.093333 4.213333 4.666667 6.645334 1.738667 2.682667 3.52 5.450667 5.653333 8.144l8.933333 11.269333 3.136-14.058667c2.634667-11.781333 4.608-27.466667 1.536-41.066666-1.984-8.826667-6.08-16.693333-13.216-22.266667 0.682667-1.781333 1.328-3.424 1.962667-5.045333 2.24-5.733333 4.549333-11.616 6.506667-17.173334l3.872-11.013333-11.52 1.994667c-15.328 2.666667-48.266667 20.768-71.466667 44.837333-8.613333 8.944-16.021333 18.826667-20.88 29.194667-5.056 10.789333-7.322667 22.08-5.36 33.376 1.706667 9.877333 6.650667 19.573333 15.626667 28.714666 1.637333 6.597333 3.146667 12.32 4.762666 17.482667 1.850667 5.872 3.84 11.125333 6.330667 16.298667 6.752 14.037333 17.514667 22.613333 29.973333 26.613333 10.010667 3.216 21.082667 3.376 31.941334 0.997333a291.664 291.664 0 0 0-3.978667 39.12c-0.688 18.32-0.016 38.56 2 62.048a327.466667 327.466667 0 0 0 4.554667 32.538667c-2.026667 5.536-4.069333 11.082667-6.106667 16.618667l-9.477333 25.797333-20.853334 20.666667c-6.490667 6.416-12.981333 12.848-19.466666 19.274666-0.533333 0.533333-2.725333 2.634667-4.709334 4.549334-13.146667 12.650667-15.749333 15.162667-12.016 37.424a135.733333 135.733333 0 0 0 13.776 40.8c6.453333 12.293333 15.114667 24.261333 26.229334 35.408 13.866667 13.898667 36.597333 31.168 60.394666 40.213333 13.6 5.162667 27.616 7.690667 40.773334 5.578667-0.672 2.026667-1.322667 4.042667-2.064 6.08a229.808 229.808 0 0 1-6.933334 17.056c-16.144 35.386667 0.426667 53.866667 26.218667 65.626666 12.88 5.866667 28.192 9.856 42.416 13.568 2.912 0.746667 5.824 1.514667 9.493333 2.506667 16.853333 4.554667 45.978667 12.922667 72.581334 14.602667 29.034667 1.834667 55.221333-4.16 62.24-30.218667 2.773333-10.330667 4.389333-18.24 5.045333-25.989333 0.602667-7.189333 0.373333-14.453333-0.469333-23.445334 8.277333-18.346667 11.786667-23.504 17.84-32.352 1.184-1.749333 2.618667-3.84 3.050666-4.501333 6.490667-9.616 9.530667-16.442667 10.634667-24.128 1.066667-7.418667 0.16-14.810667-1.178667-26.106667-0.128-1.072-0.32-2.64-0.602666-4.714666a416.693333 416.693333 0 0 0 50.410666 3.456c8.458667 0.053333 16.912-0.197333 25.365334-0.64-2.16 1.104-4.277333 2.202667-6.592 3.392l-3.146667 1.616c-22.421333 11.530667-23.354667 33.370667-16.336 55.84 6.325333 20.261333 19.349333 40.949333 27.52 53.530666 17.173333 26.469333 33.562667 48.874667 53.434667 61.050667 20.826667 12.762667 44.624 14.266667 75.338666-2.357333 15.626667-8.458667 20.554667-17.082667 27.189334-28.709334 2.032-3.546667 4.272-7.413333 6.768-11.226666 6.453333-4.277333 22.522667-17.530667 38.293333-30.570667 5.370667-4.437333 10.736-8.853333 16.789333-13.786667 4.170667 3.066667 9.205333 5.194667 15.290667 6.645334 7.904 1.893333 17.317333 2.746667 28.597333 3.557333 8.442667 0.618667 35.973333 0.597333 53.76 0.592 5.493333 0 10.053333 0 12.789334 0.016 18.362667 0.112 33.184-0.853333 44.384-7.2 11.936-6.768 19.013333-18.752 20.56-40.245333 0.672-9.546667 0.8-15.434667-0.528-21.445334-1.237333-5.632-3.653333-10.736-7.802667-18.202666a48773.813333 48773.813333 0 0 1-0.746667-27.866667c-0.256-9.850667-0.533333-19.712-0.789333-29.562667-0.314667-11.616-1.594667-21.056-3.952-30.341333-2.336-9.221333-5.674667-18.090667-10.144-28.736a483.552 483.552 0 0 1-7.882667-20.298667l-6.442666 2.357334 0.992-0.362667 5.450666-1.994667v-0.026666c-3.84-10.357333-7.626667-20.442667-12.928-31.232 0.341333-2.08 0.688-4.32 1.024-6.709334l10.24 9.866667 15.093334 14.544c11.509333 11.088 22.032 21.173333 34.394666 28.458667 12.784 7.546667 27.157333 11.925333 45.770667 11.04 19.488-0.917333 40.341333-9.125333 57.509333-21.792 16.608-12.261333 29.936-28.794667 35.498667-47.093334l4.821333-15.872 3.850667-12.666666c27.328 4.629333 56.661333 6.122667 84.992 3.157333 27.338667-2.874667 53.749333-9.834667 76.528-21.984 33.482667-17.866667 58.586667-44.181333 76.629333-75.429333h0.010667c20.16-34.922667 31.450667-76.074667 35.738667-118.421334 3.44-33.962667 1.562667-80.133333-5.509334-124.661333z m-354.064 285.429333c-15.749333-5.301333-26.698667-13.034667-40.533333-21.754666 3.765333 16.976 5.477333 34.928 0.464 51.872-7.957333 26.890667-20.810667 70.88 15.696 78.997333 13.893333 3.082667 20.197333 2.64 39.808-7.482667-15.872 3.594667-23.877333 2.72-34.789333 0.693334-9.888-1.818667-15.130667-8.096-17.893334-15.504 3.456 2.490667 9.088 3.845333 18.72 6.165333 27.061333 6.528 52.848-6.506667 57.893334-25.269333 2.933333-10.965333 2.437333-16.725333 8.672-31.669334 5.6 1.733333 11.386667 3.306667 17.328 4.746667l-10.058667 32.794667c-8.693333 28.373333-42.586667 51.253333-72.506667 50.725333-27.658667-0.485333-45.2-17.813333-64.298666-34.8-13.152-11.712-25.813333-22.906667-38.357334-34-34.426667-10.864-62.021333-23.557333-93.973333-47.210667 22.741333 26.72 38.16 41.514667 69.872 54.810667-4.608 47.04-20.96 81.344-34.896 126.362667-6.314667 20.352-56.112 101.925333-69.914667 109.877333-9.84 5.669333-71.482667 57.584-83.072 64.437333-8.64 11.466667-16.218667 27.317333-29.205333 34.176-39.562667 20.922667-64.986667-19.136-86.277333-52.965333-9.690667-15.413333-36.613333-59.808-13.146667-72.245333 22.186667-11.749333 34.613333-20.144 57.253333-35.013334 3.328 6.064 9.029333 11.92 12.746667 17.973334l-2.464-19.872c-1.493333-12-1.429333-21.744-0.48-33.818667 0.928-11.690667 1.845333-23.381333 2.762667-35.077333-3.408 11.888-10.213333 23.770667-13.610667 35.648-1.36 4.757333-2.485333 8.597333-3.136 12.16-50.794667 10.378667-101.221333 11.024-152.026667 1.962666-3.242667-18.810667-7.189333-38.410667-10.501333-52.464-1.002667 15.733333-0.357333 59.242667-0.437333 83.605334-0.064 18.869333-0.853333 25.333333-10.592 41.386666-9.109333 15.029333-12.965333 18.442667-25.728 43.84 1.066667 16.026667 1.082667 26.613333-3.173334 41.824-7.077333 25.285333-78.506667 5.696-97.344 0.533334-23.205333-6.346667-71.173333-15.786667-59.109333-46.72 10.613333-27.221333 17.344-55.925333 22.533333-94.016-42.512-61.242667-82.042667-145.162667-89.632-219.52-5.893333-57.733333-2.357333-93.269333 10.133334-128.586667 19.797333-55.957333 47.498667-104.394667 91.936-143.397333C332.437333 276.96 388.469333 255.84 476.213333 242.48c-21.098667 23.626667-41.973333 48.597333-64.725333 75.376-23.034667 27.109333-36.714667 54.490667-51.344 84.149333-20.202667 40.954667-19.765333 56.538667 7.013333 92.496 23.077333 30.986667 35.536 44.933333 45.616 75.253334-8.32 17.152-11.349333 31.653333-14.144 55.072 28.256 30.896 49.258667 52.058667 76.693334 58.576 26.917333 6.4 49.386667 5.162667 73.472-7.146667 53.477333-27.338667 102.96-62.645333 163.285333-64.106667 27.909333-68.608 25.088-125.941333 11.690667-192.325333-9.152-45.338667-12.826667-88.266667-15.669334-134.485333-11.312 47.6-13.44 89.456-5.045333 136.874666 10.122667 57.136 17.989333 120.266667-10.16 170.485334-54.554667 4.176-101.301333 37.365333-150.464 62.826666-19.765333 10.24-40.341333 11.237333-62.213333 5.232-20.304-5.578667-34.005333-19.013333-55.877334-44.24-0.346667-25.328 5.370667-37.013333 17.002667-59.957333 18.688-36.837333 39.312-71.125333 61.946667-107.365333-27.712 33.450667-53.973333 61.402667-75.786667 95.04-8.341333-23.754667-20.266667-35.818667-40.016-62.570667-19.290667-26.128-21.306667-37.562667-6.88-67.802667 14.501333-30.384 26.8-57.088 51.488-83.744 42.650667-46.064 81.728-97.328 128.373333-142.693333 25.328-24.629333 35.610667-23.781333 69.205334-28.869333 30.368-4.608 60.010667-10.416 90.976-17.605334-29.946667 2.789333-58.896 3.813333-88.053334 4.533334l-0.906666 0.026666c28.693333-36.634667 45.338667-57.050667 91.925333-77.296 114.709333-49.813333 187.594667-55.2 277.701333 20.538667 23.354667 19.637333 43.749333 38.693333 67.424 55.626667-8.586667 0.736-15.984 2.277333-25.770666 6.117333 11.909333-2.272 25.664-0.021333 38.026666 2.24 3.466667 2.250667 7.04 4.448 10.682667 6.597333 16.72 9.850667 26.208 15.290667 37.514667 31.04 11.946667 16.645333 21.909333 33.28 30.682666 51.616-5.749333-2.058667-10.576-3.792-14.874666-5.066666a32.016 32.016 0 0 0-30.170667 1.866666l-0.693333 0.32c-9.248 4.506667-23.573333 9.637333-33.157334 11.194667 4.890667 1.685333 15.706667 2.32 20.805334 0.298667 0.682667-0.266667 1.376-0.48 2.090666-0.645334a31.994667 31.994667 0 0 0-4.266666 13.162667 32 32 0 0 0 3.418666 17.786667l0.026667 0.058666c0.864 2.037333 2.069333 3.909333 3.392 5.264-4.378667 1.616-8.853333 3.461333-13.466667 5.461334 21.381333-3.253333 40.656-3.813333 61.514667-1.066667 1.376 6.576 2.762667 13.546667 4.053333 20.634667l-7.754666 0.608a27.546667 27.546667 0 0 0-0.624 0.053333c-9.872-7.888-20.869333-6.56-35.893334-3.130667-45.696 10.416-34.96 36.053333-55.973333 74.688 21.824-26.677333 20.202667-54.592 55.770667-63.018666 8.288-1.957333 13.930667-4.416 19.541333-3.573334-10.096 5.077333-18.826667 13.498667-22.293333 23.274667-9.76 27.568-3.701333 50.794667-14.426667 76.544 13.28-23.018667 14.085333-45.482667 25.968-69.706667 4.266667-8.693333 20.096-22.613333 29.813333-22.826666l8-0.176c2.346667 15.317333 3.770667 30.533333 2.864 43.152-1.658667 23.029333-7.642667 57.210667-11.221333 70.293333 12.032-15.472 17.514667-48.234667 22.8-71.306667 5.504-24.010667 4.112-52.826667-0.704-78.629333-6.613333-35.397333 29.845333-29.637333 51.008-46.32 15.557333-12.266667 26.272-31.845333 40.533333-45.722667 14.149333-13.76 36.426667 6.458667 41.989334 19.904 24.128 58.384 35.12 150.229333 28.752 209.082667-7.157333 66.037333-39.050667 138.128-97.296 170.64-74.250667 41.44-161.797333 16.122667-235.573334-8.730667z m-105.504 293.301334c-2.421333 27.248-11.504 29.045333-35.429333 28.629333-10.869333-0.192-54.154667-0.389333-65.141333-1.333333-15.52-1.338667-24.234667-2.725333-28.976-6.266667 24.384-17.898667 65.813333-91.797333 73.893333-117.242667 8.544-26.88 17.893333-50.336 24.848-75.178666 3.2 10.384 5.722667 20.672 10.378667 31.701333 7.770667 18.432 11.573333 29.818667 12.128 49.589333l1.76 62.576c6.682667 11.690667 7.722667 14.186667 6.538666 27.52zM164.496 673.248c15.482667 53.562667 41.861333 106.197333 71.104 150.448v0.773333c-1.84 7.610667-3.957333 15.013333-8.4 20.96-20.906667 27.968-74.069333-13.082667-89.461333-28.784-16.821333-17.184-28.08-37.52-30.762667-56.602666-1.952-13.909333-0.053333-14.250667 9.653333-24.096l39.264-39.749334 8.602667-22.949333z m-29.573333-336.853333c-3.968 8.517333-6.784 14.976-8.698667 21.621333-8.336 28.789333 3.770667 54.485333-22.368 75.354667 12.282667 24.778667 11.717333 34.666667 40.288 23.216 11.018667-4.426667 20.106667-10.613333 28.224-17.941334a529.92 529.92 0 0 0-10.832 30.965334c-0.565333 1.76-1.104 3.536-1.621333 5.296-20.432 8.672-47.306667 14.181333-57.589334-7.290667-4.992-10.426667-7.813333-20.656-11.456-33.829333-33.648-34.858667 16.650667-80.885333 44.053334-97.392z m16.538666 36.928c-4.154667-4.16-7.477333-6.970667-12.848-6.362667 0.453333-3.52 1.056-6.917333 1.904-10.106667 0.426667-1.642667 0.885333-3.253333 1.376-4.869333 6.965333 4.058667 8.8 11.413333 9.568 21.333333z m1008.949334-130.208c1.269333 2.677333 2.517333 5.402667 3.744 8.16-1.013333 0.746667-1.978667 1.530667-2.88 2.357333a32.512 32.512 0 0 0-7.045334-10.336c2.005333-0.074667 4.064-0.138667 6.186667-0.181333zM188.976 401.349333l-0.005333-0.005333v0.005333z m-109.525333 37.008z m368.186666 384.901334h0.010667-0.010667z m303.269334 90.538666h-0.005334 0.005334z m123.253333-234.277333h0.010667l-0.005334 0.005333zM138.4 443.253333h-0.005333l-0.229334-0.586666 0.229334 0.592z m1183.221333 97.269334l0.16 0.096-0.16-0.096zM19.669333 434.869333c5.354667-60.624 17.141333-86.8 60.213334-132.426666C25.856 340.512 12.373333 357.813333 19.669333 434.864" p-id="87315"></path><path d="M5.733333 385.349333c5.946667-27.285333 11.493333-37.584 28.32-59.978666C6.752 344.437333 3.2 352.266667 5.728 385.349333M639.6 4.981333c-32.368 7.802667-38.538667 13.786667-48.245333 45.514667 15.488-23.232 24.405333-30.789333 48.245333-45.514667" p-id="87316"></path><path d="M690.64 0.362667c-64.197333 15.733333-83.061333 26.922667-104.384 101.328 27.104-54.496 47.626667-74.56 104.384-101.333334m138.261333 271.237334c6.842667-30.314667 19.002667-59.525333 66.08-82.128-62.4 15.626667-74.101333 41.84-66.08 82.133333m397.056 2.090667c36.954667-13.173333 54.768-42.885333 63.616-77.84-14.464 29.296-36.784 53.797333-67.104 68.805333-16.272 8.053333-26.666667 5.242667-44.837333 3.52 18.48 5.306667 30.186667 11.978667 48.325333 5.514667m-251.744 29.706666a41.989333 41.989333 0 0 0-23.536-21.381333c9.066667-4.837333 17.968-9.92 24.912-16.24-20.346667 9.418667-44.032 7.12-61.493333 18.912-15.376 10.389333-36.602667 43.306667-52.229333 57.264 11.317333-4.394667 22.224-11.994667 32.266666-20a41.850667 41.850667 0 0 0 22.522667 36.816 94.405333 94.405333 0 0 0-13.642667 24.906667c29.754667-35.264 72.896-61.898667 113.461334-73.285334-11.338667-0.16-24.762667 1.957333-38.437334 6.453334a41.770667 41.770667 0 0 0-3.824-13.445334m-42.810666 266.464c-1.445333 9.130667-3.429333 20.48-4.874667 29.616 3.866667-10.336 8.517333-22.346667 13.013333-32.202666 4.768-10.432 7.450667-11.413333 17.568-16.917334 7.173333-3.904 20.197333-9.269333 27.370667-13.173333-7.381333 1.242667-20.608 3.957333-27.989333 5.2-19.712 3.328-22.032 8.064-25.088 27.477333M594.666667 217.312c-22.88 22.613333-45.104 100.213333-52.202667 131.264 11.184-25.792 39.173333-97.941333 60.645333-116.293333 5.930667-5.072 10.074667-8.186667 14.528-10.453334-15.370667 25.776-14.24 32.186667-8.848 66.72 4.581333-35.109333 16.72-48.672 36.64-74.864 21.834667-5.477333 42.272-12.042667 64.672-20.778666a4148.64 4148.64 0 0 1-75.76 7.861333c-21.216 2.010667-24.634667 1.669333-39.68 16.544" p-id="87317"></path><path d="M906.346667 349.408a17.562667 17.562667 0 0 1 8.298666-23.392 17.626667 17.626667 0 0 1 24.416 10.810667c-8.352 6.202667-16.005333 13.498667-22.426666 21.957333-4.32-1.738667-8.149333-4.896-10.293334-9.376m195.381334-75.584c0.704-7.226667 6.864-12.554667 14.090666-11.856a13.216 13.216 0 0 1 11.861334 14.384 13.226667 13.226667 0 0 1-1.189334 4.304c-6.613333 1.136-13.226667 3.066667-20.042666 5.573333-2.848-2.917333-5.12-8.24-4.72-12.405333" fill="#FFFFCC" p-id="87318"></path></svg>