<?xml version="1.0" standalone="no"?><!DOCTYPE svg PUBLIC "-//W3C//DTD SVG 1.1//EN" "http://www.w3.org/Graphics/SVG/1.1/DTD/svg11.dtd"><svg t="1587723275247" class="icon" viewBox="0 0 1024 1024" version="1.1" xmlns="http://www.w3.org/2000/svg" p-id="5180" xmlns:xlink="http://www.w3.org/1999/xlink" width="200" height="200"><defs><style type="text/css"></style></defs><path d="M821.333333 74.666667c70.688 0 128 57.312 128 128v170.666666a42.666667 42.666667 0 1 1-85.333333 0V202.666667a42.666667 42.666667 0 0 0-42.666667-42.666667H192a42.666667 42.666667 0 0 0-42.666667 42.666667v629.333333a42.666667 42.666667 0 0 0 42.666667 42.666667h245.333333a42.666667 42.666667 0 1 1 0 85.333333H192c-70.688 0-128-57.312-128-128V202.666667c0-70.688 57.312-128 128-128z m67.125334 640.448a42.666667 42.666667 0 0 1 42.389333 37.813333 42.624 42.624 0 0 1-11.68 38.453333L798.485333 912.064A42.666667 42.666667 0 0 1 738.133333 851.733333l51.285334-51.285333H504.458667a42.666667 42.666667 0 1 1 0-85.333333h384zM655.84 453.493333a42.666667 42.666667 0 0 1 0 60.341334l-48.373333 48.362666 280.992 0.010667a42.666667 42.666667 0 1 1 0 85.333333h-384a42.666667 42.666667 0 0 1-30.058667-72.96c0.149333-0.128 0.288-0.266667 0.426667-0.416l120.672-120.672a42.666667 42.666667 0 0 1 60.341333 0z" p-id="5181" fill="#1296db"></path></svg>