<?xml version="1.0" standalone="no"?><!DOCTYPE svg PUBLIC "-//W3C//DTD SVG 1.1//EN" "http://www.w3.org/Graphics/SVG/1.1/DTD/svg11.dtd"><svg t="1588548460442" class="icon" viewBox="0 0 1024 1024" version="1.1" xmlns="http://www.w3.org/2000/svg" p-id="97805" xmlns:xlink="http://www.w3.org/1999/xlink" width="200" height="200"><defs><style type="text/css"></style></defs><path d="M1014.4 616.224L916.576 192c-5.472-22.88-26.496-46.624-50.272-53.024L421.024 1.856c-5.504-1.824-11.904-1.824-19.2-1.824-19.2 0-38.4 7.296-52.128 19.2L30.624 316.352c-17.408 15.616-26.528 46.624-21.024 68.576l104.224 454.4c5.472 22.88 26.496 46.624 50.272 53.024l416.928 129.824c5.472 1.824 11.872 1.824 19.2 1.824 19.2 0 38.4-7.296 52.096-19.2l341.024-317.28c17.376-18.272 26.528-47.52 21.024-71.296zM467.68 102.4l306.272 94.176c11.904 3.68 11.904 9.12 0 11.904l-160.896 36.576c-11.904 3.68-29.28-1.824-37.504-10.976l-111.52-120.704c-10.08-10.08-8.224-14.624 3.68-10.976z m191.04 548.576c3.68 11.904-4.576 19.2-16.416 15.52l-330.08-102.4c-11.904-3.616-14.624-13.696-5.504-21.92L559.104 307.2c9.12-9.12 19.2-5.504 21.92 6.4zM114.784 352l267.872-249.6c9.12-9.12 22.88-7.296 32 0.896l134.4 145.408c9.12 9.12 7.296 22.816-0.928 32l-267.872 249.6c-9.12 9.12-22.88 7.296-32-0.928L113.856 384c-9.12-10.08-8.224-24.704 0.928-32z m64.928 394.976l-70.4-310.88c-3.68-11.872 1.824-14.592 10.016-5.472l111.584 120.672c9.12 9.184 11.872 26.528 9.12 38.4l-48.48 157.28c-3.616 12.8-9.12 12.8-11.872 0z m392.224 182.848l-350.208-108.8a23.712 23.712 0 0 1-15.488-29.44l-0.032 0.16 58.528-188.32a23.744 23.744 0 0 1 29.408-15.488l-0.16-0.032 350.176 107.872c11.904 3.68 19.2 16.48 15.584 29.28l-58.528 188.32a25.6 25.6 0 0 1-29.408 16.448l0.16 0.032z m310.848-255.104l-234.016 217.6c-9.184 9.184-13.728 5.504-10.08-6.4l48.48-157.216c3.616-11.904 16.416-24.704 29.216-26.528l160.928-36.576c11.872-4.576 13.696 0.896 5.472 9.12z m25.6-47.52l-192.896 43.904c-11.904 3.616-24.704-4.608-27.424-16.48L605.76 298.048c-3.616-11.904 4.608-24.704 16.48-27.424l192.928-43.904c11.872-3.616 24.672 4.576 27.392 16.48l82.304 356.576c2.72 13.728-4.576 25.6-16.48 27.424z" fill="#22ADF6" p-id="97806"></path></svg>