<?xml version="1.0" standalone="no"?><!DOCTYPE svg PUBLIC "-//W3C//DTD SVG 1.1//EN" "http://www.w3.org/Graphics/SVG/1.1/DTD/svg11.dtd"><svg t="1588549625459" class="icon" viewBox="0 0 1024 1024" version="1.1" xmlns="http://www.w3.org/2000/svg" p-id="109548" xmlns:xlink="http://www.w3.org/1999/xlink" width="200" height="200"><defs><style type="text/css"></style></defs><path d="M44.4 517.84a136.64 136.64 0 1 0 136.64-136.72A136.88 136.88 0 0 0 44.4 517.84z" fill="#FA930D" p-id="109549"></path><path d="M859.84 37.84c-75.12 0-120 60.48-120 161.84v622.4c0 101.28 44.72 161.84 120 161.84s120-60.48 120-161.84V200c-0.24-101.6-45.04-162.16-120-162.16zM650 51.04H159.04a119.36 119.36 0 0 0 0 238.48v0.88h251.28v227.2a229.6 229.6 0 0 1-229.04 229.6h-6.16l-0.64 0.8c-3.36 0-6.8-0.56-10.32-0.56a119.52 119.52 0 1 0 0 238.96c3.6 0 7.2 0 10.72-0.56v0.4h6.24a469.2 469.2 0 0 0 468.88-468.4v-4.32-76.72-0.88V51.04z" fill="#136BA2" p-id="109550"></path></svg>