<?xml version="1.0" standalone="no"?><!DOCTYPE svg PUBLIC "-//W3C//DTD SVG 1.1//EN" "http://www.w3.org/Graphics/SVG/1.1/DTD/svg11.dtd"><svg t="1588548200405" class="icon" viewBox="0 0 1024 1024" version="1.1" xmlns="http://www.w3.org/2000/svg" p-id="86219" xmlns:xlink="http://www.w3.org/1999/xlink" width="200" height="200"><defs><style type="text/css"></style></defs><path d="M291.292 93.446c23.48-38.293 69.108-60.964 113.736-58.535 64.821 3.048 122.594 61.06 120.832 126.738 2.333 56.963-38.96 111.735-94.494 124.785-0.524 21.004-0.143 41.96-0.333 62.964 35.34 6.43 65.06 27.815 90.73 51.82 17.194-9.955 33.578-21.29 51.582-29.863-4.192-25.29-6.906-52.058 2.715-76.586 12.669-40.245 47.437-73.109 88.587-82.968 46.152-13.669 98.352 3.906 129.548 39.865 37.722 43.008 41.103 111.544 7.002 157.696-23.195 31.815-61.345 52.629-100.829 53.581-35.863 1.096-70.727-14.67-96.35-39.293-18.338 9.383-35.246 21.385-54.059 29.958 9.907 34.388 11.765 71.442-0.238 105.639 18.718 9.335 35.769 23.147 55.534 29.72 14.67-9.716 27.72-22.243 44.866-27.863 49.771-21.575 111.687-4.667 145.503 37.198 41.96 47.866 38.245 127.452-7.81 171.413-44.247 46.865-124.548 50.104-172.795 7.62-38.674-31.768-53.962-86.873-40.388-134.596-18.528-8.86-35.245-21.052-53.772-29.958-23.671 26.147-55.201 45.056-89.684 52.676-0.142 20.814-0.333 41.675 0.048 62.488 44.056 11.097 80.158 47.294 91.16 91.35 7.382 30.91 4.667 64.917-11.288 92.827-23.814 44.627-75.443 72.442-125.833 67.06-62.964-5.144-116.164-63.012-114.497-126.404-1.382-58.678 43.389-111.354 99.256-125.5 0.524-20.766 0.858-41.531-0.286-62.25-39.293-5.524-75.395-28.386-98.923-60.058-32.482-43.675-42.103-104.21-21.623-155.077 18.099-52.2 66.346-92.017 120.88-100.638 0.524-20.48 0.428-41.007 0.095-61.487-31.863-9.764-61.535-29.053-79.3-57.725-26.767-40.246-25.958-96.351 0.428-136.597m86.16 10.954c-15.718 5.478-28.816 17.385-35.722 32.578-17.289 30.72 2.191 72.775 34.53 83.873 19.29 4.19 42.008 4.143 57.773-9.478 23.29-16.908 31.292-51.105 17.48-76.443-12.908-26.862-45.961-40.055-74.062-30.53m304.533 171.318c-33.816 8.525-55.248 47.961-41.96 80.872 12.24 37.96 64.964 51.343 94.97 26.29 23.004-16.907 29.196-51.056 16.336-76.013-12.764-24.434-42.484-38.198-69.346-31.149M368.307 417.03c-22.243 7.716-42.056 23.004-53.82 43.532-15.67 28.481-15.908 64.917-0.048 93.398 12.717 23.052 35.912 38.722 60.821 46.056 31.482 7.764 65.774-3.286 88.874-25.48 27.434-26.625 34.625-70.537 19.67-105.306-18.003-43.198-71.108-67.298-115.497-52.2m318.678 202.895c-16.813 1.714-30.958 12.86-40.912 25.862-18.718 28.529-9.193 71.156 21.527 87.111 34.34 21.385 84.588-3.096 89.35-43.15 8.811-39.58-30.482-78.491-69.965-69.823M374.403 794.433c-31.149 12.336-49.771 52.772-33.197 83.254 9.764 22.766 34.53 37.626 59.25 35.483 34.958-0.048 63.392-36.34 57.486-70.347-3.238-16.336-11.954-32.244-26.195-41.436-16.289-12.097-38.483-12.002-57.344-6.954z" fill="#010101" p-id="86220"></path></svg>