<?xml version="1.0" standalone="no"?><!DOCTYPE svg PUBLIC "-//W3C//DTD SVG 1.1//EN" "http://www.w3.org/Graphics/SVG/1.1/DTD/svg11.dtd"><svg t="1588549030980" class="icon" viewBox="0 0 1024 1024" version="1.1" xmlns="http://www.w3.org/2000/svg" p-id="99632" xmlns:xlink="http://www.w3.org/1999/xlink" width="200" height="200"><defs><style type="text/css"></style></defs><path d="M307.2 0h409.6A308.096 308.096 0 0 1 1024 307.2v409.6a308.096 308.096 0 0 1-307.2 307.2H307.2A308.096 308.096 0 0 1 0 716.8V307.2A308.096 308.096 0 0 1 307.2 0z" fill="#005CA6" p-id="99633"></path><path d="M494.08 437.76a55.744 55.744 0 0 1 20.48 12.8l209.92-145.92c0-5.12-2.56-10.24-2.56-15.36a58.88 58.88 0 1 1 58.88 58.88 54.72 54.72 0 0 1-46.08-23.04l-204.8 143.36a89.6 89.6 0 0 1 15.36 35.84l194.56 30.72a49.6 49.6 0 0 1 48.64-28.16 53.632 53.632 0 0 1 53.76 51.2 51.968 51.968 0 0 1-53.76 51.2 53.632 53.632 0 0 1-53.76-51.2l-186.88-30.72a103.488 103.488 0 0 1-43.52 76.8l76.8 97.28a62.848 62.848 0 0 1 38.4-12.8 58.88 58.88 0 1 1-58.88 58.88 75.776 75.776 0 0 1 5.12-25.6L486.4 616.96a81.344 81.344 0 0 1-35.84 5.12 114.048 114.048 0 0 1-74.24-30.72l-43.52 35.84a74.752 74.752 0 0 1 5.12 23.04 53.824 53.824 0 1 1-53.76-51.2 72.576 72.576 0 0 1 33.28 10.24l46.08-35.84a96 96 0 0 1-12.8-46.08 91.264 91.264 0 0 1 20.48-58.88L268.8 368.64a72.576 72.576 0 0 1-33.28 10.24 57.92 57.92 0 0 1-58.88-58.88 64.576 64.576 0 0 1 61.44-64 57.92 57.92 0 0 1 58.88 58.88 40.832 40.832 0 0 1-10.24 30.72l102.4 99.84a104.128 104.128 0 0 1 61.44-20.48 56.384 56.384 0 0 1 20.48 2.56l25.6-87.04a53.76 53.76 0 0 1-25.6-46.08 53.824 53.824 0 1 1 53.76 51.2h-5.12z" fill="#FFFFFF" p-id="99634"></path></svg>