<?xml version="1.0" standalone="no"?><!DOCTYPE svg PUBLIC "-//W3C//DTD SVG 1.1//EN" "http://www.w3.org/Graphics/SVG/1.1/DTD/svg11.dtd"><svg t="1585117394162" class="icon" viewBox="0 0 1024 1024" version="1.1" xmlns="http://www.w3.org/2000/svg" p-id="25118" xmlns:xlink="http://www.w3.org/1999/xlink" width="200" height="200"><defs><style type="text/css"></style></defs><path d="M289.30048 624.25088c53.53472 0 98.2016-40.1408 108.032-93.10208h296.59136v55.74656a20.48 20.48 0 1 0 40.96 0v-55.74656h58.71616v88.35072a20.48 20.48 0 1 0 40.96 0v-108.83072a20.48 20.48 0 0 0-20.48-20.48H397.76256c-8.72448-54.3744-53.9648-95.96928-108.46208-95.96928-60.70272 0-110.10048 51.58912-110.10048 114.9952s49.39776 115.03616 110.10048 115.03616z m0-189.05088c38.11328 0 69.14048 33.21856 69.14048 74.0352 0 40.83712-31.0272 74.05568-69.14048 74.05568s-69.14048-33.21856-69.14048-74.05568c0-40.81664 31.0272-74.0352 69.14048-74.0352z" p-id="25119" fill="#1296db"></path></svg>