<?xml version="1.0" standalone="no"?><!DOCTYPE svg PUBLIC "-//W3C//DTD SVG 1.1//EN" "http://www.w3.org/Graphics/SVG/1.1/DTD/svg11.dtd"><svg t="1585117250578" class="icon" viewBox="0 0 1024 1024" version="1.1" xmlns="http://www.w3.org/2000/svg" p-id="22367" xmlns:xlink="http://www.w3.org/1999/xlink" width="200" height="200"><defs><style type="text/css"></style></defs><path d="M566.6304 497.152c202.0352 26.88 354.9696 193.4336 354.9696 397.568 0 16.128-10.9056 26.88-27.2896 26.88H129.6896c-16.384 0-27.2896-10.752-27.2896-26.88 0-204.1344 152.9344-370.688 354.9696-397.568-98.304-26.88-174.7456-112.8448-174.7456-220.3136C282.624 153.2928 386.4064 51.2 512 51.2c125.5936 0 229.376 102.0928 229.376 225.6384 0 107.52-76.4416 198.8096-174.7456 220.3136zM258.048 842.3936v-154.0096h-36.5056V870.4h118.016v-28.0064H258.048zM353.1264 870.4h63.488c22.272 0 40.6016-7.0656 55.04-21.1968 14.3872-14.1312 21.6064-32.3584 21.6064-54.6816v-30.1056c0-22.272-7.168-40.448-21.6064-54.6816s-32.768-21.3504-55.04-21.3504h-63.488V870.4z m36.5056-153.856h26.9824c12.032 0 21.7088 4.4544 29.0304 13.312 7.3216 8.96 11.008 20.3776 11.008 34.304v30.3616c0 14.0288-3.6864 25.4976-11.008 34.4576a35.6352 35.6352 0 0 1-29.0304 13.4144H389.632v-125.8496z m214.4768 114.5856l12.3392 39.2704h38.144l-61.1328-182.016h-37.376L494.6944 870.4h38.144l12.288-39.2704h58.9824z m-50.0224-28.6208l20.2752-64.1024h0.7168l20.1216 64.1024h-41.1136z m143.872 1.8944h33.0752c20.9408 0 37.376-5.2736 49.408-15.872 11.9808-10.5984 17.9712-24.576 17.9712-41.984 0-17.408-5.9904-31.488-17.9712-42.1376-12.032-10.7008-28.4672-16.0256-49.408-16.0256h-69.632V870.4h36.5056v-66.048z m0-28.16v-59.6992h33.0752c10.24 0 17.9712 2.816 23.1936 8.5504a30.9248 30.9248 0 0 1 7.8336 21.6576 29.5424 29.5424 0 0 1-7.8848 21.1968c-5.2736 5.5808-12.9536 8.3456-23.1424 8.3456h-33.1264z" fill="#1296db" p-id="22368"></path></svg>