<?xml version="1.0" standalone="no"?><!DOCTYPE svg PUBLIC "-//W3C//DTD SVG 1.1//EN" "http://www.w3.org/Graphics/SVG/1.1/DTD/svg11.dtd"><svg t="1585118154134" class="icon" viewBox="0 0 1024 1024" version="1.1" xmlns="http://www.w3.org/2000/svg" p-id="35753" xmlns:xlink="http://www.w3.org/1999/xlink" width="200" height="200"><defs><style type="text/css"></style></defs><path d="M146.162688 662.038528l183.54688-87.602176a56.889344 56.889344 0 0 1 24.50432-5.547008h315.573248c8.47872 0 16.850944 1.8944 24.50432 5.547008l183.545856 87.602176a56.889344 56.889344 0 0 1 32.385024 51.341312v196.842496c0 31.418368-25.469952 56.88832-56.889344 56.88832H170.667008c-31.419392 0-56.889344-25.469952-56.889344-56.88832v-196.84352a56.889344 56.889344 0 0 1 32.385024-51.340288zM568.889344 768c0 15.709184 12.734464 28.444672 28.443648 28.444672h113.777664c15.710208 0 28.444672-12.735488 28.444672-28.444672s-12.734464-28.444672-28.444672-28.444672h-113.77664c-15.710208 0-28.444672 12.735488-28.444672 28.444672zM512 512c-125.67552 0-227.555328-101.879808-227.555328-227.555328S386.32448 56.889344 512 56.889344s227.555328 101.879808 227.555328 227.555328S637.67552 512 512 512z" fill="#1296db" p-id="35754"></path></svg>