<?xml version="1.0" standalone="no"?><!DOCTYPE svg PUBLIC "-//W3C//DTD SVG 1.1//EN" "http://www.w3.org/Graphics/SVG/1.1/DTD/svg11.dtd"><svg t="1588544712546" class="icon" viewBox="0 0 1024 1024" version="1.1" xmlns="http://www.w3.org/2000/svg" p-id="36643" xmlns:xlink="http://www.w3.org/1999/xlink" width="200" height="200"><defs><style type="text/css"></style></defs><path d="M512 512m-477.86666667 0a477.86666667 477.86666667 0 1 0 955.73333334 0 477.86666667 477.86666667 0 1 0-955.73333334 0Z" fill="#34D2DF" p-id="36644"></path><path d="M651.69386667 434.17386667c47.5616 0 86.25706667-38.69546667 86.25706666-86.25706667s-38.69546667-86.25706667-86.25706666-86.25706667-86.25493333 38.69546667-86.25493334 86.25706667c0 2.16746667 0.16746667 4.2912 0.32533334 6.4192l-35.57866667 22.88746667c-29.47946667-31.09013333-71.12-50.53973333-117.2448-50.53973334-89.1328 0-161.64906667 72.51626667-161.64906667 161.64906667s72.51626667 161.64906667 161.64906667 161.64906667c32.34346667 0 62.47253333-9.584 87.7696-26.00853334l37.92 44.76373334c-6.0768 11.99146667-9.57866667 25.49866667-9.57866667 39.8368 0 48.81386667 39.71093333 88.52266667 88.52266667 88.52266666s88.52266667-39.7088 88.52266667-88.52266666-39.71093333-88.52266667-88.52266667-88.52266667a88.064 88.064 0 0 0-34.5312 7.01866667l-38.34346667-45.26293334c18.7936-26.41386667 29.89226667-58.6624 29.89226667-93.4752 0-21.168-4.13226667-41.37813333-11.56373333-59.92426666l28.80213333-18.52693334c15.52746667 15.00586667 36.61653333 24.29333333 59.86346667 24.29333334zM412.9408 584.81813333c-53.20213333 0-96.48533333-43.28106667-96.48533333-96.48533333s43.2832-96.48533333 96.48533333-96.48533333c53.20426667 0 96.48746667 43.28106667 96.48746667 96.48533333s-43.2832 96.48533333-96.48746667 96.48533333z m232.33706667 123.75573334c0 15.2768-12.42773333 27.70346667-27.70346667 27.70346666-15.27466667 0-27.70346667-12.4256-27.70346667-27.70346666s12.42773333-27.70346667 27.70346667-27.70346667c15.27466667 0 27.70346667 12.42666667 27.70346667 27.70346667z m6.416-386.09493334c14.0256 0 25.43786667 11.41226667 25.43786666 25.43786667s-11.41226667 25.43786667-25.43786666 25.43786667-25.43573333-11.41226667-25.43573334-25.43786667 11.41013333-25.43786667 25.43573334-25.43786667z" fill="#FFFFFF" p-id="36645"></path></svg>