<?xml version="1.0" standalone="no"?><!DOCTYPE svg PUBLIC "-//W3C//DTD SVG 1.1//EN" "http://www.w3.org/Graphics/SVG/1.1/DTD/svg11.dtd"><svg t="1588994800669" class="icon" viewBox="0 0 1024 1024" version="1.1" xmlns="http://www.w3.org/2000/svg" p-id="9296" xmlns:xlink="http://www.w3.org/1999/xlink" width="200" height="200"><defs><style type="text/css"></style></defs><path d="M1008.0256 397.7216l-5.12-20.0704-20.0704-5.12c-40.1408-10.0352-75.3664-35.2256-95.4368-75.3664-20.0704-40.3456-25.1904-80.4864-15.1552-120.832l5.12-20.0704-15.1552-15.1552c-15.1552-10.0352-30.1056-25.1904-45.2608-35.2256l-75.3664-45.2608c-10.0352-5.12-25.1904-15.1552-40.1408-20.0704l-45.2608-15.1552-15.1552-5.12-5.12 15.1552c-30.1056 30.1056-70.4512 45.2608-115.5072 45.2608-45.2608 0-85.4016-15.1552-115.5072-45.2608l-15.1552-15.1552-15.1552 5.12c-10.0352 5.12-25.1904 10.0352-40.1408 15.1552h-5.12c-15.1552 5.12-30.1056 15.1552-45.2608 20.0704-25.1904 10.0352-50.176 25.1904-75.3664 45.2608C193.9456 121.0368 178.7904 131.072 168.7552 141.312L153.6 156.2624l5.12 20.0704c10.0352 35.2256 5.12 80.4864-20.0704 115.712-20.0704 40.3456-55.296 65.3312-95.4368 75.3664l-20.0704 5.12-5.12 20.0704c-5.12 20.0704-10.0352 35.2256-10.0352 55.296v120.832c0 15.1552 5.12 35.2256 10.0352 55.296l5.12 20.0704 20.0704 5.12c40.1408 10.0352 75.3664 35.2256 95.4368 75.3664 25.1904 35.2256 30.1056 80.4864 20.0704 115.712l-5.12 20.0704 15.1552 15.1552c15.1552 10.0352 30.1056 25.1904 45.2608 35.2256l75.3664 45.2608c10.0352 5.12 25.1904 15.1552 40.1408 20.0704h5.12c15.1552 5.12 25.1904 10.0352 40.1408 15.1552l15.1552 5.12 5.12-15.1552c30.1056-30.1056 70.4512-45.2608 115.5072-45.2608 45.2608 0 85.4016 15.1552 115.5072 45.2608l15.1552 15.1552 15.1552 5.12c10.0352-5.12 25.1904-10.0352 40.1408-15.1552h5.12c15.1552-5.12 25.1904-15.1552 40.1408-20.0704 25.1904-10.0352 50.176-25.1904 75.3664-45.2608 15.1552-10.0352 30.1056-20.0704 45.2608-35.2256l15.1552-15.1552-5.12-20.0704c-15.1552-40.3456-5.12-80.4864 15.1552-120.832 20.0704-40.1408 55.296-65.3312 95.4368-75.3664l20.0704-5.12 5.12-20.0704c5.12-20.0704 10.0352-35.2256 10.0352-55.296v-120.832c-0.2048-14.9504-5.12-35.0208-10.24-55.296z m-55.296 85.6064v90.5216c0 10.0352-5.12 20.0704-5.12 30.1056-45.2608 15.1552-90.5216 50.3808-115.5072 95.6416-25.1904 45.2608-35.2256 95.6416-25.1904 145.8176-5.12 5.12-15.1552 15.1552-25.1904 20.0704-20.0704 15.1552-40.1408 30.1056-65.3312 40.1408-10.0352 5.12-20.0704 10.0352-35.2256 15.1552h-5.12c-5.12 0-15.1552 5.12-20.0704 5.12-35.2256-30.1056-85.4016-50.3808-140.6976-50.3808-50.176 0-100.5568 20.0704-140.6976 50.3808-5.12 0-15.1552 0-20.0704-5.12h-5.12c-10.0352-5.12-25.1904-10.0352-35.2256-20.0704-25.1904-10.0352-50.176-25.1904-70.4512-40.3456-5.12-5.12-15.1552-15.1552-25.1904-20.0704 10.0352-45.2608 0-100.5568-25.1904-145.8176S122.88 613.9904 77.824 598.8352c0-15.1552-5.12-25.1904-5.12-35.2256v-110.592c0-10.0352 5.12-20.0704 5.12-30.1056 45.2608-20.0704 85.4016-50.3808 115.5072-100.5568 25.1904-45.2608 35.2256-95.6416 25.1904-145.8176 10.0352-5.12 20.0704-15.1552 25.1904-20.0704 25.1904-15.1552 45.2608-30.1056 70.4512-40.3456 10.0352-10.0352 25.1904-15.1552 35.2256-20.0704h5.12c5.12 0 15.1552-5.12 20.0704-5.12C410.0096 121.0368 460.1856 141.312 515.4816 141.312c50.176 0 100.5568-20.0704 140.6976-50.3808 5.12 0 15.1552 0 20.0704 5.12h5.12c10.0352 5.12 25.1904 10.0352 30.1056 20.0704 25.1904 10.0352 50.176 25.1904 70.4512 40.3456 10.0352 5.12 20.0704 15.1552 30.1056 25.1904-10.0352 45.2608 0 100.5568 25.1904 145.8176s70.4512 80.4864 115.5072 95.6416c0 10.0352 5.12 20.0704 5.12 30.1056 0 4.9152 0 10.0352-5.12 30.1056z m-258.2528 132.096l-113.0496-113.0496-62.464 62.2592 112.64 112.64 9.216 8.6016c6.3488 4.5056 13.9264 7.5776 22.3232 8.192 11.8784 0.8192 23.552-2.8672 32.3584-10.4448 9.0112-7.5776 14.5408-18.432 15.36-30.3104 0.8192-10.24-2.048-20.2752-7.9872-28.672l-8.3968-9.216z m-120.6272-182.6816l-3.072-3.072 29.9008-29.0816c4.9152-4.9152 5.12-12.9024 0.2048-17.8176l-50.176-51.2c-4.9152-4.9152-12.9024-5.12-18.0224-0.2048l-30.5152 29.696-4.096-4.096c-10.0352-10.0352-26.4192-10.0352-36.6592-0.2048L385.024 432.128c-9.8304 9.8304-10.0352 25.3952-0.6144 35.4304-38.912 41.5744-49.7664 116.5312-30.3104 157.2864l95.232-92.3648 11.6736 11.6736c10.0352 10.0352 26.4192 10.0352 36.4544 0l76.3904-75.3664c10.0352-9.6256 10.0352-26.0096 0-36.0448z" fill="#F15A4A" p-id="9297"></path></svg>