<?xml version="1.0" standalone="no"?><!DOCTYPE svg PUBLIC "-//W3C//DTD SVG 1.1//EN" "http://www.w3.org/Graphics/SVG/1.1/DTD/svg11.dtd"><svg t="1593757609739" class="icon" viewBox="0 0 1024 1024" version="1.1" xmlns="http://www.w3.org/2000/svg" p-id="2125" width="200" height="200" xmlns:xlink="http://www.w3.org/1999/xlink"><defs><style type="text/css"></style></defs><path d="M705.422222 642.844444H483.555556c-11.377778 0-28.444444 0-39.822223-5.688888-39.822222-11.377778-56.888889-39.822222-56.888889-79.644445 0-34.133333 28.444444-62.577778 68.266667-68.266667 17.066667 0 34.133333-5.688889 45.511111-5.688888H950.044444c0 5.688889-5.688889 11.377778-5.688888 11.377777L739.555556 870.4c-5.688889 11.377778-11.377778 17.066667-28.444445 17.066667H301.511111c-17.066667 0-22.755556-5.688889-28.444444-17.066667-68.266667-119.466667-130.844444-238.933333-199.111111-358.4-5.688889 0-5.688889-11.377778 0-17.066667 62.577778-113.777778 125.155556-233.244444 187.733333-347.022222 5.688889-11.377778 11.377778-17.066667 22.755555-17.066667h432.355556c11.377778 0 17.066667 0 22.755556 11.377778 56.888889 85.333333 108.088889 170.666667 159.288888 256 0 5.688889 5.688889 5.688889 5.688889 11.377778l-5.688889 5.688889H739.555556c-5.688889 0-11.377778-5.688889-17.066667-11.377778-22.755556-34.133333-45.511111-68.266667-62.577778-102.4-5.688889-11.377778-17.066667-17.066667-28.444444-17.066667H392.533333c-11.377778-5.688889-17.066667 0-22.755555 11.377778-39.822222 68.266667-73.955556 136.533333-113.777778 210.488889-5.688889 5.688889-5.688889 11.377778 0 22.755556 39.822222 73.955556 79.644444 147.911111 119.466667 216.177777 5.688889 11.377778 11.377778 17.066667 28.444444 17.066667h210.488889c11.377778 0 22.755556-5.688889 28.444444-17.066667 17.066667-34.133333 39.822222-62.577778 56.888889-91.022222 0 0 5.688889-5.688889 5.688889-11.377778z" fill="#31C5B3" p-id="2126"></path></svg>