<?xml version="1.0" standalone="no"?><!DOCTYPE svg PUBLIC "-//W3C//DTD SVG 1.1//EN" "http://www.w3.org/Graphics/SVG/1.1/DTD/svg11.dtd"><svg t="1585119012651" class="icon" viewBox="0 0 1024 1024" version="1.1" xmlns="http://www.w3.org/2000/svg" p-id="53215" xmlns:xlink="http://www.w3.org/1999/xlink" width="200" height="200"><defs><style type="text/css"></style></defs><path d="M806.741333 337.152l-33.664 33.706667a92.074667 92.074667 0 1 1-130.133333-130.346667l33.664-33.706667c18.56-18.645333 6.144-40.576-27.306667-35.370666a167.936 167.936 0 0 0-101.632 56.576c-33.194667 32.597333-48.384 91.093333-37.077333 145.152L228.266667 655.914667a92.330667 92.330667 0 0 0 0 130.304c35.84 35.925333 94.293333 35.925333 130.133333 0l282.325333-282.837334a168.448 168.448 0 0 0 154.026667-45.653333 167.637333 167.637333 0 0 0 48.682667-105.344c3.754667-21.333333-18.133333-33.834667-36.693334-15.232z m-496.725333 424.106667a40.106667 40.106667 0 1 1-28.416-68.565334c11.093333 0 21.205333 4.522667 28.416 11.818667a39.509333 39.509333 0 0 1 11.818667 28.373333 39.594667 39.594667 0 0 1-11.818667 28.373334z m65.92-285.354667l44.202667-41.728-112.597334-114.474667-23.04-51.328L214.613333 224.426667 170.666667 279.04l43.946666 71.125333 51.029334 18.346667 110.293333 107.392z m244.352 101.12a16.298667 16.298667 0 0 0-23.210667 0l-69.632 69.632a16.298667 16.298667 0 0 0 0 23.210667l164.224 164.266666a65.664 65.664 0 0 0 92.8-92.842666l-164.181333-164.266667z" p-id="53216" fill="#1296db"></path></svg>