<?xml version="1.0" standalone="no"?><!DOCTYPE svg PUBLIC "-//W3C//DTD SVG 1.1//EN" "http://www.w3.org/Graphics/SVG/1.1/DTD/svg11.dtd"><svg t="1585185755684" class="icon" viewBox="0 0 1024 1024" version="1.1" xmlns="http://www.w3.org/2000/svg" p-id="57010" xmlns:xlink="http://www.w3.org/1999/xlink" width="200" height="200"><defs><style type="text/css"></style></defs><path d="M357.853867 197.358933v-41.130666l152.3712-89.787734 148.599466 89.787734v41.130666l-111.445333 67.362134-3.754667 41.1648-33.399466-22.442667-37.188267 22.408533v-41.130666l-115.182933-67.362134z m349.303466 202.052267l-115.2-67.362133v-41.130667l148.616534-86.050133 152.354133 86.050133v175.8208l-152.354133 86.0672-33.416534-18.705067v-134.690133zM357.853867 698.709333l33.450666-22.442666 115.2 67.328 118.8864-67.328 33.450667 18.722133v175.803733l-152.354133 89.8048-148.599467-89.8048-0.034133-172.0832z m349.303466-29.934933l-37.188266-22.4256 37.188266-18.722133v-41.1648l33.416534 22.442666 115.2-67.328 37.154133 18.722134v175.8208l-152.354133 86.033066-33.416534-18.688v-134.690133zM120.046933 736.119467l3.7376-175.8208 33.450667-18.722134 115.165867 67.328 37.154133-22.408533v41.130667l37.1712 22.442666-37.1712 18.722134v134.673066l-37.154133 18.688-152.354134-86.033066z m0-269.380267l3.7376-175.8208 152.354134-86.050133 148.599466 86.050133v41.130667l-115.2 67.362133v130.935467l-37.137066 22.459733-152.354134-86.0672z" fill="#BFE9FC" p-id="57011"></path><path d="M357.853867 425.608533l152.3712-86.050133 148.599466 86.050133V601.429333l-152.337066 86.050134-148.599467-86.050134z" fill="#74B2EE" p-id="57012"></path></svg>