<?xml version="1.0" standalone="no"?><!DOCTYPE svg PUBLIC "-//W3C//DTD SVG 1.1//EN" "http://www.w3.org/Graphics/SVG/1.1/DTD/svg11.dtd"><svg t="1588545613978" class="icon" viewBox="0 0 1025 1024" version="1.1" xmlns="http://www.w3.org/2000/svg" p-id="48581" xmlns:xlink="http://www.w3.org/1999/xlink" width="200.1953125" height="200"><defs><style type="text/css"></style></defs><path d="M455.68 151.394c40.212-57.068 119.217-71.68 176.246-31.468 57.068 40.92 71.01 119.848 30.76 176.995-39.543 57.777-80.463 16.856-138.32-23.355-57.068-40.33-108.976-64.473-68.686-122.172zM70.262 824.241l-12.445 5.08 1.536-13.863L312.32 449.733l15.4 13.863L70.261 824.241z m408.812-273.644c10.989-14.533 22.686-28.396 35.84-42.3 32.217-31.546 69.475-57.067 110.396-74.003 43.165-18.235 89.245-27.687 136.073-27.687h13.864c22.016-54.784 27.923-120.675 16.935-184.28C766.582 76.051 627.554-21.938 481.32 4.371c-145.605 25.6-268.406 138.28-242.924 284.475 5.908 31.468 21.228 80.463 39.542 116.303L13.194 784.108C3.663 797.972-2.126 823.493 0.748 840.35l11.776 65.063c-2.993-16.778-4.371-23.316-4.371-23.316 0.709 0 9.452 45.214 16.069 45.214l87 1.536c16.857-2.915 38.085-16.778 46.828-31.547l104.488-162.304 1.536-1.536 91.372 7.404 122.171-190.267h1.457zM839.68 788.322c-21.307 49.861-79.006 73.138-129.457 52.776-50.53-21.228-73.925-79.006-52.697-128.788 20.48-50.452 79.006-73.846 128.71-52.696 50.45 21.307 74.594 78.296 53.444 128.708z m111.852-68.017L1024 675.092l-27.097-65.142-82.707 19.692c-11.698-16.778-26.31-30.68-43.087-43.166l18.983-82.55-65.93-27.136-44.544 71.01c-20.48-2.914-40.999-2.914-60.691 0l-44.702-71.68-65.772 26.31 18.314 82.707c-16.857 11.697-31.547 26.23-43.914 42.378l-81.92-18.983-27.766 65.063 70.931 45.371c-2.835 20.401-2.835 41 0 60.692l-71.68 44.623 27.097 65.063 82.708-18.235c11.697 16.069 26.309 30.68 43.087 43.087l-19.693 81.998 65.773 27.018 46.158-71.01c20.48 2.993 40.92 2.993 60.692 0l45.292 71.759 65.851-27.097-18.983-82.708c16.069-11.697 30.011-25.52 42.457-42.378l83.298 18.984L1024 825.698l-72.468-44.622c2.915-20.44 2.915-40.212 0-60.77z" fill="#7586DB" p-id="48582"></path></svg>