<?xml version="1.0" standalone="no"?><!DOCTYPE svg PUBLIC "-//W3C//DTD SVG 1.1//EN" "http://www.w3.org/Graphics/SVG/1.1/DTD/svg11.dtd"><svg t="1588994425490" class="icon" viewBox="0 0 1024 1024" version="1.1" xmlns="http://www.w3.org/2000/svg" p-id="1194" xmlns:xlink="http://www.w3.org/1999/xlink" width="200" height="200"><defs><style type="text/css"></style></defs><path d="M0.120131 886.569686V137.430314a171.54763 171.54763 0 0 0 6.727358-16.578132C27.750352 50.455185 89.978414 0.720788 163.018301 0.480526q348.621305-0.961051 697.002347 0c89.858282 0.240263 162.657907 73.760676 162.898169 163.618958q1.201314 347.660253 0 695.320507c-0.240263 90.098545-73.28015 163.378695-162.898169 163.618958q-348.621305 1.441577-697.002347 0c-73.039887-0.240263-135.267949-49.734397-156.170812-120.371657A171.54763 171.54763 0 0 0 0.120131 886.569686z m518.967621-118.449555c52.137025-0.961051 101.150634-16.578132 146.800563-43.007039 89.377757-51.656499 158.092914-125.417175 217.918349-208.548099 5.766307-8.168935 4.564993-13.694979-0.720789-21.143125-51.656499-72.319099-111.241671-137.190052-185.002346-187.645237-113.404036-77.845143-228.489911-84.572501-346.218677-9.370249-80.968559 51.896762-144.878461 120.611919-200.379165 197.976537-5.766307 8.168935-4.564993 13.694979 0.720789 21.143125 51.416237 72.319099 111.001408 137.190052 184.762083 187.645237 54.539653 37.000469 113.644298 62.228062 181.87893 62.708588z" fill="#F7AC37" p-id="1195"></path><path d="M704.810887 516.084467a214.074144 214.074144 0 0 1-65.832004 150.164243c-68.95542 66.793055-172.748944 67.27358-242.18489 0.961051-84.091976-80.247771-89.377757-222.963867-11.772876-309.458471 89.137494-99.228531 237.379634-75.202252 297.205068 48.292821 15.136556 31.474425 22.584702 65.111215 22.584702 110.040356z m-122.774284-145.118723c-51.416237-32.675739-113.404036-26.428907-157.131863 14.65603-67.754106 63.429376-67.754106 178.755514 0.480525 242.18489 38.922572 36.279681 93.702487 45.409667 141.034256 24.026278s85.533552-78.806194 84.091976-129.501642h-161.937119z m-19.221023 110.280619h112.202721c-1.201314-41.325199-15.136556-74.96199-48.29282-102.59221z" fill="#F7AD3A" p-id="1196"></path></svg>