<?xml version="1.0" standalone="no"?><!DOCTYPE svg PUBLIC "-//W3C//DTD SVG 1.1//EN" "http://www.w3.org/Graphics/SVG/1.1/DTD/svg11.dtd"><svg t="1585117351213" class="icon" viewBox="0 0 1024 1024" version="1.1" xmlns="http://www.w3.org/2000/svg" p-id="23748" xmlns:xlink="http://www.w3.org/1999/xlink" width="200" height="200"><defs><style type="text/css"></style></defs><path d="M512 512m-512 0a512 512 0 1 0 1024 0 512 512 0 1 0-1024 0Z" fill="#F0EFF4" p-id="23749"></path><path d="M512 512m-417.476923 0a417.476923 417.476923 0 1 0 834.953846 0 417.476923 417.476923 0 1 0-834.953846 0Z" fill="#7DA4FA" p-id="23750"></path><path d="M606.869662 431.356062H402.416246a14.603815 14.603815 0 0 1 0-29.207631h204.453416a14.603815 14.603815 0 0 1 0 29.207631z m-86.961231 88.284553h-116.846277a14.603815 14.603815 0 1 1 0-29.20763h116.830523a14.603815 14.603815 0 1 1 0 29.20763z m-59.392 86.929723h-58.415262a14.603815 14.603815 0 1 1 0-29.20763h58.415262a14.603815 14.603815 0 1 1 0 29.20763z" fill="#FFFFFF" p-id="23751"></path><path d="M665.568492 315.1872H344.284554c-16.131938 0-29.207631 13.075692-29.207631 29.207631V694.902154c0 16.116185 13.075692 29.207631 29.207631 29.207631h86.535877a14.603815 14.603815 0 1 0 0-29.207631h-86.535877V344.379077h321.283938v102.242461a14.603815 14.603815 0 1 0 29.223385 0v-102.242461c0-16.131938-13.075692-29.207631-29.223385-29.207631zM474.631877 705.142154v8.759138a6.333046 6.333046 0 0 0 2.048-4.379569 6.333046 6.333046 0 0 0-2.048-4.379569z" fill="#FFFFFF" p-id="23752"></path><path d="M608.933415 505.856l-136.176246 136.192-4.757661 70.214892a10.0352 10.0352 0 0 0 10.696861 10.696862l70.214893-4.757662 136.192-136.192a29.207631 29.207631 0 0 0 0-41.306584l-34.863262-34.847508a29.207631 29.207631 0 0 0-41.306585 0z m-72.924553 183.941908l-37.383877 2.520615 2.520615-37.368123 128.441108-128.441108 34.863261 34.847508-128.441107 128.441108z" fill="#FFFFFF" p-id="23753"></path></svg>