<?xml version="1.0" standalone="no"?><!DOCTYPE svg PUBLIC "-//W3C//DTD SVG 1.1//EN" "http://www.w3.org/Graphics/SVG/1.1/DTD/svg11.dtd"><svg t="1588546974016" class="icon" viewBox="0 0 1024 1024" version="1.1" xmlns="http://www.w3.org/2000/svg" p-id="69636" xmlns:xlink="http://www.w3.org/1999/xlink" width="200" height="200"><defs><style type="text/css"></style></defs><path d="M192 709.824V474.24c10.24 7.872 40.96 14.272 92.288 19.392 76.928 7.552 352.896 45.696 437.568 70.976 56.448 16.832 93.184 37.12 110.144 60.928v236.928c-25.28-28.032-62.016-49.28-110.08-63.68-72.256-21.632-380.928-61.952-437.632-69.952A609.28 609.28 0 0 1 192 709.824zM192 390.912V155.264c10.24 7.808 40.96 14.272 92.288 19.328 76.928 7.616 352.896 45.76 437.568 71.04 56.448 16.832 93.184 37.12 110.144 60.928v236.928c-25.28-28.032-62.016-49.28-110.08-63.68-72.256-21.632-380.928-61.952-437.632-69.952A609.28 609.28 0 0 1 192 390.912z" fill="#89001C" p-id="69637"></path><path d="M192 471.552v235.648c10.112-7.872 40.704-14.272 91.712-19.392 76.48-7.552 350.656-45.696 434.816-70.976 56.128-16.832 93.952-37.12 113.472-60.928V318.976c-27.84 28.032-65.6 49.28-113.472 63.68-71.68 21.632-378.496 61.952-434.816 69.952A602.112 602.112 0 0 0 192 471.552z m0 314.752v235.648c10.112-7.872 40.704-14.272 91.712-19.392 76.48-7.552 350.656-45.696 434.816-70.976 56.128-16.832 93.952-37.12 113.472-60.928V633.728c-27.84 28.032-65.6 49.28-113.472 63.68-71.68 21.632-378.496 61.952-434.816 69.952A602.112 602.112 0 0 0 192 786.304z m0-633.728v235.648c10.112-7.808 40.704-14.272 91.712-19.328 76.48-7.616 350.656-45.76 434.816-71.04 56.128-16.832 93.952-37.12 113.472-60.928V0c-27.84 28.032-65.6 49.28-113.472 63.68-71.68 21.632-378.496 61.952-434.816 69.952A602.112 602.112 0 0 0 192 152.576z" fill="#EF2938" p-id="69638"></path></svg>