<?xml version="1.0" standalone="no"?><!DOCTYPE svg PUBLIC "-//W3C//DTD SVG 1.1//EN" "http://www.w3.org/Graphics/SVG/1.1/DTD/svg11.dtd"><svg t="1585118815849" class="icon" viewBox="0 0 1024 1024" version="1.1" xmlns="http://www.w3.org/2000/svg" p-id="51570" xmlns:xlink="http://www.w3.org/1999/xlink" width="200" height="200"><defs><style type="text/css"></style></defs><path d="M597.333333 853.333333a85.333333 85.333333 0 0 0 85.333334-85.333333V213.333333H384a42.666667 42.666667 0 0 0-42.666667 42.666667v426.666667H213.333333V213.333333a128 128 0 0 1 128-128h469.333334a128 128 0 0 1 128 128v42.666667h-170.666667v554.666667a128 128 0 0 1-128 128H213.333333a128 128 0 0 1-128-128v-42.666667h426.666667a85.333333 85.333333 0 0 0 85.333333 85.333333z" fill="#1296db" p-id="51571"></path></svg>