<?xml version="1.0" standalone="no"?><!DOCTYPE svg PUBLIC "-//W3C//DTD SVG 1.1//EN" "http://www.w3.org/Graphics/SVG/1.1/DTD/svg11.dtd"><svg t="1588545472442" class="icon" viewBox="0 0 1024 1024" version="1.1" xmlns="http://www.w3.org/2000/svg" p-id="46061" xmlns:xlink="http://www.w3.org/1999/xlink" width="200" height="200"><defs><style type="text/css"></style></defs><path d="M102.4 51.2a51.2 51.2 0 0 0-51.2 51.2v819.2a51.2 51.2 0 0 0 51.2 51.2h819.2a51.2 51.2 0 0 0 51.2-51.2V102.4a51.2 51.2 0 0 0-51.2-51.2H102.4z m0-51.2h819.2a102.4 102.4 0 0 1 102.4 102.4v819.2a102.4 102.4 0 0 1-102.4 102.4H102.4a102.4 102.4 0 0 1-102.4-102.4V102.4a102.4 102.4 0 0 1 102.4-102.4z m369.664 398.0288l-42.8544 37.3248c-14.2848-17.0496-32.256-23.9616-58.0608-23.9616-38.2464 0-60.8256 25.8048-60.8256 49.7664 0 20.736 16.5888 27.648 35.0208 32.256l27.1872 6.4512c54.3744 13.3632 74.1888 38.7072 74.1888 85.248 0 73.728-62.208 106.9056-131.328 106.9056-51.6096 0-82.944-12.4416-110.592-45.1584l44.2368-38.7072c17.5104 20.736 40.5504 29.952 71.8848 29.952 36.4032 0 64.9728-20.736 64.9728-47.4624 0-23.5008-13.824-31.3344-34.56-36.4032l-27.1872-6.912c-53.9136-13.3632-74.6496-44.2368-74.6496-77.8752C249.4976 406.784 297.8816 358.4 378.0608 358.4c38.2464 0 72.3456 12.9024 94.0032 39.6288z m299.52-36.864l-65.8944 328.0896h-60.8256l28.1088-139.1616h-105.5232l-28.1088 139.1616H478.5152l65.8944-328.0896h60.8256L578.5088 496.64h105.5232l26.7264-135.4752h60.8256z" fill="#178BF6" p-id="46062"></path></svg>