<?xml version="1.0" standalone="no"?><!DOCTYPE svg PUBLIC "-//W3C//DTD SVG 1.1//EN" "http://www.w3.org/Graphics/SVG/1.1/DTD/svg11.dtd"><svg t="1588548257711" class="icon" viewBox="0 0 2056 1024" version="1.1" xmlns="http://www.w3.org/2000/svg" p-id="88106" xmlns:xlink="http://www.w3.org/1999/xlink" width="401.5625" height="200"><defs><style type="text/css"></style></defs><path d="M1629.186615 481.156606c-1.252454-2.686184-1.812762-4.021035-2.504908-5.322928-18.160578-34.524874-36.271717-69.066228-54.597092-103.492223-1.845721-3.460727-1.615006-5.537164 0.906381-8.487022 28.888832-33.733851 57.612868-67.616018 86.386344-101.465226a9.113248 9.113248 0 0 0 2.307151-4.564864c-8.404623 2.208274-16.825726 4.367108-25.213869 6.591861-34.920386 9.261565-69.824292 18.473692-104.678759 27.850615-3.262971 0.873422-4.729661-0.082398-6.344667-2.768582-19.825023-33.107624-39.748924-66.132849-59.656345-99.191034a13.529795 13.529795 0 0 0-4.334149-4.812059c-1.598526 8.816615-3.230012 17.633229-4.7791 26.449844l-16.61149 93.439635c-0.609747 3.361849-1.43373 6.707219-1.713884 10.102027-0.280154 3.213532-1.928119 4.400067-4.845018 5.322928-41.133215 12.903569-82.216991 25.938975-123.300767 38.974381a13.645153 13.645153 0 0 0-5.504205 3.065215l101.349869 40.276273c-1.235974 0.988779-2.043477 1.746843-2.949858 2.340111-21.011558 13.595714-42.056076 27.141989-63.034674 40.803622-2.504907 1.647965-4.498945 1.87868-7.316967 0.609747-25.098512-11.305042-50.295902-22.412329-75.427373-33.618493-11.288563-5.042774-21.440029-11.749993-29.350263-21.423549-17.880424-21.85202-14.337298-46.736297 9.475801-61.930538a112.391237 112.391237 0 0 1 25.461064-11.585196c40.276273-13.117804 80.717343-25.774178 121.125453-38.463511 3.394809-1.071177 4.960376-2.587306 5.603082-6.262269a12619.12983 12619.12983 0 0 1 16.578532-93.439635c2.999297-16.64445 4.614303-33.733851 12.705812-48.97753 3.114655-5.866757 6.839056-11.618156 11.272083-16.529092 16.034703-17.798026 38.430552-18.490171 55.404595-1.532608 5.71844 5.71844 10.645856 12.475098 14.897607 19.413032 18.687927 30.4544 37.07922 61.139514 55.355156 91.841108 2.158835 3.625524 4.119913 4.367108 8.107989 3.295931 45.071852-12.079586 90.176664-23.977896 135.297955-35.892685 9.294525-2.471948 18.704407-3.361849 28.262606-1.582047 20.797323 3.905678 29.877612 19.726145 22.840799 39.814843-3.197053 9.146208-8.734216 16.875165-14.930566 24.175652-31.476138 37.013302-62.902837 74.076042-94.494332 111.006945-2.570826 3.015777-2.636745 5.191091-0.840463 8.56942 18.836244 35.513653 37.507691 71.109705 56.261537 106.672797 4.482466 8.519981 7.910234 17.353075 8.009112 27.125509 0.230715 22.231052-16.034703 40.42459-38.133918 43.671082-12.35974 1.812762-23.862538-0.823983-35.464215-4.416547a11576.033685 11576.033685 0 0 0-84.870215-25.840097c-2.636745-0.791023-3.625524-1.812762-4.103434-4.630782-3.262971-19.940381-6.806097-39.831322-10.250344-59.722265-0.098878-0.560308 0.065919-1.153576 0.164797-2.35659l97.47715 26.894794" fill="#E25A1C" p-id="88107"></path><path d="M1574.095133 771.429222c-25.494024-0.049439-50.971568-0.164797-76.465592-0.049439-3.34537 0-5.273489-0.988779-7.13569-3.839759-30.157766-45.961753-60.480328-91.824629-90.753451-137.703984-0.9723-1.45021-1.994038-2.86746-3.707922-5.322928l-19.281195 146.586517h-66.742596c0.791023-6.509463 1.483169-12.788211 2.307151-19.050479 6.509463-49.768553 13.035406-99.520627 19.577829-149.272701 6.262268-47.527321 12.475098-95.0876 18.819764-142.598441a6.16339 6.16339 0 0 1 2.290672-3.955117c22.956157-14.996485 45.994713-29.828173 69.049748-44.676341 0.329593-0.230715 0.791023-0.247195 1.977558-0.593267l-20.797323 158.649623 0.823983 0.560309 109.227143-121.076014 2.900419 16.710368c2.587306 15.111842 5.075733 30.240164 7.844315 45.319047 0.560308 3.032256-0.247195 4.927416-2.274192 7.036812-23.368149 24.472285-46.670379 49.010489-69.972609 73.548694-1.021739 1.071177-1.994038 2.175314-3.147613 3.460727 0.741584 1.170055 1.367811 2.307151 2.125875 3.378329l120.647543 169.26252c0.725105 1.021739 1.779803 1.812762 2.686183 2.735623zM783.055288 624.743827c-1.021739-5.20757-1.746843-12.85413-4.053995-19.97334-11.173205-34.491915-46.555021-53.394077-83.172811-44.874096-40.177395 9.343964-68.884951 40.935459-73.037824 81.920357-3.081695 30.322562 13.249641 59.540988 43.605163 70.499957 24.455806 8.849574 48.00523 5.141652 69.873731-7.959672 28.98771-17.386034 44.7093-43.209651 46.802216-79.629686zM606.657078 752.889612c-1.977558 14.831688-3.872719 28.822914-5.71844 42.81414a10293.75185 10293.75185 0 0 0-7.218088 55.800106c-0.280154 2.175314-0.93934 3.131134-3.262972 3.114655-18.341854-0.082398-36.667229-0.065919-54.992603-0.082398-0.428471 0-0.840462-0.230715-1.829242-0.51087 1.104137-8.783655 2.175314-17.58379 3.32889-26.383925 4.053995-30.849911 8.07503-61.699823 12.194944-92.549734 4.680222-35.266458 8.404623-70.697713 14.419697-105.733456 10.645856-62.045895 63.281869-115.522371 125.04761-128.821451 35.810287-7.745437 70.071486-4.152873 101.349869 15.985264 31.163025 20.105177 49.043449 49.274164 53.130402 85.941392 5.767879 51.861469-13.33204 94.922804-50.164065 130.518856-24.175652 23.401108-53.130403 38.249276-86.51818 43.27557-34.393037 5.191091-66.742596-0.543829-95.746787-20.830282-1.071177-0.741584-2.208274-1.384291-4.021035-2.537867M576.762986 458.068612l-60.282572 44.874096c-3.213532-5.059254-6.080992-10.102028-9.442841-14.798728-8.635338-12.063106-19.363593-21.077477-34.953345-22.165134-12.969487-0.922861-24.060294 3.361849-32.909868 12.920048-7.893754 8.56942-8.931972 20.714924-1.549088 30.388481a434.799177 434.799177 0 0 0 26.103771 30.569757c15.062403 16.314857 30.783993 32.003487 45.747518 48.417222 13.612194 14.914086 24.455806 31.673894 27.801176 52.075705 3.988076 24.25805-0.856942 47.379004-12.326781 68.687195-21.242273 39.46877-54.67949 62.359009-98.828482 69.527658-19.51191 3.164093-38.957901 2.521387-57.975421-3.081695-25.246829-7.415844-42.830619-23.977896-54.135661-47.346044-3.988076-8.256306-7.036812-16.974043-10.662336-25.823617l65.358306-34.986305c0.774544 1.812762 1.301893 3.32889 2.010517 4.746141 3.707922 7.415844 6.756658 15.326078 11.370961 22.181613 13.628673 20.269974 35.67845 26.466323 58.04134 16.430215 5.734919-2.587306 11.272083-6.212829 15.985263-10.382182 14.419697-12.804691 17.10588-30.602716 6.443545-46.703338-6.130431-9.245086-13.79347-17.534351-21.258753-25.823617-17.830985-19.808543-36.387075-38.97438-53.806068-59.145476-12.013667-13.892348-20.171096-30.108327-22.741922-48.713856a83.535363 83.535363 0 0 1 11.815911-56.607609c26.285047-42.517506 64.484884-64.64968 115.027981-62.820439 28.806434 1.038218 51.746112 14.502095 69.544138 36.897944 5.273489 6.624821 10.217385 13.513316 15.622711 20.681965M1064.923281 686.39421c-3.361849 25.625861-6.525943 49.966309-9.805394 74.290278-0.164797 1.235974-1.137096 2.916899-2.191794 3.411288-49.735594 23.038556-115.242217 19.808543-156.095277-26.581681-21.934419-24.917236-31.146545-54.498214-29.778734-87.408081 3.180573-76.185438 66.347085-142.697319 141.889816-151.975364 44.132512-5.438286 82.826738 6.476504 112.72083 40.770662 20.368852 23.351669 29.795213 51.251722 28.394442 82.019235-0.906381 20.319413-4.103434 40.556427-6.62482 60.809922-3.592564 28.658117-7.498242 57.283275-11.288563 85.924913-0.131837 1.005259-0.329593 2.010518-0.576788 3.29593h-59.491549c0.774544-6.558902 1.499648-13.018926 2.340111-19.445991 4.30119-33.074664 9.04733-66.08341 12.82117-99.240473 2.35659-20.632526 0.873422-41.116735-8.569419-60.233133-10.036109-20.319413-26.861835-31.064147-49.01049-33.404258-45.813437-4.845018-89.4186 26.993672-99.191034 72.082004-6.460024 29.762254 3.724402 58.305014 27.422144 74.076043 23.104474 15.375517 47.856914 15.424956 73.037824 5.438285 12.771731-5.042774 23.648303-13.035406 33.997525-23.829579M1315.496411 503.915008l-8.124469 61.699822c-12.590455 0-24.917236-0.082398-37.244017 0.01648-10.00315 0.082398-19.116398 6.542422-22.132174 15.869906-1.170055 3.642003-1.615006 7.547681-2.109396 11.370961-6.262268 47.395483-12.475098 94.758007-18.687927 142.153491-1.565567 11.931269-3.098175 23.895497-4.663742 36.024522h-61.947017c1.153576-9.113248 2.257713-17.929863 3.411288-26.729998 4.021035-30.718074 8.058551-61.403189 12.129025-92.104783 3.526646-26.565201 6.67426-53.179842 10.827132-79.646165 5.553643-35.464214 40.853061-66.973312 76.646869-68.538879 17.089401-0.741584 34.22824-0.115358 51.894428-0.115357" fill="#3C3A3E" p-id="88108"></path><path d="M659.721562 414.100897h15.375516l-3.625523-23.252791z m17.781546 15.012964h-25.543463l-8.124469 15.902865h-18.09466l39.913721-74.553952h17.435473l13.595714 74.553952h-16.776287zM768.915746 385.459259h-9.096769l-3.065216 17.221238h9.096769c5.487725 0 9.887792-3.609044 9.887792-10.415141 0-4.498945-2.768582-6.789617-6.822576-6.789617z m-22.033297-14.996485h23.895497c12.524537 0 21.275233 7.448803 21.275233 20.269974 0 16.117101-11.40392 26.977193-27.636379 26.977193h-10.299783l-4.828539 27.306785h-15.556793l13.150764-74.553952M844.952867 414.100897h15.359037l-3.625524-23.252791z m17.765066 15.012964h-25.543463l-8.124469 15.902865h-18.09466l39.913721-74.553952h17.435473l13.595715 74.553952h-16.776288zM963.721729 442.379982a40.869541 40.869541 0 0 1-16.875165 3.839759c-19.742625 0-32.135324-14.798729-32.135324-33.338339 0-23.681262 19.95686-43.638122 43.654602-43.638122 5.916196 0 11.288563 1.41725 15.67215 3.839759l-2.191794 17.880424c-3.295931-3.625524-8.56942-6.146911-15.128322-6.146911-13.595714 0-25.65882 12.277342-25.65882 26.532242 0 10.860092 6.789617 19.314154 17.550831 19.314154 6.575382 0 12.920048-2.537867 17.204758-6.031553zM1058.891728 414.957839h-32.464918l-5.273489 30.058887h-15.556793l13.150764-74.553952h15.573272l-5.273489 29.49858h32.464917l5.27349-29.49858h15.556792l-13.150763 74.553952h-15.573273zM1115.993727 445.016726l13.150763-74.553952h41.347451l-2.636745 14.996485H1142.081018l-2.636744 14.502095h23.681262l-2.620265 14.996485h-23.681262l-2.636745 15.029444h25.774178l-2.636744 15.029443z" fill="#3C3A3E" p-id="88109"></path></svg>