<?xml version="1.0" standalone="no"?><!DOCTYPE svg PUBLIC "-//W3C//DTD SVG 1.1//EN" "http://www.w3.org/Graphics/SVG/1.1/DTD/svg11.dtd"><svg t="1588548384803" class="icon" viewBox="0 0 1024 1024" version="1.1" xmlns="http://www.w3.org/2000/svg" p-id="95129" xmlns:xlink="http://www.w3.org/1999/xlink" width="200" height="200"><defs><style type="text/css"></style></defs><path d="M629.427 510.194a1052.627 1052.627 0 0 0-166.07 39.835C376.595 578.243 83.528 683.155 69.988 802.208c-4.825 40.741 15.633 73.193 43.38 103.513q35.824 39.115 106.618 64.997l15.34 5.33c33.598 11.062 71.074 23.603 115.04 30.387 9.33 1.452 17.1 2.772 26.242 3.998l27.987 3.505c59 6.477 100.994 8.73 131.594 8.73 12.607 0 49.844 1.332 49.844 1.332s60.919-177.253 62.105-319.628c0.933-104.632 2.265-184.21 2.172-185.049l-0.88-13.127z m-140.949 69.422c50.47-15.926 62.039-14.78 90.08-20.111l-92.252 62.532c0.506-24.19 2.266-31.986 2.172-42.421z m-0.866 104.086a289.468 289.468 0 0 0 46.339 16.606c16.832 4.837 26.748 7.476 40.235 10.062l-96.196 71.274c4.398-38.383 8.05-64.77 9.622-97.942z m-22.31-97.076c0 13.327-2.292 26.655-3.052 52.456-19.124-11.128-32.971-16.952-48.524-33.211 17.991-6.77 33.864-13.354 51.576-19.258z m70.408 296.891c-26.548 18.205-54.002 34.651-103.66 71.608 11.236-30.253 21.47-56.255 27.988-93.038 27.227 7.877 45.38 15.42 75.659 21.43z m-206.4-243.995c19.312-8.583 36.064-19.285 55.975-27.121 12.501 14.353 23.43 24.402 49.458 40.648L320.58 733.532c4.945-34.41 9.796-58.36 8.73-94.01z m128.13 39.342c-1.827 39.982-13.128 77.911-19.232 124.61L422.082 816.8c-44.487-14.913-69.462-23.563-101.5-38.649 0.12-0.626-3.612-2.426-3.506-3.065zM106.331 805.739c6.158-54.175 85.415-100.26 188.461-148.665 0.32 38.316-3.012 61.185-9.409 97.835l-4.478 3.039c-48.151-24.442-59.8-36.637-60.452-37.09l-34.558 3.052a404.23 404.23 0 0 0 72.847 49.084l-135.805 93.078c-12.288-20.537-19.658-34.73-16.606-60.333z m127.236 136.418c-43.98-15.992-66.183-30.972-87.467-54.202l129.434-87.466c-16.805 77.79-33.851 121.77-41.967 141.602z m73.46-137.364c27.654 12.848 52.469 26.095 88.76 38.956L273.748 933.36c11.382-30.812 21.324-73.38 33.279-128.568z m81.296 178.839c-12.301-1.44-17.979-2.413-30.653-4.372-35.117-5.424-46.419-12.3-74.766-20.497l137.724-99.728c3.159 1.026-1.466 0.747 1.746 1.746-9.329 53.856-14.167 88.466-34.091 122.85z m168.79 7.45c-20.604 0.36-68.622 2.439-129.768-2.986 73.993-55.534 117.68-82.189 146.813-101.527 5.011 0.827 5.85 1.426 10.929 2.186-8.423 41.474-13.488 71.54-27.988 102.313z m38.022-154.37c-5.33 3.079-8.196 9.33-22.35 18.458-39.315-6.877-70.634-8.876-104.885-18.871 0.68-4.385 2.439-12.648 3.052-17.059l138.603-100.554c-2.718 40.408-7.956 76.365-14.393 118.026z m21.457-155.676l-9.249 6.437c-27.414-3.891-63.144-7.463-112.309-30.466l123.384-85.694c0 28.787 0.893 58.107-1.826 109.723z m327.011-251.512c-1.333-3.118-32.665-77.484-136.098-150.598a598.727 598.727 0 0 0-61.305-37.93s-11.435-6.343-12.301-6.436a763.919 763.919 0 0 0-141.709-54.855c-102.793-28.947-221.766-42.234-353.705-39.529l-20.738-0.88 20.111 18.819c99.701 109.283 69.089 234.786 37.596 305.62-36.17 81.297-103.166 158.901-104.152 160.314l-47.978 59.186 64.477-42.794c1.932-1.332 170.482-93.61 389.41-147.399 229.641-56.348 353.345-47.392 354.331-47.285l23.083 3.118zM585.98 211.917c2.293 0.613 3.426 1.106 5.705 1.746 28.6 7.996 40.061 14.926 66.01 25.321l-73.46 38.476c1.905-34.717 1.999-48.351 1.745-65.543z m-35.45-6.997c0.64 24.922-2.319 50.897-5.251 90.958l-15.02 13.86c-31.652-16.245-58.12-21.43-83.362-26.56-11.341-2.293-17.392-2.04-27.534-3.052 0.267-48.405-1.6-85.295-2.199-101.008 50.95 5.051 88.267 14.847 133.366 25.775zM415.418 315.536c9.13 1 15.686 0.533 25.802 2.666 23.203 4.77 25.255 5.797 46.392 15.313l-75.206 44.993c1.866-28.081 2.666-35.984 3.052-63.038z m-55.801 205.387c-57.16 24.948-74.193 42.114-106.818 61.305 20.857-34.078 41.914-44.993 54.229-66.05 35.863-61.199 62.958-66.89 62.958-66.89-11.808 55.069-10.369 71.635-10.369 71.635z m23.043-195.725c-0.773 29.734-2.666 36.17-4.372 58.147-15.926 7.584-17.045 8.756-23.989 10.489 1.333-37.596 8.943-45.553-2.199-83.962 9.623-1.24 11.715 0.227 31.066 0.88-0.12 7.503-0.253 6.663-0.453 14.433z m0-49.417c-24.23-0.8-27.64-2.04-37.596-0.44-14.234-33.664-25.429-57.04-58.64-99.261 42.394-0.24 58.52-1 97.955 2.199 0.48 12.18-1.533 46.645-1.76 97.502z m9.622 232.72c8.196-24.308 13.06-54.974 16.62-91.824 26.92-10.009 16.605-14.514 33.237-8.756 23.336 8.103 58.814 28.054 66.01 51.603l0.893 4.824c-44.1 11.782-78.39 28.414-116.76 44.154z m127.689-95.756c-13.128-14.353-15.3-17.059-34.984-25.801a54.349 54.349 0 0 0-20.99-5.238l55.534-35.184c5.144 2.892 8.53 7.717 13.554 10.928-4.465 33.319-3.052 33.199-13.114 55.175z m23.615 41.102c10.05-19.685 16.086-30.746 23.163-76.539 28.294 21.497 35.61 29 59.027 60.799-13.74 1.826-60.173 10.302-82.19 15.633z m32.346-118.067c0.84-7.463 2.812-16.899 3.505-24.908L694.05 253.91a116.334 116.334 0 0 0 16.18 9.622c-1.706 4.092-38.796 64.717-65.144 132.047-26.655-33.252-41.448-40.488-69.155-59.906z m98.821 94.024l-10.062-13.127 70.835-139.044c81.296 38.956 148.305 126.61 152.61 133.793 0-0.093-166.59 4.265-213.383 18.272zM224.385 105.632l41.541 1.333s27.428-20.498 38.956-26.655c5.984-3.212 25.788-10.488 25.788-10.488l16.62 25.801 34.983 41.115-31.918-65.61 131.206 34.117-45.472 16.18-38.036 16.166 105.019-25.109 22.856 29.68 35.983 1.093s-22.083-38.836-31.052-50.724C512.014 67.45 445.978 0.013 445.978 0.013s-89.173 25.695-144.255 47.499c-41.927 16.579-77.338 58.12-77.338 58.12z m227.363-67.33l46.366 59-132.1-42.42z" fill="#D81E06" p-id="95130"></path></svg>