<?xml version="1.0" standalone="no"?><!DOCTYPE svg PUBLIC "-//W3C//DTD SVG 1.1//EN" "http://www.w3.org/Graphics/SVG/1.1/DTD/svg11.dtd"><svg t="1588544641407" class="icon" viewBox="0 0 1024 1024" version="1.1" xmlns="http://www.w3.org/2000/svg" p-id="34910" xmlns:xlink="http://www.w3.org/1999/xlink" width="200" height="200"><defs><style type="text/css"></style></defs><path d="M858.721997 164.542902L631.876443 33.547582c-75.082683-44.730109-167.73791-44.730109-244.418097 0L162.210296 164.542902C87.127613 209.273011 40.8 290.74571 40.8 378.608424v265.185648c0 87.862715 46.327613 169.335413 121.410296 214.065522L389.05585 990.452418c75.082683 44.730109 167.73791 44.730109 244.418097 0l226.845554-132.592824c75.082683-44.730109 121.410296-124.605304 121.410296-214.065522V378.608424c-1.597504-87.862715-47.925117-169.335413-123.0078-214.065522z" fill="#3B3F53" p-id="34911"></path><path d="M544.013729 159.75039L168.600312 377.01092v-1.597503 108.630265l94.25273 54.315132 92.655226-54.315132v324.293291l94.25273 54.315133 94.252731-54.315133v-107.032761l92.655226-54.315132v-108.630266l-92.655226-54.315132v-108.630265l186.907956 108.630265 94.25273-54.315133v-107.032761z" fill="#00C1DE" p-id="34912"></path><path d="M544.013729 159.75039L168.600312 377.01092l94.25273 54.315133 281.160687-162.945398zM544.013729 159.75039v108.630265l186.907956 107.032762 94.25273-52.717629z" fill="#26CAE3" p-id="34913"></path><path d="M544.013729 592.673947v108.630265l92.655226-54.315132v-108.630266zM168.600312 484.043682l94.25273 54.315132V431.326053L168.600312 375.413417z" fill="#4ED4E9" p-id="34914"></path><path d="M544.013729 268.380655v107.032762l186.907956 108.630265v-108.630265z" fill="#009CB0" p-id="34915"></path><path d="M730.921685 375.413417v108.630265l94.25273-54.315133v-107.032761z" fill="#4ED4E9" p-id="34916"></path><path d="M449.760998 322.695788V862.652106l94.252731-54.315133V268.380655z" fill="#00C1DE" p-id="34917"></path><path d="M544.013729 484.043682l-94.252731 51.120125 94.252731 57.51014 92.655226-54.315133z" fill="#26CAE3" p-id="34918"></path><path d="M355.508268 377.01092v431.326053l94.25273 54.315133V646.98908l94.252731 54.315132v-108.630265l-94.252731-57.51014V322.695788z" fill="#009CB0" p-id="34919"></path><path d="M262.853042 431.326053v107.032761l281.160687-162.945397v-107.032762z" fill="#00C1DE" p-id="34920"></path></svg>