<?xml version="1.0" standalone="no"?><!DOCTYPE svg PUBLIC "-//W3C//DTD SVG 1.1//EN" "http://www.w3.org/Graphics/SVG/1.1/DTD/svg11.dtd"><svg t="1588544168381" class="icon" viewBox="0 0 1501 1024" version="1.1" xmlns="http://www.w3.org/2000/svg" p-id="16830" xmlns:xlink="http://www.w3.org/1999/xlink" width="293.1640625" height="200"><defs><style type="text/css"></style></defs><path d="M249.739455 673.273006c17.39988 21.289265 35.618578 41.759712 54.792563 61.411341a247.010062 247.010062 0 0 0-120.775638 79.152396c-37.802092 45.649097-57.794896 105.968681-53.223162 157.690678H29.818618c20.197508-43.806757 100.85107-170.45059 219.989072-298.254415m1166.679016 325.753049h-122.481508c-280.922769-146.636636-527.591657-250.012394-789.613381-272.598121 0.614113-36.437396 7.096422-77.719464 19.583395-123.709736l-24.155128-6.482308c-12.828147 47.286733-19.51516 90.069967-20.333978 128.281469-27.430399-1.774105-54.997268-2.729393-82.495901-2.729393-23.472779 0-44.898514 2.251749-64.413674 6.004664A880.160992 880.160992 0 0 1 267.002865 655.054308c120.775638-125.89325 319.884854-239.708936 493.064837-282.49217 48.787899 162.057706 153.528353 273.143999 280.581595 347.929366 9.279936-5.322316 18.423402-10.917572 27.430399-16.785767l221.694943 238.617179 9.689344-0.818818c60.524289-5.185847 94.982875 27.635104 104.058107 37.870327 6.687013 7.437596 10.712867 14.261078 12.964616 19.65163" fill="#D1A41A" p-id="16831"></path><path d="M1308.334511 200.746851c4.503498 220.262011-107.879256 395.557273-265.160526 485.422537-267.0711-133.057906-317.29193-470.001466-271.779303-650.823749 12.623442 69.190111 35.618578 112.519224 85.361765 133.740254 108.425135-31.046845 257.654694-33.435064 367.580996-3.138802 45.717332-33.298594 63.458386-84.201773 73.215965-128.622642 12.077564 51.721996 10.712867 163.422403 10.781103 163.422402" fill="#FFDC76" p-id="16832"></path><path d="M948.60052 230.224295c9.211701 0 15.694009 3.752915 20.333977 11.73639 10.985807 18.901046 9.211701 56.089025 0.068235 95.051109H895.240888v16.171654h69.735989c-7.505831 26.611581-18.013993 52.813754-29.818618 73.693609l-3.82115 6.687013 92.389952 58.13607-52.063171 34.322116 8.938762 13.510495 58.13607-38.347971 62.776038 40.940895 8.597588-13.646965-58.204305-36.027987 91.366429-59.296062-0.068235-0.068235h0.068235c-19.105751-28.317452-25.246885-52.472579-17.26341-79.902978h6.550543l70.145398-0.068235 0.204705-16.103419h-70.691278c12.964617-30.705671 31.251549-58.272539 96.347572-58.272539v-16.171653c-60.046645 0-96.006397 23.882188-113.269808 74.375958h-129.57793c9.075232-40.395016 10.644633-80.107683-2.729393-103.102819a37.938562 37.938562 0 0 0-34.322116-19.788099c-53.564337 0-74.717132 54.656094-75.53595 56.976078l15.148131 5.731725c0.682348-2.047045 18.218698-46.53615 60.387819-46.53615z m89.865263 251.7865l-68.303059-43.056174h133.53555l-65.232491 42.987939z m71.032451-128.827347c-5.731725 18.286933-3.411741 45.922036 10.712867 69.59952h-164.650629a386.209102 386.209102 0 0 0 26.065702-69.59952h127.87206z" fill="#000000" p-id="16833"></path><path d="M892.170321 280.64983l-0.068235 0.068235 0.068235-0.068235M1422.150197 962.247485c-27.430399-30.705671-81.131205-45.171453-125.961485-44.079697-28.658626-34.049177-180.344639-194.196308-210.982075-226.539614a578.904245 578.904245 0 0 0 160.488305-170.72353h83.724129V502.890651h-73.079496c4.639968-8.256414 9.143466-16.649297 13.374025-25.17865h59.705471v-17.945759h-50.971413c37.870327-81.881788 58.818418-175.772906 56.839608-278.602785l0.204704 0.068235c-0.13647-28.112747-8.870527-147.046045-24.973945-179.730526-43.670287 16.581062-123.163857 70.281868-141.109616 125.279137a875.452789 875.452789 0 0 0-268.435796 3.411741c-14.261078-59.159592-85.634704-104.39928-139.47198-129.919105-22.722196 38.347971-32.752715 127.189711-30.228027 190.238689l-0.272939 0.13647c2.183514 56.976078 9.894049 109.243953 22.312787 157.349503-186.212834 46.126741-388.938495 168.062371-502.276537 285.903912C197.880989 562.391417 176.864663 503.572999 170.587059 459.083894c-7.91524-56.29373 5.458786-107.879256 38.825615-149.297794 52.131405-64.754848 126.234424-69.326581 202.384487-56.498434-1.501166 12.009329 0.13647 23.541014 4.912908 30.637436 20.129273 29.750383 128.417938 40.258546 193.104551 11.395215-47.764377-66.870127-144.316652-99.486373-171.132938-86.385287a45.717332 45.717332 0 0 0-20.129273 21.562205c-26.338642-4.776438-52.472579-8.188179-71.646565-8.119944-67.143067 0.545879-118.455654 24.018658-156.940095 71.783034-37.733858 46.877324-53.018458 105.081629-44.079696 168.403545 8.392883 59.910175 38.075032 123.641501 87.749984 189.69281a1684.03545 1684.03545 0 0 0-23.882189 26.270407C88.568801 814.041447 0 959.381622 0 983.604984v12.418738h159.874192l-2.729393-14.738722c-9.075232-47.764377 8.938762-107.401613 45.853802-151.958952 23.19984-27.976278 61.616046-59.97841 121.93563-74.717132 53.632571 52.33611 121.93563 107.947491 197.949223 161.511828h118.796829v-12.418738a40.804425 40.804425 0 0 0-19.65163-34.79976c-18.764577-12.282268-47.764377-13.919904-74.375958-4.776438-25.383354-28.317452-39.576198-66.051309-42.646764-112.996868 257.927634 22.858666 504.528287 126.985007 782.858132 272.393416h153.118945l2.047045-10.030519c2.797628-14.329313-4.981142-33.435064-20.879856-51.176118zM771.394682 34.93623c12.623442 69.121876 35.618578 112.45099 85.361765 133.740254 44.079696-12.623442 94.91464-20.470447 147.11428-23.336309l43.260878 94.914639 27.703339-95.733457c52.745519 1.705871 104.39928 8.597588 149.434264 21.016325 45.785567-33.366829 63.594856-84.201773 73.2842-128.622642 12.077564 51.721996 10.712867 163.422403 10.712868 163.422403a594.25708 594.25708 0 0 1-9.552876 120.093289l-49.402012 20.948091 43.533818 6.618778c-3.411741 14.465783-7.369361 28.86333-11.941095 42.987939l-42.169121 12.282268 33.571534 12.077564a537.212767 537.212767 0 0 1-18.969281 44.352636h-69.531286v18.013993h60.387819a531.890451 531.890451 0 0 1-14.329313 25.246885h-46.058506v17.945758h34.79976a519.267009 519.267009 0 0 1-175.499966 164.855335 474.43673 474.43673 0 0 1-184.916373-164.855335h26.611582V502.890651h-38.006797a547.447991 547.447991 0 0 1-14.329313-25.17865h52.33611v-17.945759h-61.684281a609.132272 609.132272 0 0 1-27.703339-65.846604l31.388019-8.802293-39.576197-15.830479a675.183581 675.183581 0 0 1-10.781103-38.893849l60.933698-4.09409-69.667755-36.983274c-17.058706-94.164057-13.646965-185.598721 3.68468-254.379423zM183.824615 813.359099c-37.870327 45.717332-57.863131 105.968681-53.291397 157.758913H29.818618c20.197508-43.806757 100.85107-170.45059 219.920837-298.32265 16.444593 20.265743 34.731525 40.804425 54.792563 61.411342a246.805357 246.805357 0 0 0-120.775638 79.152395z m1110.180583 185.189312c-280.922769-146.568401-527.591657-249.944159-789.613381-272.529886 0.545879-36.437396 7.096422-77.719464 19.51516-123.709736l-24.086893-6.550543c-12.828147 47.286733-19.583394 90.069967-20.333978 128.417938-27.430399-1.84234-54.929033-2.729393-82.495901-2.729393-23.472779 0-44.898514 2.11528-64.413674 5.93643a887.189178 887.189178 0 0 1-65.573666-72.738322c32.752715-34.117412 71.305391-67.416006 113.542747-98.59932l58.477244 40.326781-19.105751-68.166589c17.945759-12.077564 36.164457-23.609249 54.656094-34.731526l86.658226 44.079696L520.631705 467.408543c11.804625-6.414073 23.813953-12.623442 35.823283-18.628107l121.048577 81.19944-39.780902-117.773306c41.350303-16.649297 82.564137-30.296262 122.413274-40.122076 9.006997 30.023322 20.470447 59.364297 34.117411 87.681748h-55.065502V477.643766h64.072499c4.503498 8.597588 9.143466 17.058706 13.988139 25.246885h-78.060638v17.945759h89.251149c54.656094 84.884121 128.554408 149.911908 212.210302 199.109215 9.348171-5.322316 18.491637-10.917572 27.498634-16.785766l21.903378 23.609249-36.846804 56.634903 62.844272-28.658626 36.369161 39.166789-61.411341 46.877324 84.611181-21.903378 114.225095 122.959152 9.689345-0.818818c60.524289-5.185847 94.982875 27.635104 104.058107 37.802093 6.687013 7.505831 10.712867 14.329313 12.964616 19.651629h-122.549743z" fill="#000000" p-id="16834"></path></svg>