<?xml version="1.0" standalone="no"?><!DOCTYPE svg PUBLIC "-//W3C//DTD SVG 1.1//EN" "http://www.w3.org/Graphics/SVG/1.1/DTD/svg11.dtd"><svg t="1588545587718" class="icon" viewBox="0 0 1025 1024" version="1.1" xmlns="http://www.w3.org/2000/svg" p-id="47835" xmlns:xlink="http://www.w3.org/1999/xlink" width="200.1953125" height="200"><defs><style type="text/css"></style></defs><path d="M550.4 505.6c-108.8-108.8-108.8-283.733333 0-392.533333 85.333333-85.333333 213.333333-102.4 315.733333-53.333334L682.666667 245.333333l130.133333 130.133334 185.6-185.6c49.066667 102.4 32 230.4-53.333333 315.733333-110.933333 108.8-285.866667 108.8-394.666667 0zM243.2 957.866667c-44.8 42.666667-117.333333 42.666667-162.133333 0-44.8-42.666667-44.8-113.066667 0-157.866667l371.2-377.6 162.133333 157.866667-371.2 377.6zM503.466667 725.333333l196.266666 219.733334c42.666667 44.8 104.533333 49.066667 149.333334 4.266666 44.8-44.8 34.133333-106.666667-8.533334-153.6l-2.133333-2.133333-211.2-200.533333-123.733333 132.266666zM441.6 409.6l-138.666667-136.533333-38.4-117.333334L106.666667 78.933333 0 187.733333l78.933333 155.733334 117.333334 38.4 138.666666 136.533333z" fill="#15489B" p-id="47836"></path></svg>