<?xml version="1.0" standalone="no"?><!DOCTYPE svg PUBLIC "-//W3C//DTD SVG 1.1//EN" "http://www.w3.org/Graphics/SVG/1.1/DTD/svg11.dtd"><svg t="1588543824247" class="icon" viewBox="0 0 1024 1024" version="1.1" xmlns="http://www.w3.org/2000/svg" p-id="5068" xmlns:xlink="http://www.w3.org/1999/xlink" width="200" height="200"><defs><style type="text/css"></style></defs><path d="M512 31.99901115c264.89991434 0 480.00098885 215.1010745 480.00098885 480.00098885s-215.1010745 480.00098885-480.00098885 480.00098885-480.00098885-215.1010745-480.00098885-480.00098885 215.1010745-480.00098885 480.00098885-480.00098885zM643.15930673 739.16233246c-19.27413216 11.29927931-32.014101 31.91198014-32.01410099 55.49875436 0 35.4076554 28.70538546 64.11461193 64.11461193 64.11461194 11.81931008 0 22.89549461-3.19873923 32.40058914-8.77925095 18.97405395-11.13431485 31.71402279-31.74858678 31.71402279-55.3337899 0-35.4076554-28.70538546-64.11461193-64.11461193-64.11461195-11.81931008 0-22.89392353 3.19873923-32.40058914 8.77925095zM512 699.20008714c-28.20106555 0-54.89859799-6.30164201-78.84043855-17.39982179l-44.51997741 79.79880344c35.93082836 18.15237391 78.32354992 28.78393996 123.1985937 28.78393995 26.54199452 0 52.21203407-3.71877004 76.52150969-10.66298784 5.18616811-42.62052961 42.18690877-75.08082016 86.77130085-75.08082017 11.45324612 0 22.40688562 2.14296677 32.48385691 6.04869652 48.76034933-48.5781029 80.12716127-115.1640394 82.59377257-189.07439753l-91.78779125 6.94421783c-8.78082203 95.99831245-88.88284585 170.61723216-186.42082651 170.63922741zM324.79991286 512c0-63.30078732 31.49878347-119.28029523 79.61969917-153.18127531l-46.80120007-78.48065893c-63.23951481 42.50898222-107.65894246 108.84197324-120.48689235 185.8583763 25.5082173-8.25764905 38.46970981 16.94106351 38.46970981 45.14212904s-12.95992145 52.80119282-33.17827869 69.60242933c17.39982179 66.6016474 59.04156231 124.20094911 115.20017448 161.40121819l46.79962902-78.59849066c-48.3565792-33.54748483-79.62127026-88.78386717-79.62127028-151.31796257 0-0.14768245 0-0.296936 0.00157109-0.44461846zM185.60133857 447.91995204c-35.38880233 0-64.08004796 28.68967455-64.08004796 64.08004796s28.68967455 64.08004796 64.08004796 64.08004796c35.38880233 0 64.08004796-28.68967455 64.08004796-64.08004796 0-35.38880233-28.68967455-64.08004796-64.08004796-64.08004796zM512 324.79991286c97.52069867 0.02356636 177.61172485 74.60949316 186.36583835 169.84896915l91.43272491-0.64886018c-4.95207568-74.1617325-38.25761266-139.70132307-89.0619501-186.55594024-3.22230559 9.6794855-14.2073669 11.83659209-25.6936059 11.83659207-44.59538973 0-81.59455932-32.52156306-88.57491219-75.14052156-22.48386903-6.87351876-48.22617873-10.53258737-74.82159031-10.53730065-44.0486504 0-85.86792413 10.38019167-123.00692072 28.79965085l44.51997741 79.79880344c24.00154197-11.15945228 50.69907441-17.39982179 78.84043855-17.39982179zM643.15930673 284.7811083c9.20344524 5.39669417 20.26391887 8.58443578 32.06908914 8.58443577 23.58991639 0 44.21047269-12.72425793 55.36992498-31.68417209 4.70855675-8.88294287 7.37626756-19.06360609 7.37626757-29.86327877 0-35.4547881-28.74309162-64.19945079-64.1994508-64.19945079-22.64412021 0-42.55140164 11.72190253-53.97951032 29.43122901-17.79416538 30.85149438-7.35113012 70.03133691 23.36682162 87.73123687z" fill="#e16531" p-id="5069"></path></svg>