<?xml version="1.0" standalone="no"?><!DOCTYPE svg PUBLIC "-//W3C//DTD SVG 1.1//EN" "http://www.w3.org/Graphics/SVG/1.1/DTD/svg11.dtd"><svg t="1588994574832" class="icon" viewBox="0 0 1755 1024" version="1.1" xmlns="http://www.w3.org/2000/svg" p-id="4514" xmlns:xlink="http://www.w3.org/1999/xlink" width="342.7734375" height="200"><defs><style type="text/css"></style></defs><path d="M50.176 512l206.921143-206.848c342.747429-342.820571 898.486857-342.820571 1241.234286 0L1705.252571 512l-206.921142 206.848c-342.747429 342.820571-898.486857 342.820571-1241.234286 0L50.176 512z" fill="#5A3CC8" p-id="4515"></path><path d="M877.714286 512m-365.714286 0a365.714286 365.714286 0 1 0 731.428571 0 365.714286 365.714286 0 1 0-731.428571 0Z" fill="#FFFFFF" p-id="4516"></path><path d="M877.714286 512m-219.428572 0a219.428571 219.428571 0 1 0 438.857143 0 219.428571 219.428571 0 1 0-438.857143 0Z" fill="#5A3CC8" p-id="4517"></path></svg>