<?xml version="1.0" standalone="no"?><!DOCTYPE svg PUBLIC "-//W3C//DTD SVG 1.1//EN" "http://www.w3.org/Graphics/SVG/1.1/DTD/svg11.dtd"><svg t="1588544409500" class="icon" viewBox="0 0 1024 1024" version="1.1" xmlns="http://www.w3.org/2000/svg" p-id="29674" xmlns:xlink="http://www.w3.org/1999/xlink" width="200" height="200"><defs><style type="text/css"></style></defs><path d="M891.581 58.368H132.48c-40.96 0-74.179 33.219-74.179 74.179v758.912c0 40.96 33.214 74.178 74.179 74.178h759.168c40.96 0 74.179-33.218 74.179-74.178V132.547c-0.067-40.96-33.286-74.179-74.246-74.179z m-169.088 57.216a37.888 37.888 0 1 1 0 75.776 37.888 37.888 0 0 1 0-75.776z m-129.274 0a37.888 37.888 0 1 1 0 75.776 37.888 37.888 0 1 1 0-75.776zM889.6 889.411H134.467V248.064H889.6v641.347z m-37.888-698.118a37.888 37.888 0 1 1 0-75.776c20.925 0 37.888 17.024 37.888 37.955 0 20.864-16.957 37.821-37.888 37.821zM291.456 398.66h-75.264v-75.203h75.264v75.203z m75.587 75.642h-75.264v-75.264h75.264v75.264z m-75.587 226.243h-75.264V625.28h75.264v75.264z m75.587-75.264h-75.264v-75.203h75.264v75.203z m75.581-75.392h-75.197v-75.264h75.264v75.264h-0.067z m382.141 150.656H446.27V625.28H824.7v75.264h0.066z" fill="#00CBF5" p-id="29675"></path></svg>