<?xml version="1.0" standalone="no"?><!DOCTYPE svg PUBLIC "-//W3C//DTD SVG 1.1//EN" "http://www.w3.org/Graphics/SVG/1.1/DTD/svg11.dtd"><svg t="1588543546569" class="icon" viewBox="0 0 1144 1024" version="1.1" xmlns="http://www.w3.org/2000/svg" p-id="1586" xmlns:xlink="http://www.w3.org/1999/xlink" width="223.4375" height="200"><defs><style type="text/css"></style></defs><path d="M460.631155 512.028618C407.001509 485.185177 355.546811 469.330949 306.381533 469.330949c-6.753787 0-13.450338 2.232184-20.14689 2.232183a589.926108 589.926108 0 0 0-156.539042 33.597228c-8.928735 4.464368-17.85747 6.696551-29.075624 11.160919L0 865.28601c69.312168-24.611257 129.695601-38.00436 185.614667-38.00436 89.401822 0 156.481806 33.539992 210.111452 69.312168 24.611257-87.226874 87.226874-297.624504 105.14158-359.953943a385.824381 385.824381 0 0 0-40.064837-24.611257z m129.695601 89.401822l-100.619976 351.025208c29.075625 17.914706 129.638366 71.544352 207.936504 71.544352 62.558381 0 131.641608-15.682522 212.400872-49.165279l98.387793-337.689341a646.760941 646.760941 0 0 1-187.84685 31.307809c-107.316528 0.057235-183.325247-33.482757-230.258343-67.022749zM326.242245 351.025208c87.226874 0 149.842491 35.772176 203.472137 69.312168l103.023866-355.489575C610.473646 51.511933 556.786764 22.379073 514.318037 11.447096a356.004695 356.004695 0 0 0-87.226874-11.447096C368.939914 0 306.381533 15.682522 234.665474 44.700911L134.159969 393.493935c71.544352-26.843441 134.159969-42.468727 192.311218-42.468727z m818.467386-190.021798c-64.847801 24.611257-131.641608 38.061595-192.253983 38.061595A391.318987 391.318987 0 0 1 726.890615 129.695601l-103.023866 355.546811a401.506903 401.506903 0 0 0 221.386842 67.022749A463.950813 463.950813 0 0 0 1041.685764 507.56425v-2.232184l4.464367-2.289419z" fill="#33A9DD" p-id="1587"></path></svg>