<?xml version="1.0" standalone="no"?><!DOCTYPE svg PUBLIC "-//W3C//DTD SVG 1.1//EN" "http://www.w3.org/Graphics/SVG/1.1/DTD/svg11.dtd"><svg t="1593758041961" class="icon" viewBox="0 0 1024 1024" version="1.1" xmlns="http://www.w3.org/2000/svg" p-id="6608" xmlns:xlink="http://www.w3.org/1999/xlink" width="200" height="200"><defs><style type="text/css"></style></defs><path d="M614.697627 329.680409c15.70516 0 28.481595 12.770438 28.481595 28.4686 0 15.697163-12.777435 28.468601-28.481595 28.468601-15.70516 0-28.482594-12.770438-28.482594-28.468601 0.001-15.698163 12.778434-28.468601 28.482594-28.4686m0-31.223401c-32.982635 0-59.719989 26.72436-59.719989 59.691002s26.737355 59.691002 59.719989 59.691002 59.719989-26.72436 59.719989-59.691002-26.736355-59.691002-59.719989-59.691002zM695.584397 224.553197l43.091232-61.772096c-60.625595-42.248599-131.763611-66.051232-205.724397-68.83302l-2.833766 75.249226c59.497086 2.238025 116.715165 21.379688 165.466931 55.35589z" p-id="6609" fill="#1296db"></path><path d="M805.465539 361.202679l69.65866-28.690504C851.022697 274.049639 812.362535 221.819387 763.323894 181.466963l-47.886144 58.134679c39.501795 32.505842 70.633236 74.552529 90.027789 121.601037z" p-id="6610" fill="#1296db"></path><path d="M703.963748 817.508937C827.405983 749.629501 904.090583 620.061934 904.090583 479.367213c0-39.148949-5.856449-77.789119-17.406419-114.846979l-71.929671 22.398245c9.287955 29.797022 13.996904 60.901475 13.996904 92.447735 0 113.233681-61.731113 217.521259-161.102832 272.165459l36.315183 65.977264zM518.204654 865.065224c50.156155 0 98.963897-9.486868 145.068816-28.193721l-28.338657-69.771611c-37.061858 15.03745-76.334753 22.66213-116.730159 22.66213-52.465149 0-103.225041-12.970351-148.600277-37.757555-16.919631-9.242974-38.070419-4.381092-49.094617 11.430021-12.784432 18.335014-6.907991 43.772935 12.702467 54.511258 56.491395 30.932527 119.68787 47.119477 184.992427 47.119478zM12.966709 618.932426c6.969964-1.160495 13.749012 2.588872 16.690731 9.010076 4.194173 9.156012 9.806729 17.041578 16.817675 23.648699 9.699775 9.163009 21.823495 13.481128 36.373158 12.92637 14.548663-0.531768 26.116625-6.463185 34.755862-17.774258 8.613249-11.310074 12.376609-24.236444 11.315072-38.777111-1.085527-14.542666-6.744063-25.85274-16.973608-33.932221-8.687216-6.84302-21.797506-11.946797-39.359857-15.31233-5.753494-1.10252-9.944669-6.096345-9.944668-11.951795 0-6.007384 4.403082-11.056185 10.335498-12.018765 17.366436-2.816773 30.346783-8.309381 38.969027-16.460831 10.229545-9.694777 14.801553-22.342269 13.741015-37.970462-1.085527-15.601205-8.08248-26.912278-21.014847-33.931221-12.932367-6.992954-26.673382-7.801602-41.222045-2.422945-12.379608 4.595998-22.619148 16.193947-30.703628 34.805841-2.638851 6.076353-9.062053 9.599819-15.599205 8.511293-9.39091-1.564319-14.700597-11.637931-10.719332-20.282167 5.475615-11.887822 12.089734-22.260305 19.842358-31.115447 11.315072-12.92637 26.673382-20.449093 46.070934-22.619149 19.398551-2.147065 36.373158 0.276879 50.921821 7.269834 14.549663 7.017943 24.779207 17.774258 30.714623 32.315925 5.911425 14.541666 6.719074 30.447739 2.424943 47.665239-4.319119 17.24249-16.720717 32.315925-37.180806 45.240296 15.079432 6.463185 26.673382 16.157962 34.754863 29.084333 8.08248 12.92637 10.760313 29.89298 8.08248 50.896832-2.701823 21.004851-12.12372 37.970462-28.289679 50.896832-16.164959 12.92637-34.503972 19.136665-54.963061 18.580907-20.484078-0.529769-38.267333-6.992954-53.346765-19.389555C14.298129 666.684628 6.087705 654.44196 0.828996 639.107639c-3.084656-8.998081 2.751801-18.611894 12.137713-20.175213zM203.280819 596.65313c1.060538-15.601205 4.04124-28.805454 8.891127-39.585759 4.849888-10.754316 12.12372-24.236444 21.823495-40.394406l61.64715-96.183108a15.697163 15.697163 0 0 1 13.217243-7.225853c12.386605 0 19.893336 13.668047 13.243232 24.112498l-52.543115 82.528055c29.097327-7.524723 52.260238-6.463185 69.511724 3.231593 17.227497 9.694777 28.820447 20.750962 34.755862 33.122573 5.911425 12.396601 9.144017 25.85274 9.699776 40.394407 0.529769 14.542666-1.616296 28.831443-6.466184 42.81935-4.849888 14.010898-13.488125 26.659389-25.864735 37.968463-12.402598 11.311073-29.654084 17.521369-51.730469 18.582906-22.101374 1.084528-40.969156-2.954713-56.579357-12.119721-15.63519-9.13802-26.419493-22.06439-32.330918-38.777111-5.936414-16.687732-8.361358-32.845694-7.274831-48.473887z m50.113173 53.320776c9.699775 10.249536 22.631143 15.906072 38.797102 16.96661 16.165959 1.084528 29.629095-4.291131 40.413398-16.157962 10.760313-11.841842 16.165959-29.084332 16.165959-51.70548 0-22.619148-6.744063-38.222352-20.207199-46.857591-13.488125-8.608251-28.567557-11.839843-45.263286-9.694778-16.720717 2.172054-28.846436 10.251535-36.373157 24.237444-7.55271 14.010898-10.786302 28.831443-9.699776 44.433647 1.062537 15.627194 6.468183 28.553564 16.166959 38.77811zM408.584399 536.870168c1.060538-28.527575 5.101778-51.148722 12.12372-67.861443 6.996952-16.687732 16.973607-30.422749 29.905974-41.202055 12.932367-10.754316 28.820447-16.157962 47.689229-16.157962 18.842793 0 35.286631 7.826591 49.304526 23.429795 13.993905 15.626194 23.161912 35.294628 27.48203 58.975313 4.29313 23.705675 5.657536 50.896832 4.04124 81.596461-1.616296 30.699629-7.021942 55.743721-16.165959 75.133276-9.168007 19.389555-22.909022 32.870683-41.222046 40.394407-18.338013 7.547713-36.650037 6.742064-54.963061-2.422945-18.338013-9.140019-31.27038-21.257741-38.798101-36.356165-7.551711-15.071436-12.931368-30.95052-16.16496-47.663241-3.232592-16.69073-4.319119-39.311878-3.232592-67.865441z m33.947215-9.694778c-3.233592 29.639091-2.172054 56.0216 3.233591 79.173517 5.379657 23.175906 14.271784 39.585759 26.673383 49.280536 12.376609 9.694777 25.057086 11.587953 37.989454 5.656536 12.932367-5.908427 22.353264-17.774258 28.289678-35.547517 5.910426-17.773259 8.891127-37.162814 8.891128-58.168665 0-21.004851-0.807648-40.115528-2.424944-57.358018-1.616296-17.217501-6.466184-32.845694-14.549663-46.857591-8.08248-13.987908-18.867782-21.257741-32.330919-21.8125-13.489125-0.531768-25.334965 6.210295-35.56451 20.196204-10.254534 14.009898-16.973607 35.822398-20.207198 65.437498zM228.102008 368.141657c42.860332-112.124165 148.781199-193.080904 275.749898-198.844394l-3.416512-75.224236c-99.310746 4.505038-191.964391 46.58571-260.89037 118.484394-35.926352 37.476677-63.451364 81.065692-81.614453 128.312114-9.494865 24.698243 8.627242 51.256675 35.099712 51.256676 15.52124 0 29.532137-9.492865 35.071725-23.984554z" p-id="6611" fill="#1296db"></path><path d="M118.558719 215.814003c-48.125039 0-87.276987-39.138953-87.276987-87.248s39.152947-87.247999 87.276987-87.247999 87.276987 39.138953 87.276987 87.247999-39.151947 87.247999-87.276987 87.248z m0-143.259604c-30.907538 0-56.052586 25.127056-56.052586 56.011604s25.145048 56.011604 56.052586 56.011605 56.052586-25.127056 56.052586-56.011605-25.145048-56.011604-56.052586-56.011604z" p-id="6612" fill="#1296db"></path><path d="M896.761775 237.853404c-27.353086 0-49.607394-22.24831-49.607394-49.596399 0-27.348089 22.254307-49.596398 49.607394-49.596398s49.607394 22.24831 49.607394 49.596398c0 27.348089-22.253308 49.596398-49.607394 49.596399z m0-67.955403c-10.136585 0-18.382993 8.236413-18.382993 18.360004 0 10.123591 8.246408 18.360003 18.382993 18.360003s18.382993-8.236413 18.382993-18.360003c0-10.123591-8.246408-18.360003-18.382993-18.360004z" p-id="6613" fill="#1296db"></path><path d="M629.398224 33.978201a33.995193 33.978201 0 1 0 67.990387 0 33.995193 33.978201 0 1 0-67.990387 0Z" p-id="6614" fill="#1296db"></path><path d="M907.787973 668.542818a57.882789 57.854802 0 1 0 115.765578 0 57.882789 57.854802 0 1 0-115.765578 0Z" p-id="6615" fill="#1296db"></path><path d="M504.444648 1023.555194c-40.525349 0-73.494989-32.959645-73.49499-73.472999s32.96964-73.472999 73.49499-73.472999 73.494989 32.959645 73.494989 73.472999c0.001 40.512355-32.96964 73.472999-73.494989 73.472999z m0-115.709603c-23.307848 0-42.270589 18.946748-42.27059 42.236604s18.962741 42.236604 42.27059 42.236604 42.270589-18.946748 42.270589-42.236604-18.961741-42.236604-42.270589-42.236604z" p-id="6616" fill="#1296db"></path></svg>