<?xml version="1.0" standalone="no"?><!DOCTYPE svg PUBLIC "-//W3C//DTD SVG 1.1//EN" "http://www.w3.org/Graphics/SVG/1.1/DTD/svg11.dtd"><svg t="1585117875910" class="icon" viewBox="0 0 1024 1024" version="1.1" xmlns="http://www.w3.org/2000/svg" p-id="34421" xmlns:xlink="http://www.w3.org/1999/xlink" width="200" height="200"><defs><style type="text/css"></style></defs><path d="M888.172401 0.000731H794.110754a31.085692 31.085692 0 0 0-31.305121 31.378264 31.085692 31.085692 0 0 0 31.305121 31.30512h94.061647v94.061647a31.085692 31.085692 0 0 0 31.30512 31.305121 31.085692 31.085692 0 0 0 31.378263-31.305121V62.684115A62.756527 62.756527 0 0 0 888.172401 0.000731z m31.30512 501.540214a31.085692 31.085692 0 0 0-31.30512 31.378263V626.834569H794.110754a31.085692 31.085692 0 0 0-22.16227 9.215994c-1.682285 1.682285-2.559998 3.803426-3.803426 5.851424a394.459147 394.459147 0 0 0-119.149629-80.676514c89.380508-53.394248 145.919896-156.013603 128.585051-271.359806-16.383988-108.251351-100.351928-198.729001-207.506138-221.110699A282.331227 282.331227 0 0 0 511.998955 62.903544a268.58038 268.58038 0 0 0-268.653522 268.653522 267.702666 267.702666 0 0 0 131.657049 229.960979c-43.885683 18.578272-83.748512 46.591967-119.14963 80.603371-1.243428-1.974856-2.194284-4.16914-3.803426-5.851425a31.085692 31.085692 0 0 0-22.162269-9.14285H135.82551V532.992351A31.085692 31.085692 0 0 0 104.593532 501.760373 31.085692 31.085692 0 0 0 73.142126 532.992351v94.061647c0 34.596547 28.086837 62.683384 62.683384 62.683384h77.238801a503.222498 503.222498 0 0 0-100.205642 247.73468 59.099386 59.099386 0 0 0 58.806815 65.755381h680.666942a59.245672 59.245672 0 0 0 58.806815-65.755381 503.149355 503.149355 0 0 0-100.205642-247.807823h77.238802A62.756527 62.756527 0 0 0 950.855784 626.834569V532.919208a31.085692 31.085692 0 0 0-31.378263-31.378263z m-743.862326 439.953971c18.870844-148.62618 104.447925-271.871806 223.816983-322.413484a62.610241 62.610241 0 1 0 7.753138-111.61592 204.068426 204.068426 0 0 1-101.156499-176.054732 206.189567 206.189567 0 0 1 251.172392-201.142713c80.749657 16.822845 145.919896 86.30851 158.354172 169.106165a203.336998 203.336998 0 0 1-98.742786 208.237565 62.610241 62.610241 0 1 0 7.753137 111.615921c119.222772 50.175964 204.580425 173.055876 223.74384 321.170056l-672.694377 1.097142z m-71.094806-753.37089a31.085692 31.085692 0 0 0 31.305121-31.451406V62.757258h94.061647A31.085692 31.085692 0 0 0 261.119134 31.452138 31.085692 31.085692 0 0 0 229.887157 0.000731H135.82551A62.756527 62.756527 0 0 0 73.142126 62.684115v94.061647a31.085692 31.085692 0 0 0 31.378263 31.305121z" p-id="34422" fill="#1296db"></path></svg>