<?xml version="1.0" standalone="no"?><!DOCTYPE svg PUBLIC "-//W3C//DTD SVG 1.1//EN" "http://www.w3.org/Graphics/SVG/1.1/DTD/svg11.dtd"><svg t="1593757740211" class="icon" viewBox="0 0 1024 1024" version="1.1" xmlns="http://www.w3.org/2000/svg" p-id="4026" xmlns:xlink="http://www.w3.org/1999/xlink" width="200" height="200"><defs><style type="text/css"></style></defs><path d="M680.854732 544.831756H554.214451V418.190451h-84.427878V544.831756H343.146291v84.426855h126.640282v126.641305h84.427878V629.258611h126.640281z" fill="#00D8A0" p-id="4027"></path><path d="M662.095483 303.832913H361.904517c-19.735483 0-35.735899-16.001439-35.735899-35.735899s16.001439-35.735899 35.735899-35.735899h300.190966c19.735483 0 35.735899 16.001439 35.735899 35.735899s-16.000416 35.735899-35.735899 35.735899z" fill="#444444" p-id="4028"></path><path d="M833.623092 958.708971H190.376908c-39.409568 0-71.472821-32.072463-71.472821-71.482031V136.762827c0-39.409568 32.063253-71.472821 71.472821-71.472822h643.246184c39.417755 0 71.472821 32.063253 71.472821 71.472822v750.464113c0 39.410592-32.055067 71.482031-71.472821 71.482031zM190.376908 136.762827v750.464113h643.299395l-0.052188-750.464113H190.376908z" fill="#444444" p-id="4029"></path></svg>