<?xml version="1.0" standalone="no"?><!DOCTYPE svg PUBLIC "-//W3C//DTD SVG 1.1//EN" "http://www.w3.org/Graphics/SVG/1.1/DTD/svg11.dtd"><svg t="1595130867182" class="icon" viewBox="0 0 1024 1024" version="1.1" xmlns="http://www.w3.org/2000/svg" p-id="2195" xmlns:xlink="http://www.w3.org/1999/xlink" width="200" height="200"><defs><style type="text/css"></style></defs><path d="M512 512m-512 0a512 512 0 1 0 1024 0 512 512 0 1 0-1024 0Z" fill="#4EA8EC" p-id="2196"></path><path d="M345.478095 389.083429c-8.825905 0-16.091429-6.948571-16.091428-15.60381 0-8.679619 7.265524-15.823238 16.091428-15.823238h295.521524l-88.051809-60.732952a15.725714 15.725714 0 0 1-3.913143-21.784381c4.900571-7.314286 15.09181-9.057524 22.345143-4.242286l129.03619 89.075809c4.315429 3.08419 7.070476 8.094476 6.863238 13.29981 0 8.679619-7.253333 15.811048-16.079238 15.811048H345.478095z m345.916953 75.008a15.847619 15.847619 0 0 1 15.88419 15.811047c0 8.667429-7.253333 15.811048-16.079238 15.811048H395.873524l88.051809 60.732952a15.60381 15.60381 0 0 1 3.925334 21.979429 16.213333 16.213333 0 0 1-22.357334 3.85219l-129.231238-89.075809c-4.315429-3.08419-7.070476-8.094476-6.863238-13.29981 0-8.679619 7.253333-15.811048 16.079238-15.811047h345.916953zM316.952381 633.953524h87.893333v17.066666h-67.925333v33.792h63.829333v17.066667h-63.829333V738.742857h70.826667V755.809524H316.952381v-121.856z m178.176-2.389334c14.445714 0 25.660952 2.962286 33.621333 8.874667 8.533333 6.375619 13.421714 16.213333 14.677334 29.525333h-19.797334c-1.706667-7.509333-4.839619-12.921905-9.386666-16.213333-4.327619-3.291429-11.032381-4.949333-20.138667-4.949333-7.740952 0-13.592381 1.084952-17.578667 3.242666-4.998095 2.499048-7.509333 6.704762-7.509333 12.629334 0 5.351619 2.840381 9.508571 8.533333 12.458666 2.730667 1.475048 9.667048 3.986286 20.821334 7.509334 16.042667 4.888381 26.684952 8.874667 31.914666 11.946666 10.581333 6.253714 15.872 15.018667 15.872 26.282667 0 10.922667-4.266667 19.565714-12.8 25.941333-8.655238 6.253714-20.711619 9.386667-36.181333 9.386667-15.018667 0-26.733714-2.901333-35.157333-8.704-10.361905-7.168-15.932952-18.492952-16.725334-33.962667h19.797334c1.365333 9.325714 4.668952 15.932952 9.898666 19.797334 4.888381 3.535238 12.288 5.290667 22.186667 5.290666 8.874667 0 15.932952-1.475048 21.162667-4.437333 5.241905-3.181714 7.850667-7.228952 7.850666-12.117333 0-6.485333-3.815619-11.605333-11.434666-15.36-2.730667-1.365333-10.642286-4.035048-23.722667-8.021334-15.128381-4.778667-24.466286-8.192-27.989333-10.24-9.325714-5.571048-13.994667-13.775238-13.994667-24.576 0-10.922667 4.547048-19.395048 13.653333-25.429333 8.411429-5.912381 19.224381-8.874667 32.426667-8.874667z m93.696 2.389334h55.808c12.178286 0 21.674667 2.901333 28.501333 8.704 6.375619 5.461333 9.557333 12.8 9.557334 22.016 0 6.704762-1.645714 12.519619-4.949334 17.408-3.181714 4.327619-7.850667 7.68-13.994666 10.069333 7.960381 1.475048 13.994667 4.717714 18.090666 9.728 3.986286 4.888381 5.973333 11.434667 5.973334 19.626667 0 12.288-4.205714 21.333333-12.629334 27.136-7.168 4.778667-17.298286 7.168-30.378666 7.168h-55.978667v-121.856z m19.968 16.384v34.816h30.549333c8.301714 0 14.336-1.426286 18.090667-4.266667 3.535238-2.962286 5.290667-7.558095 5.290667-13.824 0-5.802667-1.767619-10.008381-5.290667-12.629333-3.754667-2.730667-9.667048-4.096-17.749333-4.096H608.792381z m0 51.2v37.888h33.109333c7.619048 0 13.531429-1.194667 17.749334-3.584 5.461333-3.072 8.192-7.960381 8.192-14.677334 0-6.948571-1.987048-11.946667-5.973334-15.018666-4.096-3.072-10.581333-4.608-19.456-4.608H608.792381z" fill="#FFFFFF" p-id="2197"></path></svg>