<?xml version="1.0" standalone="no"?><!DOCTYPE svg PUBLIC "-//W3C//DTD SVG 1.1//EN" "http://www.w3.org/Graphics/SVG/1.1/DTD/svg11.dtd"><svg t="1594868580812" class="icon" viewBox="0 0 1024 1024" version="1.1" xmlns="http://www.w3.org/2000/svg" p-id="4414" xmlns:xlink="http://www.w3.org/1999/xlink" width="200" height="200"><defs><style type="text/css"></style></defs><path d="M896 224H128c-35.2 0-64 28.8-64 64v448c0 35.2 28.8 64 64 64h768c35.2 0 64-28.8 64-64V288c0-35.2-28.8-64-64-64z" fill="#247B48" p-id="4415"></path><path d="M224.896 427.44v169.408H188.8V427.44h36.096zM384.912 590.736c-12.32 6.064-28.4 9.072-48.24 9.072-25.52 0-45.776-7.648-60.752-22.912-14.992-15.28-22.48-35.648-22.48-61.088 0-26.752 8.368-48.656 25.104-65.68s38.336-25.536 64.8-25.536c16.56 0 30.4 2.144 41.568 6.448v34.896c-11.44-6.704-24.432-10.064-38.944-10.064-16.56 0-29.792 5.296-39.696 15.856s-14.88 24.384-14.88 41.456c0 16.624 4.704 30 14.112 40.128 9.408 10.144 22.128 15.2 38.176 15.2 15.088 0 28.832-3.648 41.232-10.944v33.168zM414.88 596.864V427.44h58.512c60.16 0 90.24 27.52 90.24 82.576 0 26.176-8.416 47.2-25.264 63.056s-38.576 23.776-65.184 23.776H414.88z m36.096-139.888v110.352h19.68c17.136 0 30.592-5.088 40.352-15.312 9.76-10.208 14.656-24.016 14.656-41.44 0-16.848-5.104-29.984-15.312-39.424-10.208-9.44-23.472-14.16-39.808-14.16h-19.568zM667.648 423.728v173.136h-35.552v-133.328c-4.368 3.792-10.352 7.2-17.936 10.224a82.208 82.208 0 0 1-20.896 5.632v-30.304c19.968-5.84 37.264-14.288 51.84-25.376h22.544zM719.264 514.944c0-29.312 5.392-51.696 16.192-67.152s26.384-23.184 46.816-23.184c38.944 0 58.4 28.8 58.4 86.4 0 28.368-5.28 50.256-15.856 65.68s-25.84 23.12-45.824 23.12c-39.824 0-59.728-28.272-59.728-84.864z m35.76-0.88c0 39.088 8.336 58.624 25.04 58.624 16.4 0 24.608-20.128 24.608-60.368 0-40.4-7.984-60.592-23.952-60.592-17.12 0-25.696 20.784-25.696 62.336z" fill="#FFFFFF" p-id="4416"></path></svg>