<?xml version="1.0" standalone="no"?><!DOCTYPE svg PUBLIC "-//W3C//DTD SVG 1.1//EN" "http://www.w3.org/Graphics/SVG/1.1/DTD/svg11.dtd"><svg t="1594868597842" class="icon" viewBox="0 0 1024 1024" version="1.1" xmlns="http://www.w3.org/2000/svg" p-id="4726" xmlns:xlink="http://www.w3.org/1999/xlink" width="200" height="200"><defs><style type="text/css"></style></defs><path d="M512.1 894.2c-53 0-104.4-10.7-152.8-31.7H187.4c-11.8 0-21.5-9.6-21.5-21.5V677.4c-25.6-52.6-38.5-109-38.5-167.8 0-212.1 172.6-384.7 384.7-384.7s384.7 172.6 384.7 384.7-172.5 384.6-384.7 384.6z m-148.4-74.6c2.9 0 5.9 0.6 8.7 1.9 44.2 19.8 91.2 29.9 139.7 29.9C700.6 851.3 854 698 854 509.5c0-188.5-153.3-341.8-341.8-341.8S170.4 321 170.4 509.5c0 53.8 12.2 105.4 36.4 153.4 1.9 3.7 2.6 7.8 2.2 11.7v145.1h153c0.5-0.1 1.1-0.1 1.7-0.1z" fill="#616266" p-id="4727"></path><path d="M691.8 660.9v37.3H328.3v-37.3h160v-90.7H366.4v-36.9h121.8v-81.6H346.8v-37.3h172.3c-16.8-18.1-43.5-41-66-57l31.2-21.7c26.3 17.6 59.9 45.1 76.7 64.4l-20.1 14.4h130.5v37.3H530.1v81.6h123.1v36.9H530.1V661h161.7z" fill="#4B88F6" p-id="4728"></path></svg>