<?xml version="1.0" standalone="no"?><!DOCTYPE svg PUBLIC "-//W3C//DTD SVG 1.1//EN" "http://www.w3.org/Graphics/SVG/1.1/DTD/svg11.dtd"><svg t="1594868457877" class="icon" viewBox="0 0 1024 1024" version="1.1" xmlns="http://www.w3.org/2000/svg" p-id="2104" xmlns:xlink="http://www.w3.org/1999/xlink" width="200" height="200"><defs><style type="text/css"></style></defs><path d="M758.4 320H262.4V195.2c0-73.6 86.4-131.2 160-131.2h176c73.6 0 160 57.6 160 131.2V320zM294.4 291.2h438.4v-96c0-54.4-73.6-102.4-131.2-102.4h-176c-57.6 0-131.2 48-131.2 102.4v96z m435.2 38.4c0 140.8-99.2 256-217.6 256s-217.6-115.2-217.6-256h-32c0 156.8 112 284.8 246.4 284.8 137.6 0 246.4-128 246.4-284.8h-25.6z m-44.8 320c-9.6 0-16 6.4-16 12.8 0 96-35.2 211.2-83.2 265.6h-150.4C384 873.6 352 758.4 352 665.6c0-6.4-6.4-12.8-16-12.8s-16 6.4-16 12.8c0 105.6 38.4 227.2 96 288 3.2 3.2 6.4 3.2 9.6 3.2h163.2c3.2 0 9.6-3.2 9.6-3.2 57.6-60.8 96-182.4 96-288 6.4-9.6 0-16-9.6-16z" fill="#27AEFF" p-id="2105"></path><path d="M592 960c-185.6 0-387.2-3.2-483.2-9.6-48 0-44.8-57.6-44.8-96v-16c0-128 284.8-201.6 384-214.4 32-3.2 96-3.2 128 0 99.2 12.8 384 86.4 384 214.4v16c0 38.4 3.2 92.8-44.8 99.2-70.4 3.2-192 6.4-323.2 6.4zM512 649.6c-22.4 0-44.8 0-60.8 3.2-121.6 16-355.2 92.8-355.2 185.6v16c0 25.6-3.2 67.2 16 67.2 166.4 6.4 636.8 16 803.2 0 16 0 16-32 16-67.2v-16c0-92.8-233.6-169.6-355.2-185.6-19.2 0-41.6-3.2-64-3.2z m-16-515.2h28.8v115.2h-28.8V134.4z" fill="#27AEFF" p-id="2106"></path><path d="M454.4 179.2h115.2v28.8h-115.2v-28.8z" fill="#27AEFF" p-id="2107"></path></svg>