<?xml version="1.0" standalone="no"?><!DOCTYPE svg PUBLIC "-//W3C//DTD SVG 1.1//EN" "http://www.w3.org/Graphics/SVG/1.1/DTD/svg11.dtd"><svg t="1594868779745" class="icon" viewBox="0 0 1024 1024" version="1.1" xmlns="http://www.w3.org/2000/svg" p-id="11136" xmlns:xlink="http://www.w3.org/1999/xlink" width="200" height="200"><defs><style type="text/css"></style></defs><path d="M896 870.4H128V486.4c0-71.68 56.32-128 128-128h512c71.68 0 128 56.32 128 128v384zM179.2 819.2h665.6V486.4c0-43.52-33.28-76.8-76.8-76.8H256c-43.52 0-76.8 33.28-76.8 76.8v332.8z" fill="#1296db" p-id="11137"></path><path d="M870.4 755.2H153.6c-15.36 0-25.6-10.24-25.6-25.6s10.24-25.6 25.6-25.6h716.8c15.36 0 25.6 10.24 25.6 25.6s-10.24 25.6-25.6 25.6zM921.6 870.4H102.4c-15.36 0-25.6-10.24-25.6-25.6s10.24-25.6 25.6-25.6h819.2c15.36 0 25.6 10.24 25.6 25.6s-10.24 25.6-25.6 25.6zM504.32 609.28h-5.12c-48.64-2.56-94.72-25.6-128-66.56-30.72-38.4-87.04-79.36-202.24 5.12l-30.72-40.96c138.24-102.4 225.28-53.76 271.36 5.12 25.6 30.72 56.32 46.08 89.6 48.64 53.76 2.56 102.4-33.28 117.76-48.64 28.16-28.16 104.96-58.88 171.52-51.2 46.08 5.12 81.92 23.04 102.4 56.32l-43.52 28.16c-12.8-20.48-33.28-30.72-64-33.28-56.32-5.12-115.2 20.48-128 35.84-23.04 23.04-84.48 61.44-151.04 61.44zM729.6 384c-15.36 0-25.6-10.24-25.6-25.6V102.4c0-15.36 10.24-25.6 25.6-25.6s25.6 10.24 25.6 25.6v256c0 15.36-10.24 25.6-25.6 25.6zM524.8 384c-15.36 0-25.6-10.24-25.6-25.6V102.4c0-15.36 10.24-25.6 25.6-25.6s25.6 10.24 25.6 25.6v256c0 15.36-10.24 25.6-25.6 25.6zM320 384c-15.36 0-25.6-10.24-25.6-25.6V102.4c0-15.36 10.24-25.6 25.6-25.6s25.6 10.24 25.6 25.6v256c0 15.36-10.24 25.6-25.6 25.6z" fill="#1296db" p-id="11138"></path></svg>