<?xml version="1.0" standalone="no"?><!DOCTYPE svg PUBLIC "-//W3C//DTD SVG 1.1//EN" "http://www.w3.org/Graphics/SVG/1.1/DTD/svg11.dtd"><svg t="1594868757168" class="icon" viewBox="0 0 1219 1024" version="1.1" xmlns="http://www.w3.org/2000/svg" p-id="10147" xmlns:xlink="http://www.w3.org/1999/xlink" width="238.0859375" height="200"><defs><style type="text/css"></style></defs><path d="M292.571429 633.904762c-160.914286 0-292.571429-131.657143-292.571429-292.571429s131.657143-292.571429 292.571429-292.571428 292.571429 131.657143 292.571428 292.571428-131.657143 292.571429-292.571428 292.571429zM292.571429 146.285714C185.295238 146.285714 97.52381 234.057143 97.52381 341.333333s87.771429 195.047619 195.047619 195.047619 195.047619-87.771429 195.047619-195.047619-87.771429-195.047619-195.047619-195.047619zM536.380952 780.190476H48.761905c-29.257143 0-48.761905-19.504762-48.761905-48.761905s19.504762-48.761905 48.761905-48.761904h487.619047c29.257143 0 48.761905 19.504762 48.761905 48.761904s-19.504762 48.761905-48.761905 48.761905z" fill="#1296db" p-id="10148"></path><path d="M292.571429 1024c-29.257143 0-48.761905-19.504762-48.761905-48.761905v-390.095238c0-29.257143 19.504762-48.761905 48.761905-48.761905s48.761905 19.504762 48.761904 48.761905v390.095238c0 29.257143-19.504762 48.761905-48.761904 48.761905zM926.47619 1024c-160.914286 0-292.571429-131.657143-292.571428-292.571429s131.657143-292.571429 292.571428-292.571428 292.571429 131.657143 292.571429 292.571428-131.657143 292.571429-292.571429 292.571429z m0-487.619048c-107.27619 0-195.047619 87.771429-195.047619 195.047619s87.771429 195.047619 195.047619 195.047619 195.047619-87.771429 195.04762-195.047619-87.771429-195.047619-195.04762-195.047619z" fill="#1296db" p-id="10149"></path><path d="M926.47619 536.380952c-29.257143 0-48.761905-19.504762-48.761904-48.761904V97.52381c0-29.257143 19.504762-48.761905 48.761904-48.761905s48.761905 19.504762 48.761905 48.761905v390.095238c0 29.257143-19.504762 48.761905-48.761905 48.761904z" fill="#1296db" p-id="10150"></path><path d="M1131.27619 341.333333c-14.628571 0-24.380952-4.87619-34.133333-14.628571L926.47619 156.038095l-170.666666 170.666667c-19.504762 19.504762-48.761905 19.504762-68.266667 0s-19.504762-48.761905 0-68.266667l204.8-204.8c19.504762-19.504762 48.761905-19.504762 68.266667 0l204.8 204.8c19.504762 19.504762 19.504762 48.761905 0 68.266667-4.87619 9.752381-19.504762 14.628571-34.133334 14.628571z" fill="#1296db" p-id="10151"></path></svg>