<?xml version="1.0" standalone="no"?><!DOCTYPE svg PUBLIC "-//W3C//DTD SVG 1.1//EN" "http://www.w3.org/Graphics/SVG/1.1/DTD/svg11.dtd"><svg t="1595130965162" class="icon" viewBox="0 0 1024 1024" version="1.1" xmlns="http://www.w3.org/2000/svg" p-id="2991" xmlns:xlink="http://www.w3.org/1999/xlink" width="200" height="200"><defs><style type="text/css"></style></defs><path d="M948.159429 171.174301c0 34.113028-29.239738 68.835217-81.627603 97.465794a889.375372 889.375372 0 0 1-709.063652 0C105.080309 240.009518 75.840571 207.723974 75.840571 171.174301 75.840571 88.328376 251.279001 0 512 0s436.159429 88.328376 436.159429 171.174301zM948.159429 707.84533V852.825699c0 82.845925-175.43843 171.174301-436.159429 171.174301S75.840571 935.671624 75.840571 852.825699v-144.980369l6.091612 6.091612 6.700774 6.700774a311.890541 311.890541 0 0 0 51.169542 34.722189 927.143367 927.143367 0 0 0 744.395002 0 304.580607 304.580607 0 0 0 50.560381-34.722189 69.444378 69.444378 0 0 0 6.700774-6.700774z" fill="#459BD6" p-id="2992"></path><path d="M948.159429 480.628198v144.980368c0 33.503867-29.239738 68.226056-81.627603 97.465794a889.375372 889.375372 0 0 1-709.063652 0C105.080309 693.834622 75.840571 659.112433 75.840571 625.608566V480.628198a201.0232 201.0232 0 0 0 35.940512 30.45806l8.528257 6.091612 18.883997 10.964902a930.189173 930.189173 0 0 0 745.613326 0l18.274836-10.964902 9.137418-6.091612a225.389649 225.389649 0 0 0 35.940512-30.45806z" fill="#459BD6" p-id="2993"></path><path d="M948.159429 252.192742v144.980369c0 34.113028-29.239738 68.226056-81.018441 97.465794a892.421178 892.421178 0 0 1-710.281976 0C104.471148 465.399167 75.840571 433.722784 75.840571 397.173111V252.192742a57.261154 57.261154 0 0 0 6.091612 6.091613 277.168352 277.168352 0 0 0 57.870316 41.422962 927.143367 927.143367 0 0 0 744.395002 0 331.3837 331.3837 0 0 0 35.940512-22.538965l12.792386-10.964902 9.137418-7.919095z" fill="#459BD6" p-id="2994"></path></svg>