<?xml version="1.0" standalone="no"?><!DOCTYPE svg PUBLIC "-//W3C//DTD SVG 1.1//EN" "http://www.w3.org/Graphics/SVG/1.1/DTD/svg11.dtd"><svg t="1594868698268" class="icon" viewBox="0 0 1024 1024" version="1.1" xmlns="http://www.w3.org/2000/svg" p-id="8606" xmlns:xlink="http://www.w3.org/1999/xlink" width="200" height="200"><defs><style type="text/css"></style></defs><path d="M-0.073143 512a512 512 0 1 1 512 512 512 512 0 0 1-512-512z m60.196572 0A451.730286 451.730286 0 1 0 512 60.416 452.315429 452.315429 0 0 0 60.196571 512z m583.387428 162.377143a29.257143 29.257143 0 0 1-20.918857-8.704l-131.657143-131.657143a30.061714 30.061714 0 0 1-8.996571-21.357714V229.888a30.281143 30.281143 0 0 1 60.489143 0v270.189714l122.953142 122.587429a30.134857 30.134857 0 0 1-21.357714 51.2z" fill="#1890FF" p-id="8607"></path></svg>