<?xml version="1.0" standalone="no"?><!DOCTYPE svg PUBLIC "-//W3C//DTD SVG 1.1//EN" "http://www.w3.org/Graphics/SVG/1.1/DTD/svg11.dtd"><svg t="1594868530918" class="icon" viewBox="0 0 1024 1024" version="1.1" xmlns="http://www.w3.org/2000/svg" p-id="2893" xmlns:xlink="http://www.w3.org/1999/xlink" width="200" height="200"><defs><style type="text/css"></style></defs><path d="M744.243175 779.242295a121.550905 121.550905 0 0 0-116.980087 89.295165c-8.142624 0.629514-16.216823 1.272713-24.222596 1.984337-21.389784 1.820116-41.588966 3.571807-60.967044 3.599177-14.985166 0-31.680967 0.670569-49.375778 1.368508-93.195413 3.462326-220.795125 8.21105-250.012777-63.553524-4.105525-10.126961-4.20132-18.775933-0.218961-27.260685 6.664635-14.259856 23.976265-27.288055 45.160773-34.048486 36.087563-11.495469 66.482132-3.298105 105.00564 7.061503 21.088712 5.692994 42.916419 11.563895 67.727474 14.820945l6.555155 0.875845C515.606498 779.92655 606.283856 792.147328 657.931359 752.67955a90.855264 90.855264 0 0 0 35.581215-61.500762c10.455403-79.37348-52.578088-122.782562-107.236309-151.726512q39.057226-21.184508 71.039265-57.86053-9.784834-11.413359-19.528613-22.840403c61.062839-72.530938 91.156336-184.283324 101.064336-288.508914 19.159116-21.827707 19.378077-65.140994-1.368508-106.086761-24.633149-48.390453-69.397054-75.021623-99.901104-59.461685S602.096221 72.065646 626.72937 120.428728c10.701735 21.006602 25.166867 37.921364 40.644696 49.061022-9.415337 82.110496-33.555823 171.337236-76.910165 230.470478-6.322508-8.498436-12.46711-17.174779-18.324326-26.001657-25.71427 38.441397-58.845856 63.279823-99.777938 63.279822-38.414027 0-69.889717-21.896132-94.851309-56.368856l-2.367519 1.450619c-5.884586 7.225724-12.029188 14.191431-18.22853 21.088713-44.763906-58.763745-69.711811-149.276882-79.37348-232.742202 16.148398-11.084917 31.352525-28.423917 42.423757-50.251624 24.633149-48.390453 19.802315-100.229546-10.74279-115.789485s-75.267955 11.071232-99.901104 59.461684c-20.021276 39.385668-20.527624 81.056745-3.626547 103.582392 9.579558 104.102424 39.317243 216.032716 99.901104 289.206853-6.965707 7.006762-13.972469 14.013525-20.897122 21.116082 44.572314 52.810734 100.544303 82.917916 165.589501 88.433005 19.364392 15.792585 43.942801 28.068105 69.602331 40.849972 60.474381 30.189292 86.955016 47.733569 83.725336 71.956165-0.068425 0.492663-0.123166 0.793735-0.10948 0.83479-3.708657 4.351856-23.483602 16.983188-124.452143 3.36653l-6.842541-0.9169c-18.858044-2.477-36.949723-7.321519-55.971988-12.453426-44.339668-11.947077-94.618662-25.481624-156.009943-5.92564-45.913453 14.643039-82.274717 44.558629-99.846364 82.055756-14.793574 31.612541-15.382033 66.15369-1.64221 99.901104 43.039585 105.703579 163.427258 121.605645 267.776014 121.605645 24.482613 0 48.089381-0.86216 69.588645-1.655895 16.914762-0.629514 32.844199-1.231657 46.28295-1.259028 23.168845 0 46.200839-2.039077 68.425414-3.954989 9.141635-0.78005 18.050624-1.505359 26.822762-2.148558a121.414054 121.414054 0 1 0 106.565739-179.45249z m0 171.624623a50.196883 50.196883 0 1 1 50.196884-50.183198 50.251624 50.251624 0 0 1-50.196884 50.183198z m0 0" fill="#437DFF" p-id="2894"></path><path d="M621.433243 900.410018a126.860717 123.589982 0 1 0 253.721434 0 126.860717 123.589982 0 1 0-253.721434 0Z" fill="#66F7DF" p-id="2895"></path><path d="M748.29396 900.410018m-59.448 0a59.447999 59.447999 0 1 0 118.895999 0 59.447999 59.447999 0 1 0-118.895999 0Z" fill="#FFFFFF" p-id="2896"></path></svg>