<?xml version="1.0" standalone="no"?><!DOCTYPE svg PUBLIC "-//W3C//DTD SVG 1.1//EN" "http://www.w3.org/Graphics/SVG/1.1/DTD/svg11.dtd"><svg t="1594868676475" class="icon" viewBox="0 0 1093 1024" version="1.1" xmlns="http://www.w3.org/2000/svg" p-id="7801" xmlns:xlink="http://www.w3.org/1999/xlink" width="213.4765625" height="200"><defs><style type="text/css"></style></defs><path d="M11.0592 136.533333m37.546667 0l129.706666 0q37.546667 0 37.546667 37.546667l0 0q0 37.546667-37.546667 37.546667l-129.706666 0q-37.546667 0-37.546667-37.546667l0 0q0-37.546667 37.546667-37.546667Z" fill="#1296db" p-id="7802"></path><path d="M409.6 105.403733m37.546667 0l609.143466 0q37.546667 0 37.546667 37.546667l0 0q0 37.546667-37.546667 37.546667l-609.143466 0q-37.546667 0-37.546667-37.546667l0 0q0-37.546667 37.546667-37.546667Z" fill="#1296db" p-id="7803"></path><path d="M318.2592 276.0704a136.533333 136.533333 0 1 1 0-273.066667 136.533333 136.533333 0 0 1 0 273.066667z m0-68.266667a68.266667 68.266667 0 1 0 0-136.533333 68.266667 68.266667 0 0 0 0 136.533333z" fill="#1296db" p-id="7804"></path><path d="M11.0592 477.866667m37.546667 0l334.506666 0q37.546667 0 37.546667 37.546666l0 0q0 37.546667-37.546667 37.546667l-334.506666 0q-37.546667 0-37.546667-37.546667l0 0q0-37.546667 37.546667-37.546666Z" fill="#1296db" p-id="7805"></path><path d="M650.717867 477.866667h408.917333a34.133333 34.133333 0 0 1 34.133333 34.133333v6.826667a34.133333 34.133333 0 0 1-34.133333 34.133333h-408.917333a34.133333 34.133333 0 0 1-34.133334-34.133333v-6.826667a34.133333 34.133333 0 0 1 34.133334-34.133333z" fill="#1296db" p-id="7806"></path><path d="M523.0592 648.533333a136.533333 136.533333 0 1 1 0-273.066666 136.533333 136.533333 0 0 1 0 273.066666z m0-68.266666a68.266667 68.266667 0 1 0 0-136.533334 68.266667 68.266667 0 0 0 0 136.533334zM45.192533 853.4016h556.6464a34.133333 34.133333 0 0 1 34.133334 34.133333v6.826667a34.133333 34.133333 0 0 1-34.133334 34.133333H45.192533a34.133333 34.133333 0 0 1-34.133333-34.133333v-6.826667a34.133333 34.133333 0 0 1 34.133333-34.133333zM831.624533 853.4016h228.010667a34.133333 34.133333 0 0 1 34.133333 34.133333v6.826667a34.133333 34.133333 0 0 1-34.133333 34.133333h-228.010667a34.133333 34.133333 0 0 1-34.133333-34.133333v-6.826667a34.133333 34.133333 0 0 1 34.133333-34.133333z" fill="#1296db" p-id="7807"></path><path d="M727.8592 1024.068267a136.533333 136.533333 0 1 1 0-273.066667 136.533333 136.533333 0 0 1 0 273.066667z m0-68.266667a68.266667 68.266667 0 1 0 0-136.533333 68.266667 68.266667 0 0 0 0 136.533333z" fill="#1296db" p-id="7808"></path></svg>