<?xml version="1.0" standalone="no"?><!DOCTYPE svg PUBLIC "-//W3C//DTD SVG 1.1//EN" "http://www.w3.org/Graphics/SVG/1.1/DTD/svg11.dtd"><svg t="1595131547757" class="icon" viewBox="0 0 1024 1024" version="1.1" xmlns="http://www.w3.org/2000/svg" p-id="3769" xmlns:xlink="http://www.w3.org/1999/xlink" width="200" height="200"><defs><style type="text/css"></style></defs><path d="M757.206 645.935c0 98.935-68.96 183.47-196.706 204.588v114.562H450.32V859.382c-74.556-3.309-146.753-24.432-189.02-47.838l33.286-130.085c46.697 25.55 112.324 48.96 184.64 48.96 64.533 0 107.844-25.55 107.844-68.91 0-42.247-35.674-69.012-119.062-96.849-118.89-40.05-200.04-95.58-200.04-203.474 0-98.939 68.839-175.731 187.777-197.973V57.56h109.083v97.82c73.39 2.287 123.418 18.88 162.35 36.789l-33.383 125.657c-27.838-13.432-80.107-39.028-160.159-39.028-72.197 0-95.63 32.265-95.63 63.412 0 35.523 38.983 60.101 134.61 94.457 132.276 46.77 184.542 107.943 184.59 209.268z" fill="#1296db" p-id="3770"></path></svg>