<?xml version="1.0" standalone="no"?><!DOCTYPE svg PUBLIC "-//W3C//DTD SVG 1.1//EN" "http://www.w3.org/Graphics/SVG/1.1/DTD/svg11.dtd"><svg t="1594868559009" class="icon" viewBox="0 0 1024 1024" version="1.1" xmlns="http://www.w3.org/2000/svg" p-id="3662" xmlns:xlink="http://www.w3.org/1999/xlink" width="200" height="200"><defs><style type="text/css"></style></defs><path d="M716.8 1024H307.2C136.533333 1024 0 887.466667 0 716.8V307.2C0 136.533333 136.533333 0 307.2 0h409.6C887.466667 0 1024 136.533333 1024 307.2v409.6c0 170.666667-136.533333 307.2-307.2 307.2z" fill="#487ECC" p-id="3663"></path><path d="M512 819.2c-116.622222 0-221.866667-65.422222-273.066667-167.822222-5.688889-11.377778 0-22.755556 8.533334-28.444445s22.755556 0 28.444444 8.533334c45.511111 88.177778 136.533333 145.066667 236.088889 145.066666 145.066667 0 264.533333-119.466667 264.533333-264.533333 0-145.066667-119.466667-264.533333-264.533333-264.533333-102.4 0-190.577778 56.888889-236.088889 147.911111-5.688889 11.377778-17.066667 14.222222-28.444444 8.533333s-14.222222-17.066667-8.533334-28.444444c51.2-105.244444 156.444444-170.666667 275.911111-170.666667 170.666667 0 307.2 136.533333 307.2 307.2S682.666667 819.2 512 819.2z" fill="#FFFFFF" p-id="3664"></path><path d="M577.422222 665.6c-8.533333 0-14.222222-2.844444-17.066666-11.377778L426.666667 423.822222 369.777778 540.444444c-2.844444 8.533333-11.377778 11.377778-19.911111 11.377778H227.555556c-11.377778 0-22.755556-8.533333-22.755556-22.755555s8.533333-17.066667 22.755556-17.066667h108.088888l68.266667-142.222222c2.844444-8.533333 11.377778-11.377778 17.066667-11.377778 8.533333 0 14.222222 2.844444 19.911111 11.377778l133.688889 230.4 54.044444-113.777778c2.844444-8.533333 11.377778-11.377778 19.911111-11.377778h54.044445c11.377778 0 22.755556 8.533333 22.755555 22.755556s-8.533333 22.755556-22.755555 22.755555h-39.822222L597.333333 654.222222c-2.844444 8.533333-11.377778 11.377778-19.911111 11.377778zM796.444444 819.2c-5.688889 0-11.377778-2.844444-14.222222-5.688889l-82.488889-82.488889c-8.533333-8.533333-8.533333-22.755556 0-31.288889 8.533333-8.533333 22.755556-8.533333 31.288889 0l82.488889 82.488889c8.533333 8.533333 8.533333 22.755556 0 31.288889-5.688889 2.844444-11.377778 5.688889-17.066667 5.688889z" fill="#FFFFFF" p-id="3665"></path></svg>