<?xml version="1.0" standalone="no"?><!DOCTYPE svg PUBLIC "-//W3C//DTD SVG 1.1//EN" "http://www.w3.org/Graphics/SVG/1.1/DTD/svg11.dtd"><svg t="1594868630747" class="icon" viewBox="0 0 1024 1024" version="1.1" xmlns="http://www.w3.org/2000/svg" p-id="5640" xmlns:xlink="http://www.w3.org/1999/xlink" width="200" height="200"><defs><style type="text/css"></style></defs><path d="M641.7 487c61.6-43.2 99.7-113.3 99.7-191.2 0-129.3-105.2-234.4-234.4-234.4S272.6 166.6 272.6 295.8c0 77.9 38.1 148 99.6 191.2-184.1 57.9-313 229.3-313 426.7 0 11.6 9.4 21.1 21.1 21.1s21.1-9.4 21.1-21.1c0-195.4 139.2-363.1 331-398.8 0.8-0.2 1.4-0.6 2.2-0.9 1.4-0.4 2.7-0.9 3.9-1.6 1.2-0.6 2.2-1.4 3.2-2.2 1.1-0.9 2-1.8 2.9-2.9 0.9-1.1 1.6-2.2 2.2-3.5 0.4-0.7 1-1.2 1.3-2 0.2-0.6 0.1-1.1 0.3-1.7 0.4-1.3 0.6-2.7 0.7-4.1 0.1-1.4 0.2-2.8 0.1-4.2-0.1-0.6 0.1-1.1 0-1.6-0.1-0.8-0.6-1.4-0.8-2.1-0.4-1.4-0.9-2.8-1.6-4.1-0.6-1.1-1.3-2.1-2.1-3.1-0.9-1.1-1.9-2.1-3-3.1-1-0.8-2.1-1.5-3.2-2.1-0.7-0.4-1.3-1-2.1-1.4-73.8-29.2-121.6-99.4-121.6-178.8 0-106 86.2-192.3 192.2-192.3s192.3 86.2 192.3 192.3c0 79.4-47.7 149.6-121.6 178.8-0.8 0.3-1.4 1-2.1 1.4-1.1 0.6-2.2 1.3-3.2 2.1-1.2 0.9-2.1 2-3.1 3.1-0.8 0.9-1.4 1.9-2 3-0.8 1.4-1.3 2.8-1.7 4.3-0.2 0.7-0.7 1.2-0.8 2-0.1 0.5 0.1 1 0 1.5-0.2 1.5-0.1 3 0.1 4.5 0.1 1.3 0.3 2.5 0.7 3.8 0.2 0.6 0.1 1.2 0.3 1.8 0.4 1.1 1.2 2 1.8 3 0.3 0.5 0.6 1.1 0.9 1.6 1.5 2.1 3.2 3.9 5.3 5.2 0 0 0.1 0 0.1 0.1 2.1 1.3 4.4 2.2 6.8 2.7 0.3 0.1 0.5 0.3 0.9 0.3 191.8 35.7 331 203.4 331 398.8 0 11.6 9.4 21.1 21.1 21.1 11.6 0 21.1-9.4 21.1-21.1-0.2-197.2-129-368.6-313.2-426.5z" p-id="5641" fill="#1296db"></path><path d="M511.7 606.7c-63.2 0-114.7 51.4-114.7 114.7 0 63.2 51.4 114.7 114.7 114.7 63.2 0 114.7-51.4 114.7-114.7 0-63.2-51.5-114.7-114.7-114.7z m0 187.2c-40 0-72.5-32.5-72.5-72.5s32.5-72.5 72.5-72.5 72.5 32.5 72.5 72.5-32.5 72.5-72.5 72.5z" p-id="5642" fill="#1296db"></path></svg>