<?xml version="1.0" standalone="no"?><!DOCTYPE svg PUBLIC "-//W3C//DTD SVG 1.1//EN" "http://www.w3.org/Graphics/SVG/1.1/DTD/svg11.dtd"><svg t="1594880175797" class="icon" viewBox="0 0 1024 1024" version="1.1" xmlns="http://www.w3.org/2000/svg" p-id="12073" xmlns:xlink="http://www.w3.org/1999/xlink" width="200" height="200"><defs><style type="text/css"></style></defs><path d="M512 32C246.86545438 32 32 246.86545438 32 512s214.86545438 480 480 480 480-214.86545438 480-480S777.13454562 32 512 32z m291.62181844 771.62181844a410.35636406 410.35636406 0 0 1-131.08363688 88.40727281 407.86909125 407.86909125 0 0 1-160.53818156 32.46545438 410.18181844 410.18181844 0 0 1-291.62181844-120.74181844A410.35636406 410.35636406 0 0 1 131.92727281 672.58181844 409.30909125 409.30909125 0 0 1 99.41818156 512c0-55.68 10.90909125-109.65818156 32.42181844-160.49454563a412.93090875 412.93090875 0 0 1 88.40727281-131.17090874A410.35636406 410.35636406 0 0 1 351.37454562 131.92727281a409.44 409.44 0 0 1 160.58181844-32.42181843 410.18181844 410.18181844 0 0 1 291.66545438 120.74181843 409.52727281 409.52727281 0 0 1 88.36363594 131.21454563 408.43636406 408.43636406 0 0 1 32.46545437 160.5818175 410.09454563 410.09454563 0 0 1-120.82909031 291.5781825z m-296.50909125-149.19272719a33.81818156 33.81818156 0 0 1-33.64363594-37.1781825c4.62545437-46.77818156 38.88-84.52363594 76.71272719-122.31272719 60.48-60.48 61.44-79.68 62.48727281-100.01454562a86.83636406 86.83636406 0 0 0-24.74181844-64.8 105.33818156 105.33818156 0 0 0-76.14545437-32.4218175h-0.13090969A100.97454563 100.97454563 0 0 0 411.02545437 398.54545438a33.77454563 33.77454563 0 1 1-67.50545437 0 167.17090875 167.17090875 0 0 1 49.13454562-118.90909032 167.12727281 167.12727281 0 0 1 118.77818157-49.39636406 173.23636406 173.23636406 0 0 1 125.45454562 53.45454563c30.10909125 31.68 45.46909125 72.43636406 43.2 114.76363593-2.31272719 43.46181844-15.66545437 77.67272719-82.21090875 144.2181825-33.77454563 33.77454563-55.02545438 59.08363594-57.16363687 81.29454469a33.77454563 33.77454563 0 0 1-33.6 30.4581825v0.04363594z m-41.80363594 98.70545438a40.58181844 40.58181844 0 1 0 81.20727281 0 40.58181844 40.58181844 0 0 0-81.16363687 0z" p-id="12074" fill="#FF0000"></path></svg>