<?xml version="1.0" standalone="no"?><!DOCTYPE svg PUBLIC "-//W3C//DTD SVG 1.1//EN" "http://www.w3.org/Graphics/SVG/1.1/DTD/svg11.dtd"><svg t="1595156202742" class="icon" viewBox="0 0 1024 1024" version="1.1" xmlns="http://www.w3.org/2000/svg" p-id="6613" xmlns:xlink="http://www.w3.org/1999/xlink" width="200" height="200"><defs><style type="text/css"></style></defs><path d="M1024 518.318298C1024 229.223489 794.776511 0 505.681702 0 229.223489 0 0 229.223489 0 518.318298 0 794.776511 229.223489 1024 505.681702 1024 794.776511 1024 1024 794.776511 1024 518.318298z" fill="#52C51A" p-id="6614"></path><path d="M241.413447 529.048511a6.645106 6.645106 0 0 1-0.544681-8.333617l22.822128-31.046809a5.337872 5.337872 0 0 1 7.56017-1.100255l135.701787 104.001361a7.059064 7.059064 0 0 0 8.475234-0.15251l330.294468-275.172766a6.100426 6.100426 0 0 1 7.995915 0.326808l21.645617 21.373277a5.381447 5.381447 0 0 1-0.054468 7.603745L415.144851 701.004255a5.414128 5.414128 0 0 1-7.68-0.098042L241.413447 529.048511z" fill="#FFFFFF" p-id="6615"></path></svg>